<svg width="552" height="552" viewBox="0 0 552 552" fill="none" xmlns="http://www.w3.org/2000/svg">
<path d="M283.783 287.261H72.1574V68.3817H283.783V287.261ZM76.5734 282.845H279.367V72.7977H76.5734V282.845Z" fill="#F9F9F9"/>
<path d="M178.462 73.9459H174.046V285.042H178.462V73.9459Z" fill="#F9F9F9"/>
<path d="M287.791 77.3131H68.1499V83.4624H287.791V77.3131Z" fill="#F9F9F9"/>
<path d="M287.791 84.2241H68.1499V90.3734H287.791V84.2241Z" fill="#F9F9F9"/>
<path d="M287.791 91.1462H68.1499V97.2955H287.791V91.1462Z" fill="#F9F9F9"/>
<path d="M287.791 98.0573H68.1499V104.207H287.791V98.0573Z" fill="#F9F9F9"/>
<path d="M287.791 104.979H68.1499V111.129H287.791V104.979Z" fill="#F9F9F9"/>
<path d="M287.791 111.901H68.1499V118.051H287.791V111.901Z" fill="#F9F9F9"/>
<path d="M287.791 118.812H68.1499V124.962H287.791V118.812Z" fill="#F9F9F9"/>
<path d="M287.791 125.734H68.1499V131.884H287.791V125.734Z" fill="#F9F9F9"/>
<path d="M287.791 132.657H68.1499V138.806H287.791V132.657Z" fill="#F9F9F9"/>
<path d="M274.675 76.0656H273.571V217.808H274.675V76.0656Z" fill="#263238"/>
<path d="M276.088 222.942H272.169L273.152 217.311H275.106L276.088 222.942Z" fill="#263238"/>
<path d="M278.661 76.0656H277.557V281.111H278.661V76.0656Z" fill="#263238"/>
<path d="M280.063 285.252H276.144L277.126 279.621H279.08L280.063 285.252Z" fill="#263238"/>
<path d="M294.647 67.5206H61.3051V80.3822H294.647V67.5206Z" fill="#DBDBDB"/>
<path d="M412.278 97.5053C412.278 96.5779 412.399 94.1271 412.399 93.0893C412.399 88.596 410.809 86.5647 406.625 86.4653C404.649 86.3439 403.479 85.1736 403.479 83.5066C403.479 81.8395 404.649 80.6803 406.625 80.5589C410.809 80.3712 412.399 78.3509 412.399 73.8466C412.399 72.7426 412.278 70.3359 412.278 69.4306C412.278 63.4579 414.806 59.6381 424.344 57.5515C424.999 57.3828 425.693 57.4695 426.286 57.7938C426.879 58.1182 427.326 58.6561 427.537 59.2982C427.747 59.9403 427.706 60.6385 427.421 61.2512C427.135 61.8638 426.628 62.3449 426 62.5968C420.039 64.4405 419.178 66.3504 419.178 70.5346C419.178 71.7711 419.299 73.8466 419.299 75.0941C419.299 79.8855 416.959 82.2259 412.896 83.5176C417.025 84.8755 419.299 87.1498 419.299 91.9522C419.299 93.2439 419.178 95.2642 419.178 96.5007C419.178 100.685 420.039 102.595 426 104.438C426.66 104.666 427.204 105.145 427.515 105.77C427.825 106.395 427.878 107.118 427.66 107.781C427.443 108.445 426.974 108.996 426.353 109.317C425.733 109.638 425.011 109.701 424.344 109.495C414.806 107.353 412.278 103.533 412.278 97.5053Z" fill="#F9F9F9"/>
<path d="M448.345 69.3864C448.345 70.3027 448.224 72.7646 448.224 73.8024C448.224 78.3619 449.88 80.327 454.064 80.5147C454.467 80.4901 454.871 80.5482 455.251 80.6854C455.63 80.8227 455.978 81.0362 456.272 81.3129C456.566 81.5895 456.8 81.9234 456.961 82.294C457.121 82.6647 457.203 83.0642 457.203 83.4679C457.203 83.8717 457.121 84.2712 456.961 84.6418C456.8 85.0124 456.566 85.3463 456.272 85.623C455.978 85.8996 455.63 86.1131 455.251 86.2504C454.871 86.3877 454.467 86.4458 454.064 86.4211C449.88 86.5425 448.224 88.5739 448.224 93.0451C448.224 94.1491 448.345 96.5448 448.345 97.4611C448.345 103.489 445.817 107.309 436.279 109.406C435.608 109.619 434.881 109.556 434.257 109.232C433.632 108.908 433.162 108.349 432.95 107.679C432.738 107.008 432.801 106.281 433.125 105.657C433.449 105.032 434.007 104.562 434.678 104.35C440.584 102.506 441.445 100.596 441.445 96.4123C441.445 95.1869 441.324 93.1003 441.324 91.8638C441.324 87.0614 443.664 84.7209 447.727 83.4293C443.598 82.0824 441.324 79.7971 441.324 75.0058C441.324 73.7141 441.445 71.6938 441.445 70.4462C441.445 66.2621 440.584 64.3521 434.678 62.5085C434.04 62.2718 433.517 61.7985 433.218 61.1868C432.919 60.575 432.868 59.8717 433.073 59.2228C433.279 58.5739 433.727 58.0291 434.324 57.7015C434.921 57.3739 435.621 57.2885 436.279 57.4632C445.817 59.616 448.345 63.4137 448.345 69.3864Z" fill="#F9F9F9"/>
<path d="M447.12 284.247C447.472 284.611 447.71 285.069 447.806 285.567C447.901 286.064 447.85 286.578 447.658 287.046C447.466 287.515 447.141 287.917 446.724 288.204C446.307 288.491 445.816 288.651 445.309 288.663C444.602 288.669 443.918 288.405 443.399 287.923L431.785 276.132C431.664 276.132 431.62 276.011 431.576 275.89C431.541 275.853 431.5 275.823 431.454 275.801C431.398 275.697 431.357 275.586 431.333 275.47C431.3 275.455 431.272 275.432 431.25 275.403C431.229 275.374 431.216 275.34 431.211 275.304C431.211 275.227 431.211 275.106 431.123 275.062C431.035 275.017 431.046 274.896 431.046 274.852V274.565C431.046 274.487 431.046 274.443 431.046 274.322C431.046 274.2 431.046 274.156 431.046 274.112V273.825C431.046 273.737 431.123 273.693 431.123 273.659C431.123 273.626 431.123 273.45 431.211 273.328C431.3 273.207 431.211 273.328 431.211 273.24C431.268 273.114 431.335 272.992 431.41 272.876C431.41 272.852 431.419 272.83 431.436 272.813C431.452 272.797 431.475 272.787 431.498 272.787C431.552 272.671 431.636 272.572 431.741 272.5L443.355 260.721C443.856 260.242 444.523 259.975 445.216 259.975C445.908 259.975 446.575 260.242 447.076 260.721C447.322 260.964 447.517 261.254 447.65 261.573C447.784 261.892 447.852 262.235 447.852 262.581C447.852 262.927 447.784 263.269 447.65 263.589C447.517 263.908 447.322 264.198 447.076 264.441L437.283 274.377L447.12 284.247Z" fill="#F9F9F9"/>
<path d="M457.663 285.561L467.798 261.46C467.917 261.184 468.089 260.933 468.305 260.723C468.521 260.513 468.777 260.348 469.057 260.237C469.337 260.127 469.636 260.072 469.938 260.077C470.239 260.083 470.536 260.147 470.812 260.268C471.083 260.382 471.329 260.549 471.534 260.759C471.74 260.97 471.901 261.219 472.009 261.492C472.117 261.766 472.17 262.058 472.163 262.352C472.156 262.646 472.091 262.936 471.971 263.205L461.836 287.338C461.658 287.748 461.363 288.097 460.988 288.34C460.613 288.584 460.175 288.711 459.728 288.707C459.447 288.711 459.168 288.654 458.911 288.541C458.626 288.436 458.367 288.274 458.148 288.064C457.929 287.855 457.756 287.602 457.638 287.322C457.521 287.043 457.463 286.742 457.468 286.439C457.472 286.136 457.538 285.837 457.663 285.561Z" fill="#F9F9F9"/>
<path d="M491.976 275.845C491.894 275.954 491.797 276.051 491.688 276.132L480.074 287.923C479.572 288.399 478.906 288.664 478.214 288.664C477.522 288.664 476.856 288.399 476.354 287.923C476.108 287.68 475.913 287.39 475.779 287.071C475.646 286.752 475.577 286.409 475.577 286.063C475.577 285.717 475.646 285.374 475.779 285.055C475.913 284.736 476.108 284.446 476.354 284.203L486.146 274.267L476.354 264.331C476.108 264.087 475.913 263.798 475.779 263.478C475.646 263.159 475.577 262.816 475.577 262.47C475.577 262.124 475.646 261.782 475.779 261.463C475.913 261.143 476.108 260.854 476.354 260.61C476.855 260.132 477.521 259.865 478.214 259.865C478.907 259.865 479.573 260.132 480.074 260.61L491.688 272.39C491.795 272.474 491.891 272.57 491.976 272.677V272.765C492.055 272.881 492.125 273.003 492.185 273.13C492.185 273.13 492.185 273.13 492.185 273.218C492.207 273.345 492.248 273.468 492.307 273.582C492.307 273.582 492.307 273.582 492.307 273.715V274.002C492.307 274.002 492.307 274.167 492.307 274.211C492.307 274.256 492.307 274.377 492.307 274.41V274.741C492.307 274.741 492.307 274.741 492.307 274.83C492.254 274.947 492.214 275.069 492.185 275.194C492.185 275.194 492.185 275.194 492.185 275.327C492.185 275.459 492.064 275.68 491.976 275.845Z" fill="#F9F9F9"/>
<path d="M518.725 177.004C518.726 179.201 517.895 181.316 516.4 182.926C514.905 184.536 512.857 185.52 510.666 185.682H461.406C458.777 185.682 456.249 184.669 454.347 182.854C452.445 181.038 451.316 178.56 451.194 175.934C451.071 173.308 451.966 170.735 453.691 168.751C455.416 166.767 457.839 165.524 460.456 165.28C460.588 161.287 462.103 157.464 464.742 154.466C467.381 151.467 470.981 149.48 474.925 148.843C478.868 148.206 482.911 148.961 486.36 150.976C489.809 152.992 492.449 156.144 493.83 159.892C495.246 159.17 496.812 158.792 498.401 158.788C501.004 158.789 503.509 159.781 505.406 161.563C507.303 163.346 508.45 165.784 508.613 168.382C509.08 168.306 509.553 168.269 510.026 168.272C511.172 168.27 512.306 168.495 513.365 168.934C514.423 169.373 515.384 170.016 516.192 170.828C517.001 171.64 517.641 172.603 518.076 173.663C518.511 174.723 518.731 175.859 518.725 177.004Z" fill="#DBDBDB"/>
<path d="M73.6699 464.519L124.255 464.243L174.84 464.155L276 463.967L377.16 464.155L427.745 464.243L478.33 464.519L427.745 464.784L377.16 464.883L276 465.071L174.84 464.883L124.255 464.784L73.6699 464.519Z" fill="#263238"/>
<path d="M95.0323 516.694C122.031 516.694 143.917 512.493 143.917 507.31C143.917 502.127 122.031 497.926 95.0323 497.926C68.0338 497.926 46.1472 502.127 46.1472 507.31C46.1472 512.493 68.0338 516.694 95.0323 516.694Z" fill="#F9F9F9"/>
<path d="M291.423 512.521C397.771 512.521 483.983 503.174 483.983 491.644C483.983 480.114 397.771 470.768 291.423 470.768C185.075 470.768 98.8632 480.114 98.8632 491.644C98.8632 503.174 185.075 512.521 291.423 512.521Z" fill="#F9F9F9"/>
<path d="M396.987 67.9954H309.65V123.714H396.987V67.9954Z" fill="white"/>
<path d="M397.539 124.266H309.12V67.4434H397.561L397.539 124.266ZM310.202 123.162H396.435V68.5474H310.224L310.202 123.162Z" fill="#F9F9F9"/>
<path d="M396.987 67.9954H309.65V78.5275H396.987V67.9954Z" fill="#88786C"/>
<path d="M397.539 79.0906H309.12V67.4434H397.561L397.539 79.0906ZM310.202 77.9866H396.435V68.5474H310.224L310.202 77.9866Z" fill="#F9F9F9"/>
<path d="M319.531 73.3387C319.524 73.8599 319.364 74.3675 319.07 74.7981C318.777 75.2287 318.363 75.5632 317.88 75.7596C317.397 75.956 316.867 76.0057 316.356 75.9024C315.845 75.7991 315.376 75.5475 315.008 75.1789C314.639 74.8104 314.388 74.3413 314.284 73.8304C314.181 73.3196 314.231 72.7896 314.427 72.3068C314.623 71.824 314.958 71.4099 315.389 71.1163C315.819 70.8226 316.327 70.6625 316.848 70.656C317.201 70.6515 317.552 70.7179 317.88 70.8511C318.207 70.9844 318.505 71.1818 318.755 71.4318C319.005 71.6818 319.202 71.9793 319.336 72.3068C319.469 72.6343 319.535 72.9852 319.531 73.3387Z" fill="#A6A6A6"/>
<path d="M330.361 73.3387C330.361 73.8627 330.206 74.375 329.914 74.8107C329.623 75.2464 329.209 75.5861 328.725 75.7866C328.241 75.9871 327.708 76.0396 327.194 75.9374C326.681 75.8351 326.208 75.5828 325.838 75.2122C325.467 74.8417 325.215 74.3696 325.113 73.8556C325.01 73.3416 325.063 72.8089 325.263 72.3247C325.464 71.8406 325.804 71.4268 326.239 71.1356C326.675 70.8445 327.187 70.6891 327.711 70.6891C328.414 70.6891 329.088 70.9682 329.585 71.4651C330.082 71.962 330.361 72.636 330.361 73.3387Z" fill="#F9F9F9"/>
<path d="M341.191 73.3387C341.191 73.8627 341.036 74.375 340.745 74.8107C340.454 75.2464 340.04 75.5861 339.556 75.7866C339.071 75.9871 338.539 76.0396 338.025 75.9374C337.511 75.8351 337.039 75.5828 336.668 75.2122C336.297 74.8417 336.045 74.3696 335.943 73.8556C335.841 73.3416 335.893 72.8089 336.094 72.3247C336.294 71.8406 336.634 71.4268 337.07 71.1356C337.505 70.8445 338.018 70.6891 338.542 70.6891C339.244 70.6891 339.918 70.9682 340.415 71.4651C340.912 71.962 341.191 72.636 341.191 73.3387Z" fill="white"/>
<path d="M324.719 99.36C324.772 96.5398 325.929 93.8527 327.942 91.8768C329.955 89.901 332.663 88.7942 335.483 88.7947C337.928 88.7911 340.304 89.5987 342.24 91.091C342.575 91.3749 342.791 91.7747 342.844 92.2106C342.897 92.6465 342.784 93.0864 342.527 93.4425C342.253 93.7865 341.857 94.0116 341.421 94.0713C340.985 94.1309 340.543 94.0204 340.187 93.7627C338.846 92.6858 337.169 92.1152 335.45 92.1509C333.487 92.158 331.601 92.9119 330.173 94.2595C328.823 95.6133 328.064 97.4477 328.065 99.36C328.063 100.31 328.252 101.251 328.62 102.127C328.988 103.003 329.527 103.796 330.206 104.46C331.632 105.812 333.519 106.57 335.483 106.58C337.203 106.606 338.878 106.032 340.22 104.957C340.583 104.716 341.021 104.616 341.453 104.677C341.884 104.738 342.278 104.956 342.56 105.288C342.816 105.648 342.925 106.091 342.866 106.528C342.806 106.964 342.582 107.362 342.24 107.64C340.298 109.144 337.907 109.952 335.45 109.936C332.632 109.934 329.927 108.823 327.92 106.845C325.912 104.866 324.763 102.178 324.719 99.36Z" fill="#F9F9F9"/>
<path d="M347.605 104.88C347.865 104.573 348.235 104.38 348.636 104.343C349.036 104.305 349.435 104.427 349.747 104.681C351.331 106.001 353.297 106.775 355.355 106.889C356.662 106.906 357.941 106.521 359.021 105.785C359.387 105.561 359.693 105.251 359.913 104.881C360.132 104.512 360.258 104.095 360.279 103.666C360.288 103.335 360.2 103.008 360.025 102.727C359.801 102.373 359.499 102.075 359.142 101.855C357.9 101.146 356.538 100.675 355.124 100.464H355.057C353.754 100.255 352.482 99.8843 351.271 99.3599C350.162 98.8737 349.216 98.0808 348.544 97.0747C348.096 96.3523 347.863 95.5177 347.87 94.6679C347.897 93.8192 348.124 92.9887 348.533 92.2443C348.941 91.4998 349.52 90.8626 350.222 90.3844C351.709 89.3448 353.486 88.8001 355.3 88.8278C357.618 88.9466 359.846 89.7623 361.692 91.1683C362.021 91.3924 362.249 91.7371 362.325 92.1277C362.402 92.5183 362.321 92.9233 362.101 93.2548C361.997 93.4235 361.859 93.5693 361.697 93.6835C361.535 93.7976 361.351 93.8777 361.157 93.919C360.964 93.9603 360.763 93.9618 360.569 93.9236C360.374 93.8853 360.189 93.8081 360.025 93.6964C358.677 92.6071 357.029 91.9527 355.3 91.8196C354.119 91.7945 352.96 92.1421 351.988 92.8132C351.67 93.0118 351.403 93.2838 351.211 93.6064C351.019 93.9291 350.907 94.2931 350.884 94.6679C350.865 94.9557 350.938 95.2421 351.094 95.4849C351.301 95.7893 351.568 96.0485 351.878 96.2467C353.006 96.9157 354.255 97.3547 355.554 97.5383H355.609C357.005 97.7844 358.366 98.1996 359.661 98.7748C360.85 99.2912 361.865 100.138 362.587 101.215C363.049 101.961 363.294 102.821 363.293 103.699C363.259 104.592 363.014 105.465 362.579 106.246C362.143 107.026 361.529 107.693 360.787 108.192C359.196 109.304 357.296 109.887 355.355 109.859C352.596 109.725 349.957 108.694 347.837 106.922C347.559 106.667 347.382 106.32 347.34 105.944C347.297 105.569 347.392 105.191 347.605 104.88Z" fill="#F9F9F9"/>
<path d="M366.892 104.88C367.152 104.573 367.522 104.38 367.923 104.343C368.323 104.305 368.722 104.427 369.034 104.681C370.614 106 372.577 106.775 374.631 106.889C375.941 106.907 377.224 106.521 378.308 105.785C378.672 105.559 378.977 105.248 379.196 104.879C379.415 104.51 379.542 104.094 379.566 103.666C379.572 103.334 379.48 103.007 379.301 102.727C379.077 102.373 378.775 102.075 378.418 101.855C377.176 101.146 375.814 100.675 374.4 100.464H374.344C373.041 100.255 371.769 99.8843 370.558 99.3599C369.447 98.8769 368.5 98.0833 367.831 97.0747C367.38 96.3532 367.143 95.5187 367.146 94.6679C367.175 93.8197 367.403 92.9902 367.812 92.2462C368.22 91.5022 368.798 90.8645 369.498 90.3844C370.985 89.3448 372.762 88.8001 374.576 88.8278C376.894 88.9466 379.122 89.7623 380.968 91.1683C381.299 91.3906 381.529 91.7346 381.607 92.1253C381.686 92.516 381.607 92.9219 381.388 93.2548C381.282 93.4239 381.144 93.5699 380.981 93.6842C380.818 93.7984 380.633 93.8786 380.439 93.9198C380.244 93.9611 380.043 93.9625 379.847 93.9241C379.652 93.8858 379.466 93.8083 379.301 93.6964C377.952 92.6071 376.305 91.9527 374.576 91.8196C373.395 91.7945 372.236 92.1421 371.264 92.8132C370.945 93.0118 370.679 93.2838 370.487 93.6064C370.295 93.9291 370.183 94.2931 370.16 94.6679C370.146 94.9552 370.219 95.24 370.37 95.4849C370.578 95.7919 370.849 96.0515 371.165 96.2467C372.29 96.9143 373.535 97.3532 374.83 97.5383H374.885C376.282 97.7812 377.643 98.1966 378.937 98.7748C380.129 99.291 381.148 100.138 381.874 101.215C382.336 101.961 382.581 102.821 382.58 103.699C382.544 104.593 382.297 105.466 381.86 106.247C381.422 107.027 380.807 107.694 380.063 108.192C378.473 109.306 376.572 109.889 374.631 109.859C371.875 109.727 369.238 108.696 367.124 106.922C366.842 106.67 366.662 106.322 366.619 105.945C366.577 105.569 366.674 105.19 366.892 104.88Z" fill="#F9F9F9"/>
<path d="M457.266 119.033H337.979V203.5H457.266V119.033Z" fill="white"/>
<path d="M457.829 204.052H337.427V118.481H457.829V204.052ZM338.531 202.948H456.725V119.585H338.531V202.948Z" fill="#F9F9F9"/>
<path d="M457.266 119.033H337.979V129.565H457.266V119.033Z" fill="#88786C"/>
<path d="M457.829 130.129H337.427V118.481H457.829V130.129ZM338.531 129.025H456.725V119.585H338.531V129.025Z" fill="#F9F9F9"/>
<path d="M347.87 124.377C347.87 124.901 347.715 125.413 347.424 125.849C347.133 126.284 346.719 126.624 346.235 126.825C345.751 127.025 345.218 127.078 344.704 126.975C344.19 126.873 343.718 126.621 343.347 126.25C342.977 125.88 342.724 125.408 342.622 124.894C342.52 124.38 342.572 123.847 342.773 123.363C342.973 122.879 343.313 122.465 343.749 122.174C344.184 121.882 344.697 121.727 345.221 121.727C345.569 121.727 345.913 121.796 346.235 121.929C346.556 122.062 346.848 122.257 347.094 122.503C347.34 122.749 347.535 123.041 347.669 123.363C347.802 123.684 347.87 124.029 347.87 124.377Z" fill="#A6A6A6"/>
<path d="M358.701 124.377C358.703 124.904 358.548 125.42 358.257 125.859C357.965 126.298 357.55 126.641 357.063 126.844C356.577 127.046 356.041 127.1 355.524 126.998C355.007 126.895 354.531 126.642 354.159 126.269C353.786 125.896 353.532 125.421 353.43 124.904C353.328 124.387 353.381 123.851 353.584 123.364C353.787 122.878 354.13 122.462 354.569 122.171C355.008 121.879 355.524 121.725 356.051 121.727C356.399 121.727 356.744 121.796 357.065 121.929C357.386 122.062 357.679 122.257 357.925 122.503C358.171 122.749 358.366 123.041 358.499 123.363C358.632 123.684 358.701 124.029 358.701 124.377Z" fill="#F9F9F9"/>
<path d="M369.531 124.377C369.533 124.903 369.379 125.419 369.088 125.858C368.797 126.297 368.382 126.64 367.896 126.843C367.41 127.046 366.875 127.1 366.358 126.999C365.841 126.897 365.366 126.645 364.993 126.273C364.62 125.901 364.365 125.427 364.262 124.911C364.158 124.394 364.21 123.859 364.411 123.372C364.612 122.885 364.953 122.469 365.391 122.176C365.829 121.883 366.344 121.727 366.87 121.727C367.219 121.726 367.565 121.793 367.888 121.926C368.21 122.058 368.504 122.253 368.751 122.499C368.998 122.745 369.194 123.038 369.328 123.36C369.462 123.682 369.531 124.028 369.531 124.377Z" fill="white"/>
<path d="M354.914 150.53H349.283V152.584H354.914V150.53Z" fill="#F9F9F9"/>
<path d="M397.274 150.53H359.021V152.584H397.274V150.53Z" fill="#F9F9F9"/>
<path d="M411.428 150.53H400.73V152.584H411.428V150.53Z" fill="#88786C"/>
<path d="M435.903 178.064H425.206V180.118H435.903V178.064Z" fill="#F9F9F9"/>
<path d="M432.249 150.53H413.757V152.584H432.249V150.53Z" fill="#A6A6A6"/>
<path d="M360.544 156.039H354.914V158.093H360.544V156.039Z" fill="#F9F9F9"/>
<path d="M389.348 156.039H364.519V158.093H389.348V156.039Z" fill="#A6A6A6"/>
<path d="M422.666 178.064H397.837V180.118H422.666V178.064Z" fill="#A6A6A6"/>
<path d="M381.951 172.555H359.021V174.609H381.951V172.555Z" fill="#A6A6A6"/>
<path d="M375.36 161.548H364.519V163.602H375.36V161.548Z" fill="#88786C"/>
<path d="M418.736 167.057H407.895V169.111H418.736V167.057Z" fill="#A6A6A6"/>
<path d="M415.093 161.548H378.506V163.602H415.093V161.548Z" fill="#A6A6A6"/>
<path d="M395.607 178.064H359.021V180.118H395.607V178.064Z" fill="#88786C"/>
<path d="M441.92 156.039H412.565V158.093H441.92V156.039Z" fill="#88786C"/>
<path d="M410.246 156.039H392.008V158.093H410.246V156.039Z" fill="#F9F9F9"/>
<path d="M435.462 161.548H417.224V163.602H435.462V161.548Z" fill="#F9F9F9"/>
<path d="M360.544 161.548H354.914V163.602H360.544V161.548Z" fill="#F9F9F9"/>
<path d="M354.914 167.057H349.283V169.111H354.914V167.057Z" fill="#A6A6A6"/>
<path d="M374.731 167.057H359.021V169.111H374.731V167.057Z" fill="#F9F9F9"/>
<path d="M380.229 183.573H364.519V185.627H380.229V183.573Z" fill="#F9F9F9"/>
<path d="M425.537 189.082H400.222V191.135H425.537V189.082Z" fill="#88786C"/>
<path d="M407.531 183.573H382.933V185.627H407.531V183.573Z" fill="#88786C"/>
<path d="M397.308 189.082H377.038V191.135H397.308V189.082Z" fill="#F9F9F9"/>
<path d="M441.92 183.573H410.412V185.627H441.92V183.573Z" fill="#A6A6A6"/>
<path d="M374.157 189.082H364.519V191.135H374.157V189.082Z" fill="#A6A6A6"/>
<path d="M411.428 172.555H384.236V174.609H411.428V172.555Z" fill="#F9F9F9"/>
<path d="M436.654 172.555H413.757V174.609H436.654V172.555Z" fill="#88786C"/>
<path d="M405.267 167.057H378.12V169.111H405.267V167.057Z" fill="#88786C"/>
<path d="M354.914 172.555H349.283V174.609H354.914V172.555Z" fill="#F9F9F9"/>
<path d="M354.914 178.064H349.283V180.118H354.914V178.064Z" fill="#F9F9F9"/>
<path d="M360.544 183.573H354.914V185.627H360.544V183.573Z" fill="#A6A6A6"/>
<path d="M360.544 189.082H354.914V191.135H360.544V189.082Z" fill="#F9F9F9"/>
<path d="M352.761 145.11C352.809 145.154 352.847 145.208 352.873 145.268C352.899 145.328 352.913 145.392 352.913 145.458C352.913 145.523 352.899 145.587 352.873 145.647C352.847 145.707 352.809 145.761 352.761 145.805C352.717 145.851 352.664 145.888 352.605 145.913C352.546 145.937 352.483 145.95 352.419 145.949C352.353 145.95 352.288 145.938 352.228 145.913C352.167 145.888 352.112 145.852 352.066 145.805L349.858 143.597C349.858 143.597 349.858 143.597 349.858 143.542C349.858 143.542 349.858 143.542 349.858 143.476C349.864 143.458 349.864 143.438 349.858 143.421V143.365C349.863 143.344 349.863 143.321 349.858 143.299C349.858 143.299 349.858 143.244 349.858 143.222L352.066 141.014C352.161 140.928 352.285 140.88 352.413 140.88C352.542 140.88 352.666 140.928 352.761 141.014C352.809 141.058 352.847 141.112 352.873 141.172C352.899 141.232 352.913 141.296 352.913 141.362C352.913 141.427 352.899 141.492 352.873 141.551C352.847 141.611 352.809 141.665 352.761 141.709L350.928 143.564L352.761 145.11Z" fill="#88786C"/>
<path d="M354.737 145.364L356.625 140.848C356.673 140.747 356.758 140.667 356.863 140.626C356.968 140.585 357.084 140.586 357.188 140.628C357.289 140.674 357.368 140.757 357.409 140.859C357.45 140.962 357.45 141.077 357.409 141.18L355.488 145.728C355.454 145.803 355.4 145.866 355.332 145.911C355.263 145.956 355.184 145.981 355.102 145.982C355.051 145.993 354.998 145.993 354.947 145.982C354.887 145.962 354.832 145.929 354.787 145.884C354.742 145.84 354.708 145.785 354.688 145.725C354.668 145.665 354.661 145.601 354.67 145.539C354.679 145.476 354.702 145.416 354.737 145.364Z" fill="#88786C"/>
<path d="M361.152 143.52L361.096 143.575L358.888 145.783C358.844 145.829 358.791 145.866 358.732 145.891C358.673 145.915 358.61 145.928 358.546 145.927C358.481 145.928 358.415 145.916 358.355 145.891C358.294 145.866 358.239 145.83 358.193 145.783C358.102 145.69 358.051 145.565 358.051 145.435C358.051 145.305 358.102 145.181 358.193 145.088L360.025 143.244L358.193 141.389C358.102 141.296 358.051 141.172 358.051 141.041C358.051 140.911 358.102 140.787 358.193 140.694C358.288 140.608 358.412 140.56 358.541 140.56C358.669 140.56 358.793 140.608 358.888 140.694L361.096 142.902H361.152V142.979V143.045V143.244C361.153 143.27 361.153 143.296 361.152 143.321C361.132 143.351 361.121 143.385 361.121 143.421C361.121 143.456 361.132 143.491 361.152 143.52Z" fill="#88786C"/>
<path d="M512.388 196.115H425.051V251.833H512.388V196.115Z" fill="white"/>
<path d="M512.94 252.374H424.499V195.562H512.94V252.374ZM425.603 251.27H511.836V196.666H425.603V251.27Z" fill="#F9F9F9"/>
<path d="M512.388 196.115H425.051V206.647H512.388V196.115Z" fill="#88786C"/>
<path d="M512.94 207.199H424.499V195.562H512.94V207.199ZM425.603 206.095H511.836V196.666H425.603V206.095Z" fill="#F9F9F9"/>
<path d="M434.976 201.458C434.978 201.985 434.824 202.5 434.533 202.939C434.242 203.378 433.827 203.721 433.341 203.924C432.855 204.127 432.32 204.181 431.803 204.08C431.286 203.978 430.811 203.726 430.438 203.354C430.065 202.983 429.81 202.509 429.707 201.992C429.603 201.476 429.655 200.94 429.856 200.453C430.057 199.967 430.398 199.55 430.836 199.258C431.274 198.965 431.789 198.808 432.315 198.808C432.664 198.807 433.01 198.874 433.333 199.007C433.655 199.139 433.949 199.334 434.196 199.581C434.443 199.827 434.639 200.119 434.773 200.441C434.907 200.764 434.976 201.109 434.976 201.458Z" fill="#A6A6A6"/>
<path d="M445.762 201.458C445.762 201.982 445.607 202.494 445.316 202.93C445.024 203.366 444.611 203.705 444.126 203.906C443.642 204.106 443.11 204.159 442.596 204.057C442.082 203.954 441.609 203.702 441.239 203.332C440.868 202.961 440.616 202.489 440.514 201.975C440.412 201.461 440.464 200.928 440.665 200.444C440.865 199.96 441.205 199.546 441.64 199.255C442.076 198.964 442.588 198.808 443.112 198.808C443.461 198.807 443.806 198.874 444.128 199.007C444.45 199.14 444.743 199.335 444.989 199.581C445.236 199.827 445.431 200.12 445.563 200.442C445.696 200.764 445.764 201.11 445.762 201.458Z" fill="#F9F9F9"/>
<path d="M456.592 201.458C456.592 201.982 456.437 202.494 456.146 202.93C455.855 203.366 455.441 203.705 454.957 203.906C454.473 204.106 453.94 204.159 453.426 204.057C452.912 203.954 452.44 203.702 452.069 203.332C451.699 202.961 451.446 202.489 451.344 201.975C451.242 201.461 451.294 200.928 451.495 200.444C451.695 199.96 452.035 199.546 452.471 199.255C452.906 198.964 453.419 198.808 453.943 198.808C454.291 198.807 454.636 198.874 454.958 199.007C455.281 199.14 455.573 199.335 455.82 199.581C456.066 199.827 456.261 200.12 456.394 200.442C456.526 200.764 456.594 201.11 456.592 201.458Z" fill="white"/>
<path d="M441.357 227.479C441.412 224.66 442.57 221.974 444.582 219.999C446.595 218.024 449.301 216.916 452.121 216.914C454.574 216.896 456.962 217.705 458.9 219.21C459.219 219.494 459.419 219.888 459.459 220.313C459.499 220.739 459.377 221.163 459.117 221.502C458.856 221.841 458.477 222.068 458.056 222.139C457.635 222.209 457.203 222.117 456.846 221.882C455.511 220.802 453.838 220.227 452.121 220.259C450.157 220.269 448.27 221.027 446.844 222.379C446.169 223.046 445.633 223.84 445.265 224.716C444.898 225.591 444.706 226.53 444.702 227.479C444.7 228.431 444.888 229.374 445.256 230.251C445.624 231.129 446.164 231.925 446.844 232.591C448.271 233.938 450.158 234.692 452.121 234.699C453.836 234.731 455.508 234.161 456.846 233.087C457.21 232.844 457.649 232.742 458.083 232.801C458.516 232.86 458.913 233.076 459.198 233.408C459.456 233.764 459.569 234.206 459.513 234.642C459.458 235.079 459.239 235.478 458.9 235.759C456.959 237.257 454.572 238.061 452.121 238.044C449.298 238.053 446.585 236.95 444.57 234.972C442.555 232.994 441.401 230.302 441.357 227.479Z" fill="#F9F9F9"/>
<path d="M469.498 229.334H465.325C464.897 229.334 464.487 229.164 464.185 228.862C463.883 228.56 463.713 228.15 463.713 227.722C463.716 227.294 463.886 226.885 464.188 226.582C464.489 226.278 464.897 226.105 465.325 226.099H469.498V222.025C469.495 221.805 469.536 221.587 469.619 221.382C469.701 221.178 469.824 220.992 469.979 220.836C470.134 220.68 470.319 220.556 470.523 220.472C470.727 220.388 470.945 220.346 471.165 220.347C471.61 220.347 472.037 220.524 472.352 220.839C472.666 221.154 472.843 221.58 472.843 222.025V226.099H477.005C477.433 226.105 477.841 226.278 478.143 226.582C478.444 226.885 478.614 227.294 478.617 227.722C478.617 228.15 478.447 228.56 478.145 228.862C477.843 229.164 477.433 229.334 477.005 229.334H472.843V233.408C472.843 233.853 472.666 234.28 472.352 234.594C472.037 234.909 471.61 235.086 471.165 235.086C470.945 235.087 470.727 235.045 470.523 234.961C470.319 234.877 470.134 234.753 469.979 234.597C469.824 234.441 469.701 234.255 469.619 234.051C469.536 233.847 469.495 233.628 469.498 233.408V229.334Z" fill="#F9F9F9"/>
<path d="M487.692 229.334H483.552C483.125 229.334 482.715 229.164 482.412 228.862C482.11 228.56 481.94 228.15 481.94 227.722C481.943 227.294 482.113 226.885 482.415 226.582C482.716 226.278 483.124 226.105 483.552 226.099H487.725V222.025C487.722 221.805 487.763 221.587 487.846 221.382C487.928 221.178 488.051 220.992 488.206 220.836C488.361 220.68 488.546 220.556 488.75 220.472C488.954 220.388 489.172 220.346 489.392 220.347C489.836 220.35 490.261 220.528 490.576 220.842C490.89 221.156 491.067 221.581 491.07 222.025V226.099H495.232C495.66 226.105 496.068 226.278 496.37 226.582C496.671 226.885 496.841 227.294 496.844 227.722C496.844 228.15 496.674 228.56 496.372 228.862C496.07 229.164 495.66 229.334 495.232 229.334H491.07V233.408C491.067 233.852 490.89 234.277 490.576 234.591C490.261 234.905 489.836 235.083 489.392 235.086C489.172 235.087 488.954 235.045 488.75 234.961C488.546 234.877 488.361 234.753 488.206 234.597C488.051 234.441 487.928 234.255 487.846 234.051C487.763 233.847 487.722 233.628 487.725 233.408L487.692 229.334Z" fill="#F9F9F9"/>
<path d="M498.456 103.544H438.961V125.569H498.456V103.544Z" fill="#455A64"/>
<path d="M447.551 119.133V109.362C447.549 109.241 447.572 109.122 447.617 109.01C447.663 108.898 447.73 108.796 447.816 108.711C447.901 108.626 448.003 108.558 448.115 108.513C448.226 108.467 448.346 108.444 448.467 108.446C448.588 108.444 448.709 108.467 448.821 108.512C448.933 108.558 449.036 108.625 449.122 108.71C449.208 108.796 449.277 108.897 449.323 109.009C449.37 109.121 449.394 109.241 449.394 109.362V113.337H453.678V109.362C453.676 109.241 453.699 109.122 453.745 109.01C453.79 108.898 453.857 108.796 453.943 108.711C454.028 108.626 454.13 108.558 454.242 108.513C454.354 108.467 454.473 108.444 454.594 108.446C454.715 108.444 454.836 108.467 454.948 108.512C455.061 108.558 455.163 108.625 455.249 108.71C455.335 108.796 455.404 108.897 455.451 109.009C455.497 109.121 455.521 109.241 455.521 109.362V119.133C455.52 119.253 455.495 119.372 455.448 119.482C455.4 119.593 455.331 119.693 455.245 119.777C455.159 119.861 455.057 119.928 454.946 119.972C454.834 120.017 454.714 120.039 454.594 120.038C454.474 120.041 454.354 120.02 454.243 119.975C454.131 119.931 454.029 119.865 453.943 119.78C453.858 119.696 453.79 119.595 453.745 119.483C453.699 119.372 453.676 119.253 453.678 119.133V115.158H449.394V119.133C449.393 119.253 449.368 119.372 449.32 119.482C449.273 119.593 449.204 119.693 449.118 119.777C449.032 119.861 448.93 119.928 448.818 119.972C448.707 120.017 448.587 120.039 448.467 120.038C448.347 120.041 448.227 120.02 448.115 119.975C448.004 119.931 447.902 119.865 447.816 119.78C447.731 119.696 447.663 119.595 447.617 119.483C447.572 119.372 447.549 119.253 447.551 119.133Z" fill="white"/>
<path d="M466.385 110.29H463.746V119.122C463.748 119.241 463.725 119.359 463.68 119.47C463.635 119.58 463.569 119.681 463.484 119.765C463.4 119.849 463.3 119.916 463.189 119.961C463.079 120.006 462.96 120.028 462.841 120.027C462.6 120.027 462.368 119.932 462.197 119.762C462.025 119.593 461.928 119.363 461.925 119.122V110.29H459.264C459.144 110.288 459.025 110.263 458.914 110.216C458.804 110.168 458.703 110.099 458.619 110.013C458.535 109.927 458.469 109.825 458.424 109.714C458.379 109.602 458.357 109.483 458.359 109.362C458.356 109.242 458.377 109.122 458.421 109.011C458.466 108.899 458.532 108.797 458.617 108.712C458.701 108.626 458.802 108.558 458.913 108.513C459.024 108.467 459.144 108.444 459.264 108.446H466.341C466.46 108.446 466.579 108.47 466.69 108.516C466.8 108.562 466.9 108.63 466.985 108.715C467.069 108.8 467.135 108.901 467.18 109.012C467.225 109.123 467.247 109.242 467.246 109.362C467.246 109.597 467.158 109.823 466.998 109.996C466.838 110.168 466.619 110.273 466.385 110.29Z" fill="white"/>
<path d="M479.997 109.362V119.133C479.991 119.375 479.891 119.605 479.718 119.774C479.544 119.943 479.312 120.038 479.07 120.038C478.95 120.039 478.831 120.017 478.72 119.972C478.609 119.927 478.508 119.861 478.422 119.777C478.337 119.693 478.27 119.592 478.223 119.482C478.177 119.371 478.153 119.253 478.153 119.133V112.155L475.769 115.467C475.687 115.588 475.576 115.686 475.447 115.753C475.318 115.821 475.175 115.855 475.029 115.854C474.88 115.856 474.733 115.822 474.6 115.755C474.468 115.687 474.353 115.589 474.267 115.467L471.894 112.155V119.133C471.894 119.376 471.797 119.609 471.625 119.781C471.453 119.952 471.22 120.049 470.977 120.049C470.734 120.049 470.501 119.952 470.329 119.781C470.158 119.609 470.061 119.376 470.061 119.133V109.362C470.061 109.121 470.156 108.89 470.326 108.718C470.495 108.547 470.725 108.449 470.966 108.446H471.022C471.165 108.446 471.307 108.482 471.434 108.549C471.561 108.616 471.669 108.714 471.75 108.832L475.062 113.403L478.374 108.832C478.456 108.712 478.566 108.614 478.695 108.546C478.825 108.479 478.968 108.444 479.114 108.446C479.348 108.462 479.569 108.565 479.732 108.734C479.895 108.904 479.989 109.127 479.997 109.362Z" fill="white"/>
<path d="M484.005 119.133V109.362C484.005 109.121 484.1 108.89 484.269 108.718C484.439 108.547 484.669 108.449 484.91 108.446C485.154 108.446 485.388 108.542 485.562 108.714C485.735 108.885 485.834 109.118 485.837 109.362V118.194H490.331C490.574 118.194 490.807 118.291 490.978 118.463C491.15 118.634 491.247 118.868 491.247 119.111C491.247 119.354 491.15 119.587 490.978 119.758C490.807 119.93 490.574 120.027 490.331 120.027H484.91C484.672 120.027 484.443 119.933 484.274 119.766C484.104 119.598 484.008 119.371 484.005 119.133Z" fill="white"/>
<path d="M347.859 174.907H298.831V196.932H347.859V174.907Z" fill="#455A64"/>
<path d="M313.415 186.907H311.383V190.495C311.358 190.722 311.251 190.932 311.08 191.085C310.91 191.237 310.69 191.322 310.461 191.322C310.233 191.322 310.013 191.237 309.842 191.085C309.672 190.932 309.564 190.722 309.54 190.495V180.725C309.542 180.484 309.64 180.254 309.812 180.084C309.983 179.915 310.215 179.82 310.456 179.82H313.415C313.88 179.82 314.341 179.911 314.771 180.089C315.201 180.267 315.591 180.528 315.92 180.858C316.25 181.187 316.511 181.577 316.689 182.007C316.867 182.437 316.958 182.898 316.958 183.363C316.958 183.829 316.867 184.29 316.689 184.72C316.511 185.15 316.25 185.54 315.92 185.869C315.591 186.198 315.201 186.459 314.771 186.637C314.341 186.816 313.88 186.907 313.415 186.907ZM311.383 185.064H313.415C313.65 185.083 313.887 185.053 314.11 184.975C314.334 184.898 314.539 184.776 314.712 184.616C314.886 184.455 315.025 184.261 315.119 184.044C315.214 183.828 315.263 183.594 315.263 183.358C315.263 183.122 315.214 182.888 315.119 182.671C315.025 182.455 314.886 182.261 314.712 182.1C314.539 181.94 314.334 181.817 314.11 181.74C313.887 181.663 313.65 181.633 313.415 181.652H311.383V185.064Z" fill="white"/>
<path d="M319.199 190.495V180.725C319.199 180.482 319.296 180.249 319.468 180.077C319.64 179.905 319.873 179.808 320.116 179.808C320.359 179.808 320.592 179.905 320.764 180.077C320.936 180.249 321.032 180.482 321.032 180.725V184.699H325.327V180.725C325.325 180.605 325.348 180.485 325.394 180.374C325.439 180.263 325.507 180.162 325.592 180.077C325.678 179.993 325.78 179.926 325.891 179.882C326.003 179.838 326.123 179.817 326.243 179.82C326.363 179.818 326.483 179.84 326.594 179.885C326.706 179.93 326.808 179.996 326.894 180.08C326.98 180.164 327.049 180.264 327.096 180.375C327.144 180.486 327.169 180.604 327.17 180.725V190.495C327.17 190.616 327.146 190.737 327.1 190.848C327.053 190.96 326.984 191.062 326.898 191.147C326.812 191.232 326.709 191.3 326.597 191.345C326.485 191.39 326.364 191.413 326.243 191.412C326.122 191.413 326.002 191.39 325.891 191.345C325.779 191.299 325.677 191.232 325.592 191.146C325.506 191.061 325.439 190.959 325.393 190.848C325.348 190.736 325.325 190.616 325.327 190.495V186.576H321.032V190.55C321.032 190.793 320.936 191.026 320.764 191.198C320.592 191.37 320.359 191.467 320.116 191.467C319.873 191.467 319.64 191.37 319.468 191.198C319.296 191.026 319.199 190.793 319.199 190.55V190.495Z" fill="white"/>
<path d="M334.821 186.907H332.779V190.495C332.776 190.739 332.677 190.972 332.503 191.144C332.33 191.315 332.095 191.412 331.851 191.412C331.61 191.409 331.38 191.311 331.211 191.139C331.041 190.968 330.946 190.736 330.946 190.495V180.725C330.946 180.485 331.041 180.255 331.211 180.085C331.381 179.915 331.611 179.82 331.851 179.82H334.821C335.286 179.82 335.747 179.911 336.177 180.089C336.607 180.267 336.998 180.528 337.327 180.858C337.656 181.187 337.917 181.577 338.095 182.007C338.273 182.437 338.365 182.898 338.365 183.363C338.365 183.829 338.273 184.29 338.095 184.72C337.917 185.15 337.656 185.54 337.327 185.869C336.998 186.198 336.607 186.459 336.177 186.637C335.747 186.816 335.286 186.907 334.821 186.907ZM332.779 185.064H334.821C335.057 185.083 335.294 185.053 335.517 184.975C335.74 184.898 335.945 184.776 336.119 184.616C336.293 184.455 336.431 184.261 336.526 184.044C336.621 183.828 336.67 183.594 336.67 183.358C336.67 183.122 336.621 182.888 336.526 182.671C336.431 182.455 336.293 182.261 336.119 182.1C335.945 181.94 335.74 181.817 335.517 181.74C335.294 181.663 335.057 181.633 334.821 181.652H332.779V185.064Z" fill="white"/>
<path d="M284.28 358.171L287.128 375.294L306.47 479.743H309.595L295.53 375.294L293.443 358.171H284.28Z" fill="#A6A6A6"/>
<path d="M293.443 358.171H284.28L287.128 375.294H295.53L293.443 358.171Z" fill="#263238"/>
<path d="M223.538 479.743H226.662L245.993 375.294L248.853 358.171H239.678L237.603 375.294L223.538 479.743Z" fill="#A6A6A6"/>
<path d="M239.678 358.171L237.603 375.294H245.993L248.853 358.171H239.678Z" fill="#263238"/>
<path d="M165.534 479.743H168.647L187.989 375.294L190.837 358.171H181.674L179.599 375.294L165.534 479.743Z" fill="#A6A6A6"/>
<path d="M179.599 375.294H187.989L190.837 358.171H181.674L179.599 375.294Z" fill="#263238"/>
<path d="M170.469 366.219H312.2V351.282H259.142L241.312 225.459H175.878L170.469 366.219Z" fill="#A6A6A6"/>
<path d="M170.469 366.219H178.197L183.231 225.459H175.878L170.469 366.219Z" fill="#DBDBDB"/>
<path d="M263.425 235.384L260.688 235.097C260.765 231.575 259.098 226 259.385 228.749C259.527 230.817 259.435 232.895 259.109 234.942L217.311 230.659C217.311 225.337 220.546 216.925 220.546 216.925C217.422 221.01 215.755 227.071 215.026 230.427L210.61 229.974C210.489 226.784 212.145 221.529 212.145 221.529C210.732 223.527 209.605 227.413 209.02 229.82L204.041 229.301C204.75 222.705 207.445 216.48 211.769 211.449C215.644 206.757 217.289 202.683 217.952 191.787C218.702 178.704 227.821 175.072 229.235 173.626C241.721 160.809 262.288 173.748 260.235 189.998C258.689 202.231 257.254 203.556 261.758 215.136C265.159 223.836 263.425 235.384 263.425 235.384Z" fill="#263238"/>
<path d="M236.046 229.952C242.372 253.004 247.649 270.866 254.251 275.216C259.584 278.716 267.069 281.178 274.764 282.944C282.995 284.67 291.329 285.861 299.714 286.51C302.297 286.72 304.45 286.852 305.974 286.963C309.749 287.206 315.91 262.277 313.26 259.241C312.642 258.546 310.158 258.005 306.636 257.563C294.889 256.095 271.75 255.742 270.37 254.428C268.99 253.114 261.538 243.189 251.381 230.217C244.404 221.253 238.685 218.614 236.344 221.098C235.064 222.456 234.832 225.503 236.046 229.952Z" fill="#774442"/>
<path d="M298.4 284.39C302.048 286.015 305.799 287.398 309.628 288.53C312.686 289.292 321.529 291.257 322.699 287.978C323.505 285.77 318.438 283.971 314.883 282.646C313.017 281.951 310.666 280.096 311.173 278.893C312.046 276.784 316.87 278.694 320.061 280.394C326.221 283.706 334.501 289.69 338.078 286.499C339.425 285.285 337.725 283.242 335.285 281.255C339.215 283.529 343.388 285.351 344.934 284.07C345.336 283.741 345.597 283.271 345.662 282.755C345.728 282.24 345.594 281.719 345.287 281.299C345.779 281.51 346.324 281.568 346.849 281.466C347.375 281.363 347.858 281.105 348.235 280.725C349.438 279.378 348.754 277.468 347.318 275.536C347.552 275.503 347.773 275.414 347.965 275.278C348.157 275.142 348.314 274.962 348.422 274.753C350.917 270.624 337.25 259.528 332.635 258.623C319.045 255.918 304.759 257.607 304.759 257.607C299.626 262.034 298.389 284.379 298.4 284.39Z" fill="#774442"/>
<path d="M317.753 271.098C320.984 271.457 324.094 272.528 326.861 274.234C330.085 276.276 332.69 279.135 335.693 281.465C335.782 281.531 335.693 281.653 335.594 281.586C334.181 280.372 332.635 279.301 331.178 278.142C329.721 276.983 328.352 275.834 326.85 274.83C324.134 272.938 321.023 271.688 317.753 271.176C317.753 271.176 317.709 271.098 317.753 271.098Z" fill="#263238"/>
<path d="M320.05 265.291C323.678 266.011 327.225 267.095 330.637 268.526C334.302 270.226 337.261 273.118 340.098 275.89C341.821 277.553 343.51 279.257 345.166 281.001C345.232 281.067 345.166 281.189 345.055 281.122C342.111 278.252 339.108 275.474 336.047 272.787C333.203 270.278 329.889 268.356 326.298 267.135C324.245 266.428 322.136 265.898 320.039 265.357C319.994 265.346 320.005 265.291 320.05 265.291Z" fill="#263238"/>
<path d="M323.649 260.158C327.115 260.732 330.14 261.262 333.253 262.962C336.751 265.111 339.97 267.685 342.836 270.624C344.404 272.18 345.916 273.792 347.407 275.415C347.473 275.481 347.352 275.592 347.296 275.525C343.889 271.959 340.252 268.618 336.411 265.523C334.61 264.016 332.583 262.802 330.405 261.924C328.204 261.149 325.939 260.566 323.638 260.18C323.638 260.18 323.627 260.158 323.649 260.158Z" fill="#263238"/>
<path d="M236.046 229.952C242.372 253.004 247.649 270.866 254.251 275.216C259.584 278.716 267.069 281.178 274.764 282.944L236.377 221.12C235.064 222.456 234.832 225.503 236.046 229.952Z" fill="#263238"/>
<path d="M234.048 226.066C234.71 233.087 239.314 245.165 239.314 245.165L263.679 243.101C263.679 243.101 254.262 229.301 244.459 221.451C243.54 220.707 242.526 220.087 241.445 219.608C237.172 217.775 233.43 219.486 234.048 226.066Z" fill="#88786C"/>
<path d="M234.048 226.066C234.048 226.43 234.125 226.817 234.192 227.17C234.258 227.523 234.302 227.777 234.368 228.097C235.566 233.897 237.22 239.593 239.314 245.132L240.286 245.055L241.235 244.978L248.897 244.326L250.001 244.227L257.63 243.576L258.612 243.498L261.416 243.255L241.445 219.608C237.172 217.775 233.375 219.497 234.048 226.066Z" fill="#263238"/>
<path d="M410.942 479.688C408.314 480.56 331.178 479.92 328.33 478.076C327.987 477.877 327.899 470.9 327.932 461.351V461.163C327.849 454.421 327.407 447.688 326.607 440.993L326.475 439.889C324.444 422.081 320.955 404.771 320.955 404.771L369.233 404.594L375.857 439.922L375.978 441.026L377.336 454.186C377.336 454.186 387.736 458.602 396.789 462.94C402.375 465.612 407.222 468.052 408.337 468.946C411.284 471.275 413.57 478.838 410.942 479.688Z" fill="#774442"/>
<path d="M410.942 479.688C408.314 480.56 331.178 479.92 328.33 478.076C327.987 477.877 327.899 470.9 327.932 461.351V461.163C327.849 454.421 327.407 447.688 326.607 440.993L326.475 439.889H375.89L376.011 440.993L377.369 454.152C377.369 454.152 387.769 458.568 396.822 462.907C402.408 465.579 407.255 468.019 408.37 468.913C411.284 471.275 413.569 478.838 410.942 479.688Z" fill="#F9F9F9"/>
<path d="M411.262 479.986C408.557 480.858 331.321 479.986 328.396 478.131C327.292 477.425 326.254 465.502 327.446 452.342L377.237 452.938C377.237 452.938 405.709 466.484 408.701 468.902C411.693 471.32 414 479.136 411.262 479.986Z" fill="#88786C"/>
<path d="M410.191 476.928C397.241 476.464 345 475.824 332.172 476.376C332.061 476.376 332.061 476.453 332.172 476.453C344.989 477.193 397.241 477.392 410.18 477.138C410.456 477.083 410.456 476.928 410.191 476.928Z" fill="#263238"/>
<path d="M403.755 466.065C402.324 466.018 400.899 466.267 399.569 466.797C398.239 467.327 397.033 468.127 396.027 469.145C394.185 470.972 393.12 473.44 393.057 476.034C393.057 476.111 393.201 476.111 393.212 476.034C393.678 473.474 394.962 471.135 396.871 469.367C398.78 467.599 401.211 466.499 403.799 466.23C403.816 466.221 403.83 466.206 403.838 466.188C403.845 466.169 403.847 466.149 403.842 466.13C403.837 466.111 403.825 466.094 403.81 466.082C403.794 466.071 403.775 466.064 403.755 466.065Z" fill="#263238"/>
<path d="M381.288 454.274C376.111 454.152 370.083 455.919 366.815 460.114C366.694 460.28 366.925 460.456 367.08 460.379C371.636 458.05 376.429 456.217 381.377 454.914C381.447 454.888 381.507 454.838 381.545 454.774C381.584 454.709 381.599 454.633 381.589 454.559C381.579 454.484 381.543 454.415 381.489 454.364C381.434 454.312 381.363 454.28 381.288 454.274Z" fill="#263238"/>
<path d="M385.296 455.886C380.118 455.753 374.09 457.52 370.823 461.726C370.69 461.88 370.933 462.057 371.088 461.98C375.642 459.657 380.431 457.825 385.373 456.515C385.448 456.495 385.513 456.449 385.556 456.385C385.599 456.321 385.617 456.243 385.608 456.167C385.599 456.09 385.562 456.02 385.504 455.968C385.447 455.916 385.373 455.887 385.296 455.886Z" fill="#263238"/>
<path d="M389.259 457.487C384.071 457.354 378.043 459.12 374.786 463.327C374.653 463.481 374.885 463.669 375.04 463.592C379.613 461.257 384.425 459.425 389.392 458.127C389.465 458.099 389.526 458.045 389.564 457.976C389.602 457.908 389.614 457.827 389.598 457.75C389.582 457.673 389.539 457.604 389.477 457.556C389.415 457.508 389.338 457.483 389.259 457.487Z" fill="#263238"/>
<path d="M393.245 459.087C388.056 458.955 382.028 460.721 378.771 464.928C378.639 465.093 378.871 465.27 379.025 465.192C383.581 462.862 388.374 461.03 393.322 459.728C393.392 459.702 393.452 459.653 393.491 459.59C393.53 459.526 393.546 459.451 393.537 459.377C393.528 459.303 393.495 459.234 393.442 459.181C393.388 459.129 393.319 459.096 393.245 459.087Z" fill="#263238"/>
<path d="M335.616 464.066C329.809 464.066 329.721 473.064 335.55 473.108C341.379 473.152 341.423 464.122 335.616 464.066Z" fill="#263238"/>
<path d="M387.04 440.496C384.435 438.288 381.112 440.386 379.467 442.627C376.71 446.538 375.038 451.108 374.62 455.875C374.618 455.895 374.621 455.916 374.628 455.935C374.635 455.954 374.647 455.971 374.662 455.985C374.677 455.999 374.695 456.009 374.715 456.015C374.734 456.021 374.755 456.022 374.775 456.018C374.794 456.116 374.835 456.209 374.897 456.288C374.958 456.366 375.037 456.429 375.128 456.471C375.219 456.514 375.318 456.533 375.418 456.53C375.518 456.526 375.615 456.498 375.702 456.449C379.423 453.943 383.706 451.713 386.543 448.136C388.199 446.016 389.502 442.594 387.04 440.496ZM380.56 451.448C378.76 452.728 376.917 453.91 375.161 455.257C376.122 452.684 376.95 450.079 378.164 447.606C378.73 446.405 379.375 445.243 380.096 444.128C381.2 442.428 386.378 438.156 386.831 443.797C387.084 446.921 382.702 449.935 380.56 451.459V451.448Z" fill="#263238"/>
<path d="M361.726 457.619C366.23 458.359 370.9 457.133 375.338 456.515C375.435 456.491 375.525 456.445 375.601 456.38C375.678 456.315 375.737 456.233 375.776 456.14C375.815 456.048 375.831 455.948 375.824 455.848C375.817 455.748 375.787 455.652 375.735 455.566C375.751 455.553 375.764 455.537 375.773 455.519C375.782 455.501 375.787 455.481 375.787 455.461C375.787 455.44 375.782 455.42 375.773 455.402C375.764 455.384 375.751 455.368 375.735 455.356C372.219 452.13 367.917 449.883 363.26 448.842C360.544 448.29 356.636 448.975 356.228 452.364C355.83 455.532 359.098 457.188 361.726 457.619ZM358.623 454.638C355.168 450.156 361.847 449.869 363.834 450.355C365.116 450.698 366.374 451.126 367.599 451.635C370.16 452.651 372.523 454.009 374.963 455.268C372.755 455.455 370.602 455.819 368.405 456.084C365.788 456.394 360.533 457.111 358.623 454.638Z" fill="#263238"/>
<path d="M379.897 436.08L323.914 435.837C323.914 435.837 304.516 361.185 299.968 355.963C291.544 346.292 224.587 350.973 206.404 330.913C188.74 311.483 206.404 276.309 206.404 276.309H255.985C256.577 282.649 257.521 288.952 258.811 295.187C258.811 295.187 321.198 305.123 339.723 324.322C353.865 338.928 379.897 436.08 379.897 436.08Z" fill="#37474F"/>
<path d="M376.044 427.248C372.589 426.972 369.156 426.619 365.7 426.475C362.244 426.332 358.767 426.265 355.3 426.21C348.411 426.1 341.526 426.1 334.644 426.21C330.758 426.288 326.916 426.453 322.975 426.475C322.876 426.475 322.898 426.652 322.975 426.652C329.964 426.652 336.974 426.928 343.951 427.104C350.928 427.281 357.63 427.502 364.475 427.612C368.328 427.668 372.203 427.557 376.011 427.524C376.21 427.568 376.21 427.248 376.044 427.248Z" fill="#263238"/>
<path d="M316.141 379.986C313.933 372.802 311.53 365.678 308.932 358.612C307.828 355.598 306.923 352.154 304.759 349.692C302.595 347.23 299.449 346.49 296.457 345.839C282.105 342.67 267.444 341.423 252.993 338.917C245.832 337.742 238.764 336.064 231.84 333.894C228.444 332.862 225.16 331.494 222.037 329.809C219.215 328.211 216.693 326.134 214.585 323.671C210.636 318.866 208.085 313.069 207.21 306.912C206.269 299.626 206.928 292.223 209.142 285.218C209.65 283.507 210.246 281.807 210.875 280.14C210.875 280.041 210.754 279.996 210.709 280.14C205.874 292.714 203.887 307.232 210.709 319.486C212.172 322.133 214.034 324.539 216.229 326.618C218.647 328.855 221.414 330.683 224.421 332.028C230.88 335.042 237.989 336.83 244.933 338.332C259.285 341.423 274.024 342.648 288.508 345.221C292.039 345.779 295.54 346.516 298.996 347.429C300.634 347.819 302.162 348.574 303.468 349.637C304.684 350.809 305.624 352.239 306.217 353.821C307.63 357.188 308.756 360.699 309.959 364.154C311.162 367.61 312.432 371.308 313.602 374.896C318.283 389.285 322.405 403.836 325.967 418.548L327.259 423.925C327.259 424.102 327.557 424.024 327.524 423.848C324.479 409.043 320.68 394.403 316.141 379.986Z" fill="#263238"/>
<path d="M326.674 492.715C323.958 493.278 247.451 483.497 244.834 481.333C244.525 481.09 245.342 474.168 246.424 464.674C247.053 459.154 248.312 452.231 249.736 445.188C253.677 426.475 259.263 406.548 259.263 406.548L309.418 414.916L299.272 450.553L295.795 462.697C295.795 462.697 306.106 468.935 314.563 474.334C319.785 477.646 324.322 480.648 325.316 481.664C328.021 484.402 329.389 492.174 326.674 492.715Z" fill="#774442"/>
<path d="M326.674 492.715C323.958 493.278 247.451 483.497 244.834 481.333C244.525 481.09 245.342 474.168 246.424 464.674C247.053 459.154 248.312 452.232 249.736 445.188L299.272 450.542L295.795 462.686C295.795 462.686 306.106 468.924 314.563 474.323C319.785 477.635 324.322 480.637 325.316 481.653C328.021 484.402 329.389 492.174 326.674 492.715Z" fill="#F9F9F9"/>
<path d="M326.994 492.98C324.201 493.543 247.572 483.861 244.878 481.642C243.863 480.803 245 468.935 247.693 456.007L295.993 462.223C295.993 462.223 323.019 478.937 325.68 481.675C328.341 484.413 329.776 492.384 326.994 492.98Z" fill="#88786C"/>
<path d="M326.276 489.779C313.47 487.836 261.637 481.234 248.831 480.284C248.731 480.284 248.72 480.35 248.831 480.372C261.471 482.58 313.359 488.752 326.254 489.988C326.519 490.01 326.552 489.823 326.276 489.779Z" fill="#263238"/>
<path d="M321.132 478.297C319.705 478.083 318.249 478.168 316.858 478.548C315.466 478.929 314.17 479.595 313.05 480.505C311.018 482.111 309.679 484.434 309.308 486.997C309.308 487.074 309.451 487.096 309.473 486.997C310.229 484.508 311.771 482.331 313.87 480.794C315.968 479.257 318.509 478.443 321.109 478.474C321.133 478.477 321.157 478.47 321.175 478.456C321.194 478.441 321.206 478.42 321.209 478.396C321.212 478.373 321.205 478.349 321.191 478.331C321.176 478.312 321.155 478.3 321.132 478.297Z" fill="#263238"/>
<path d="M300.167 464.011C295.033 463.294 288.84 464.353 285.119 468.151C284.964 468.306 285.185 468.505 285.34 468.449C290.134 466.662 295.104 465.389 300.167 464.652C300.251 464.652 300.333 464.618 300.393 464.558C300.453 464.498 300.487 464.416 300.487 464.331C300.487 464.246 300.453 464.165 300.393 464.105C300.333 464.045 300.251 464.011 300.167 464.011Z" fill="#263238"/>
<path d="M303.931 466.065C298.809 465.336 292.615 466.407 288.884 470.205C288.74 470.348 288.95 470.558 289.116 470.492C293.908 468.703 298.879 467.433 303.942 466.705C304.027 466.704 304.108 466.668 304.167 466.607C304.226 466.546 304.258 466.464 304.257 466.379C304.255 466.294 304.22 466.214 304.159 466.155C304.098 466.096 304.016 466.063 303.931 466.065Z" fill="#263238"/>
<path d="M307.707 468.096C302.573 467.378 296.391 468.438 292.659 472.236C292.516 472.391 292.726 472.589 292.891 472.534C297.683 470.744 302.654 469.474 307.718 468.747C307.794 468.732 307.862 468.691 307.911 468.63C307.959 468.57 307.985 468.494 307.984 468.417C307.982 468.34 307.954 468.265 307.903 468.206C307.853 468.148 307.783 468.109 307.707 468.096Z" fill="#263238"/>
<path d="M311.483 470.16C306.349 469.432 300.167 470.503 296.435 474.3C296.292 474.444 296.501 474.654 296.667 474.587C301.459 472.797 306.43 471.527 311.494 470.801C311.579 470.799 311.659 470.764 311.718 470.703C311.777 470.642 311.81 470.56 311.808 470.475C311.807 470.39 311.772 470.309 311.711 470.25C311.65 470.191 311.568 470.159 311.483 470.16Z" fill="#263238"/>
<path d="M253.644 468.504C247.881 467.787 246.766 476.751 252.54 477.469C258.314 478.187 259.44 469.2 253.644 468.504Z" fill="#263238"/>
<path d="M307.453 450.995C305.124 448.511 301.58 450.2 299.725 452.243C296.539 455.793 294.342 460.118 293.355 464.784C293.349 464.805 293.349 464.827 293.354 464.848C293.359 464.869 293.369 464.888 293.383 464.905C293.397 464.921 293.415 464.934 293.435 464.942C293.455 464.949 293.477 464.952 293.498 464.95C293.507 465.049 293.539 465.145 293.591 465.23C293.643 465.315 293.714 465.386 293.799 465.439C293.884 465.491 293.979 465.523 294.079 465.532C294.178 465.541 294.278 465.527 294.371 465.491C298.356 463.415 302.86 461.693 306.095 458.469C308.016 456.592 309.661 453.347 307.453 450.995ZM299.725 461.13C297.782 462.234 295.817 463.15 293.918 464.287C295.165 461.847 296.292 459.363 297.782 457.034C298.477 455.905 299.251 454.828 300.1 453.81C301.425 452.254 307.011 448.588 306.824 454.252C306.757 457.365 302.065 459.849 299.769 461.13H299.725Z" fill="#263238"/>
<path d="M280.339 465.093C284.755 466.341 289.513 465.656 293.995 465.524C294.094 465.513 294.189 465.479 294.272 465.425C294.356 465.371 294.425 465.298 294.474 465.212C294.524 465.125 294.552 465.029 294.557 464.929C294.562 464.83 294.544 464.731 294.503 464.64C294.519 464.627 294.532 464.61 294.541 464.591C294.55 464.572 294.555 464.551 294.555 464.53C294.555 464.509 294.55 464.488 294.541 464.469C294.532 464.45 294.519 464.433 294.503 464.42C291.384 460.814 287.371 458.092 282.867 456.526C280.228 455.665 276.309 455.908 275.481 459.209C274.653 462.51 277.777 464.353 280.339 465.093ZM277.612 461.781C274.686 456.935 281.354 457.365 283.275 458.127C284.508 458.613 285.707 459.181 286.863 459.827C289.237 461.181 291.54 462.655 293.763 464.243C291.555 464.166 289.347 464.243 287.139 464.243C284.523 464.342 279.224 464.442 277.612 461.77V461.781Z" fill="#263238"/>
<path d="M311.77 448.423L250.718 440.993C250.718 440.993 271.993 356.956 271.032 355.698C267.665 351.348 216.152 353.103 198.588 335.638C179.985 317.146 197.837 276.265 197.837 276.265L244.205 276.442C244.205 276.442 244.514 294.768 246.601 296.49C247.981 297.594 312.035 308.446 322.456 322.048C338.343 342.825 311.77 448.423 311.77 448.423Z" fill="#37474F"/>
<path d="M326.784 329.544C325.914 327.222 324.669 325.058 323.097 323.141C321.33 321.088 319.256 319.323 316.947 317.908C312.071 314.957 306.925 312.477 301.58 310.5C296.127 308.338 290.562 306.469 284.909 304.903C279.18 303.291 273.372 301.933 267.554 300.685C261.736 299.438 255.918 298.477 250.089 297.373L247.34 296.866C250.343 295.673 253.324 294.415 256.327 293.178C256.356 293.16 256.379 293.133 256.392 293.101C256.404 293.069 256.405 293.033 256.395 293C256.385 292.967 256.364 292.938 256.336 292.918C256.307 292.899 256.273 292.889 256.238 292.891C250.17 294.047 244.38 296.356 239.182 299.692C239.104 299.692 239.182 299.879 239.248 299.846C241.853 298.996 244.415 298.025 246.976 297.02C252.264 298.124 257.519 299.305 262.785 300.476C268.482 301.745 274.156 303.092 279.765 304.682C290.893 307.839 301.955 311.549 312.244 316.892C316.903 319.31 321.308 322.335 323.925 327.016C326.353 331.355 327.082 336.433 327.237 341.368C327.24 346.901 326.927 352.43 326.298 357.928C325.739 364.154 325.084 370.37 324.333 376.574C323.571 382.779 319.211 415.303 318.714 416.694C318.648 416.881 318.968 417.014 319.056 416.826C319.696 415.501 327.237 368.515 327.8 362.2C328.319 356.382 328.904 350.531 328.97 344.691C329.213 339.549 328.471 334.408 326.784 329.544Z" fill="#263238"/>
<path d="M277.855 348.941C276.234 348.508 274.579 348.213 272.909 348.058L267.389 347.186L256.404 345.442C249.372 344.338 242.317 343.3 235.307 342.063C223.35 339.944 210.356 336.091 203.478 325.216C201.888 322.711 200.798 319.922 200.266 317.003C199.726 313.422 199.479 309.804 199.526 306.183C199.413 298.89 199.882 291.598 200.928 284.379C201.182 282.602 201.502 280.846 201.844 279.091C201.844 278.981 201.701 278.937 201.679 279.091C200.296 286.132 199.429 293.264 199.084 300.431C198.93 304.008 198.93 307.585 199.084 311.162C199.083 314.453 199.582 317.725 200.564 320.867C204.494 332.205 216.02 338.332 226.96 341.136C233.706 342.869 240.65 343.752 247.528 344.823L269.199 348.224L274.609 349.074C276.066 349.306 278.705 349.25 279.025 351.127C279.095 351.892 279.02 352.664 278.804 353.401C278.594 354.351 278.396 355.289 278.186 356.239L276.994 361.759C275.433 368.935 273.899 376.114 272.39 383.298C269.31 397.76 266.417 412.267 263.425 426.751L262.321 432.139C262.321 432.227 262.443 432.271 262.465 432.139C265.633 417.709 268.868 403.28 272.004 388.84C273.593 381.568 275.146 374.289 276.662 367.003C277.424 363.404 278.175 359.816 278.87 356.217C279.328 354.674 279.613 353.086 279.721 351.48C279.726 350.912 279.547 350.358 279.21 349.9C278.874 349.442 278.398 349.106 277.855 348.941Z" fill="#263238"/>
<path d="M310.467 440.916C306.901 440.165 303.346 439.337 299.747 438.708C296.148 438.078 292.527 437.526 288.906 436.996C281.722 435.929 274.513 434.983 267.278 434.159C263.205 433.684 259.109 433.309 255.035 432.801C254.925 432.801 254.925 432.956 255.035 432.967C262.355 433.894 269.641 435.175 276.927 436.334C284.214 437.493 291.191 438.63 298.345 439.646C302.364 440.242 306.393 440.662 310.423 441.169C310.599 441.247 310.633 440.96 310.467 440.916Z" fill="#263238"/>
<path d="M258.987 286.455C255.773 287.091 252.526 287.552 249.261 287.835C244.128 288.343 236.963 288.806 227.711 288.795H226.96H223.372C214.816 288.652 204.693 288.133 192.979 286.952C192.979 286.952 206.536 236.996 220.381 220.712C220.69 220.336 221.01 219.983 221.33 219.608L221.518 219.409C222.591 218.266 223.839 217.3 225.216 216.55C225.459 216.417 225.702 216.296 225.956 216.185C231.288 213.734 236.918 215.766 240.981 219.243C242.273 220.347 256.868 239.336 258.159 246.578C259.263 252.971 254.958 259.826 254.958 259.826L258.987 286.455Z" fill="#88786C"/>
<path d="M227.711 288.795H226.96H223.372C214.816 288.652 204.693 288.133 192.979 286.952C192.979 286.952 206.536 236.996 220.381 220.712C220.69 220.336 221.01 219.983 221.33 219.608L221.518 219.409C222.591 218.266 223.839 217.301 225.216 216.55C225.459 216.417 225.702 216.296 225.956 216.185L227.711 288.795Z" fill="#263238"/>
<path d="M216.472 225.315C204.24 243.984 189.822 276 198.72 281.52C213.282 290.562 252.474 291.71 261.416 291.611C265.28 291.611 269.619 265.722 266.649 262.84C263.679 259.959 222.82 263.05 222.202 260.632C221.86 259.241 225.095 246.402 227.071 230.824C229.312 212.752 219.939 220.038 216.472 225.315Z" fill="#774442"/>
<path d="M259.705 261.648C259.705 261.648 271.33 260.025 278.992 259.319C283.264 258.932 290.65 258.91 293.918 260.047C298.809 261.769 318.206 272.059 315.777 276.817C313.569 281.112 298.113 270.193 298.113 270.193C298.113 270.193 314.739 279.875 311.173 284.545C307.608 289.215 291.732 274.532 291.732 274.532C291.732 274.532 308.601 284.854 304.163 289.116C300.851 292.328 285.671 279.82 285.671 279.82C285.671 279.82 300.1 288.795 296.799 292.251C293.145 296.082 278.451 285.406 278.451 285.406C268.515 292.781 260.787 292.251 255.377 291.224C254.041 290.937 259.705 261.648 259.705 261.648Z" fill="#774442"/>
<path d="M292.56 266.428C294.558 267.532 296.579 268.559 298.477 269.74C300.376 270.922 302.22 272.291 303.997 273.693C306.347 275.49 308.481 277.554 310.356 279.842C306.724 276.033 300.023 271.485 298.124 270.248C296.225 269.012 294.415 267.676 292.516 266.439C292.461 266.461 292.56 266.406 292.56 266.428Z" fill="#263238"/>
<path d="M287.956 273.185C290.451 274.653 292.969 276.022 295.397 277.601C297.826 279.18 301.116 281.498 303.412 283.231C303.589 283.364 303.468 283.673 303.291 283.551C300.928 281.906 297.44 279.698 295.055 278.087C292.67 276.475 290.352 274.775 287.923 273.24C287.879 273.218 287.923 273.163 287.956 273.185Z" fill="#263238"/>
<path d="M282.966 278.274C286.838 280.44 290.478 282.996 293.83 285.903C293.995 286.035 293.83 286.091 293.642 285.903C290.076 283.297 287.305 281.222 282.9 278.352C282.834 278.363 282.889 278.208 282.966 278.274Z" fill="#263238"/>
<path d="M259.628 261.493C264.927 260.754 278.926 258.656 284.269 258.358C288.742 257.948 293.243 258.753 297.296 260.688C303.631 263.724 309.409 267.807 314.386 272.765C315.358 273.869 316.804 275.558 315.888 277.016C314.784 278.793 309.661 277.877 303.887 273.891C303.677 273.748 303.777 273.626 303.986 273.748C312.013 278.672 314.817 277.612 315.435 276.508C315.843 275.79 315.225 274.73 314.673 273.925C313.8 272.773 312.783 271.738 311.648 270.844C307.853 267.715 303.751 264.978 299.405 262.675C294.712 260.053 289.372 258.816 284.004 259.109C278.484 259.374 265.115 261.505 259.628 261.692C259.517 261.703 259.506 261.505 259.628 261.493Z" fill="#263238"/>
<path d="M311.725 282.061C311.073 280.673 310.158 279.425 309.032 278.385C307.828 277.01 306.489 275.76 305.035 274.653C304.969 274.653 304.881 274.653 304.947 274.752C306.21 275.887 307.405 277.096 308.524 278.374C309.119 279.076 309.672 279.813 310.18 280.582C310.775 281.294 311.12 282.182 311.162 283.11C311.008 284.887 308.811 285.13 307.453 284.843C306.572 284.633 305.711 284.345 304.881 283.982C303.731 283.452 302.624 282.836 301.569 282.138C301.48 282.072 301.282 282.138 301.37 282.193C303.578 283.783 307.718 287.128 310.522 285.329C311.072 285.01 311.494 284.509 311.713 283.912C311.933 283.315 311.937 282.66 311.725 282.061Z" fill="#263238"/>
<path d="M199.714 245.695L225.514 245.419L228.131 226.243C229.323 217.411 228.649 211.835 218.283 221.562C211.096 228.307 199.714 245.695 199.714 245.695Z" fill="#88786C"/>
<path d="M230.173 215.125C225.117 216.572 225.625 222.257 227.512 226.254C229.4 230.25 233.11 234.876 235.814 234.743C238.519 234.611 239.027 227.81 239.027 227.81C239.027 227.81 242.88 232.028 244.9 230.559C246.921 229.091 242.869 221.33 239.988 218.923C235.814 215.423 232.845 214.353 230.173 215.125Z" fill="white"/>
<path d="M227.424 218.338C227.645 219.552 233.043 227.612 238.541 227.601C240.341 227.601 240.749 217.797 240.749 217.797L240.937 217.079L243.653 207.055L232.105 198.897L230.427 197.793C230.427 197.793 229.864 200.586 229.202 204.074L229.102 204.571C229.102 204.77 229.025 204.947 228.992 205.134C228.881 205.653 228.782 206.238 228.683 206.713C228.583 207.188 228.539 207.508 228.473 207.938C228.407 208.369 228.34 208.777 228.263 209.208C227.774 212.228 227.494 215.279 227.424 218.338Z" fill="#774442"/>
<path d="M229.168 204.085C230.063 206.974 231.576 209.633 233.603 211.877C235.63 214.121 238.121 215.896 240.904 217.079L243.62 207.055L232.072 198.897L230.394 197.793C230.394 197.793 229.831 200.597 229.168 204.085Z" fill="#263238"/>
<path d="M258.137 191.489C258.976 209.694 248.201 212.266 244.238 212.465C240.672 212.619 228.517 212.719 225.79 194.69C223.063 176.662 231.31 170.513 239.402 169.718C247.495 168.923 257.287 173.328 258.137 191.489Z" fill="#774442"/>
<path d="M255.421 188.464C255.005 188.409 254.593 188.332 254.185 188.232C253.736 188.211 253.305 188.045 252.96 187.757C252.874 187.643 252.827 187.503 252.827 187.36C252.827 187.216 252.874 187.077 252.96 186.962C253.162 186.762 253.413 186.619 253.688 186.547C253.964 186.475 254.253 186.478 254.527 186.554C255.111 186.626 255.649 186.909 256.04 187.349C256.122 187.456 256.171 187.585 256.181 187.72C256.191 187.855 256.161 187.99 256.096 188.109C256.03 188.227 255.931 188.324 255.811 188.387C255.692 188.45 255.556 188.477 255.421 188.464Z" fill="#263238"/>
<path d="M243.752 188.784C244.166 188.711 244.575 188.615 244.978 188.497C245.423 188.452 245.842 188.262 246.17 187.956C246.259 187.845 246.307 187.706 246.307 187.564C246.307 187.422 246.259 187.284 246.17 187.172C245.959 186.979 245.701 186.846 245.421 186.786C245.142 186.726 244.852 186.741 244.58 186.83C244.002 186.934 243.48 187.244 243.112 187.702C243.038 187.811 242.997 187.939 242.993 188.071C242.989 188.202 243.023 188.332 243.09 188.446C243.157 188.559 243.255 188.651 243.372 188.711C243.489 188.771 243.621 188.796 243.752 188.784Z" fill="#263238"/>
<path d="M246.037 193.134C246.037 193.078 245.938 193.189 245.949 193.244C246.048 194.481 245.949 195.916 244.845 196.379C244.845 196.379 244.845 196.457 244.845 196.446C246.192 196.192 246.324 194.304 246.037 193.134Z" fill="#263238"/>
<path d="M244.867 191.886C242.869 191.831 242.902 195.839 244.757 195.894C246.612 195.949 246.545 191.93 244.867 191.886Z" fill="#263238"/>
<path d="M244.083 192.096C243.73 192.328 243.399 192.725 242.979 192.769C242.56 192.814 242.118 192.405 241.798 192.008H241.732C241.732 192.78 242.03 193.564 242.836 193.675C243.642 193.785 244.117 193.09 244.304 192.317C244.348 192.228 244.216 192.019 244.083 192.096Z" fill="#263238"/>
<path d="M252.816 192.814C252.816 192.758 252.915 192.814 252.915 192.924C252.915 194.161 253.037 195.585 254.163 196.004V196.07C252.816 195.883 252.584 193.984 252.816 192.814Z" fill="#263238"/>
<path d="M253.92 191.511C255.918 191.356 256.073 195.364 254.229 195.507C252.385 195.651 252.253 191.643 253.92 191.511Z" fill="#263238"/>
<path d="M254.77 191.743C255.09 191.941 255.421 192.317 255.797 192.328C256.172 192.339 256.548 191.886 256.812 191.467C256.868 192.239 256.647 193.045 255.918 193.222C255.19 193.399 254.737 192.747 254.527 191.986C254.538 191.886 254.638 191.665 254.77 191.743Z" fill="#263238"/>
<path d="M250.961 198.72C250.961 198.72 251.248 200.564 251.27 201.436C251.27 201.524 248.102 202.242 246.667 200.122C246.656 200.105 246.652 200.085 246.654 200.066C246.657 200.046 246.666 200.027 246.68 200.013C246.694 199.999 246.712 199.991 246.732 199.988C246.751 199.986 246.771 199.99 246.788 200.001C247.92 200.738 249.26 201.091 250.608 201.005C250.663 200.762 250.001 197.859 250.133 197.848C250.815 197.89 251.488 198.028 252.132 198.256C251.635 194.392 250.52 190.628 250.078 186.775C250.079 186.749 250.088 186.725 250.103 186.704C250.119 186.684 250.14 186.669 250.165 186.662C250.189 186.655 250.215 186.655 250.239 186.663C250.263 186.672 250.284 186.688 250.299 186.708C251.627 190.698 252.548 194.811 253.048 198.985C253.125 199.493 251.315 198.875 250.961 198.72Z" fill="#263238"/>
<path d="M251.922 193.575C251.844 190.716 253.313 188.353 255.234 188.298C257.155 188.243 258.733 190.506 258.811 193.377C258.888 196.247 257.42 198.599 255.499 198.654C253.578 198.709 252.01 196.424 251.922 193.575ZM252.617 193.575C252.695 196.048 253.975 197.991 255.477 197.991C256.978 197.991 258.159 195.905 258.082 193.432C258.005 190.959 256.735 189.016 255.223 189.016C253.71 189.016 252.551 191.08 252.617 193.553V193.575Z" fill="#37474F"/>
<path d="M238.906 193.94C238.945 192.997 239.258 192.086 239.808 191.319C240.357 190.551 241.119 189.961 241.999 189.621C242.879 189.28 243.839 189.204 244.762 189.401C245.685 189.599 246.53 190.062 247.194 190.733C247.857 191.403 248.311 192.254 248.498 193.179C248.685 194.103 248.599 195.063 248.248 195.939C247.898 196.816 247.3 197.571 246.527 198.112C245.753 198.653 244.839 198.956 243.896 198.985C242.565 198.976 241.293 198.44 240.357 197.494C239.422 196.548 238.9 195.27 238.906 193.94ZM239.601 193.94C239.689 194.741 240.009 195.499 240.521 196.122C241.033 196.745 241.715 197.205 242.485 197.446C243.254 197.688 244.077 197.7 244.853 197.481C245.629 197.263 246.324 196.823 246.854 196.215C247.385 195.608 247.726 194.859 247.838 194.061C247.95 193.263 247.827 192.449 247.484 191.719C247.141 190.99 246.593 190.376 245.906 189.953C245.22 189.529 244.426 189.315 243.62 189.336C243.052 189.371 242.497 189.518 241.986 189.768C241.475 190.018 241.018 190.366 240.642 190.792C240.265 191.219 239.977 191.715 239.793 192.254C239.608 192.792 239.532 193.361 239.568 193.929L239.601 193.94Z" fill="#37474F"/>
<path d="M248.334 193.2C250.906 192.217 252.098 193.023 252.109 193.034L252.518 192.482C252.518 192.482 251.05 191.378 248.102 192.549L248.334 193.2Z" fill="#37474F"/>
<path d="M239.248 193.487L239.347 192.792C238.895 192.725 228.307 191.08 227.126 191.047C225.945 191.014 223.129 192.67 222.82 192.869L223.174 193.454C224.366 192.681 225.674 192.104 227.049 191.743H227.104C227.987 191.765 235.428 192.891 239.248 193.487Z" fill="#37474F"/>
<path d="M227.17 195.276C231.586 195.276 233.408 181.575 233.606 179.886C233.529 180.99 233.187 186.609 233.606 186.852C234.086 186.856 234.564 186.781 235.02 186.631C235.045 185.953 235.122 185.277 235.251 184.611C235.251 184.302 235.351 185.295 235.483 186.521L236.311 186.322C236.312 184.875 236.505 183.435 236.885 182.039C237.029 181.509 237.095 183.915 237.537 186.035C241.389 185.043 245.34 184.483 249.316 184.368C250.293 184.355 251.269 184.392 252.242 184.478C252.308 182.8 252.176 181.023 252.242 181.409C252.541 182.429 252.741 183.475 252.838 184.534L254.097 184.666C254.295 182.315 253.302 178.517 253.655 179.146C254.716 180.958 255.424 182.955 255.742 185.03C257.342 185.395 257.773 185.726 257.828 185.306C257.503 180.645 255.526 176.253 252.253 172.92C246.843 167.466 235.748 165.777 229.19 173.67C229.19 173.67 223.902 176.872 222.909 182.281C221.915 187.691 224.587 195.287 227.17 195.276Z" fill="#263238"/>
<path d="M228.749 194.569C228.749 194.569 225.006 188.729 222.368 190.043C219.729 191.356 222.368 199.714 225.371 200.961C225.742 201.148 226.148 201.258 226.563 201.284C226.978 201.31 227.395 201.252 227.787 201.112C228.179 200.973 228.538 200.756 228.844 200.474C229.15 200.191 229.395 199.85 229.566 199.471L228.749 194.569Z" fill="#774442"/>
<path d="M223.196 192.416C223.196 192.416 223.129 192.482 223.196 192.493C225.282 193.443 226.32 195.463 227.027 197.528C226.91 197.311 226.749 197.122 226.553 196.974C226.357 196.826 226.131 196.721 225.891 196.668C225.651 196.614 225.403 196.613 225.163 196.664C224.922 196.716 224.696 196.818 224.498 196.965C224.443 196.965 224.498 197.086 224.498 197.075C224.876 196.975 225.276 196.993 225.643 197.127C226.01 197.262 226.328 197.505 226.552 197.826C226.921 198.365 227.232 198.943 227.479 199.548C227.579 199.747 227.921 199.658 227.855 199.438V199.382C228.042 196.678 226.088 192.803 223.196 192.416Z" fill="#263238"/>
<path d="M264.761 284.567H200.464V287.448H264.761V284.567Z" fill="#455A64"/>
<path d="M264.761 284.567H232.403V287.448H264.761V284.567Z" fill="#263238"/>
<path d="M233.154 287.448H170.491L161.637 244.9H224.3L233.154 287.448Z" fill="#37474F"/>
<path d="M202.253 267.168C202.323 267.696 202.278 268.233 202.121 268.742C201.964 269.251 201.699 269.72 201.343 270.117C200.987 270.513 200.55 270.828 200.061 271.039C199.572 271.251 199.043 271.354 198.51 271.341C197.368 271.315 196.274 270.879 195.426 270.113C194.579 269.347 194.036 268.302 193.896 267.168C193.825 266.64 193.87 266.103 194.027 265.594C194.184 265.085 194.45 264.616 194.806 264.219C195.161 263.823 195.599 263.508 196.088 263.296C196.577 263.085 197.106 262.982 197.638 262.995C198.781 263.018 199.877 263.453 200.724 264.22C201.572 264.987 202.115 266.033 202.253 267.168Z" fill="white"/>
<path d="M355.311 287.459H303.092V283.397L355.311 281.708V287.459Z" fill="#37474F"/>
<path d="M408.844 269.674H317.389L331.929 201.579H423.395L408.844 269.674Z" fill="#455A64"/>
<path d="M412.234 269.674H320.767L335.318 201.579H426.784L412.234 269.674Z" fill="#37474F"/>
<path d="M362.896 245.254H360.754L364.011 229.974H366.164L362.896 245.254Z" fill="#263238"/>
<path d="M367.135 245.254H364.993L368.25 229.974H370.392L367.135 245.254Z" fill="#263238"/>
<path d="M371.364 245.254H369.222L372.479 229.974H374.62L371.364 245.254Z" fill="#263238"/>
<path d="M375.603 245.254H373.45L376.707 229.974H378.86L375.603 245.254Z" fill="#263238"/>
<path d="M379.831 245.254H377.689L380.946 229.974H383.088L379.831 245.254Z" fill="#263238"/>
<path d="M384.059 245.254H381.918L385.175 229.974H387.316L384.059 245.254Z" fill="#263238"/>
<path d="M388.299 245.254H386.146L389.414 229.974H391.556L388.299 245.254Z" fill="#263238"/>
<path d="M386.367 287.46H341.379V283.96L386.367 282.503V287.46Z" fill="#455A64"/>
<path d="M398.599 287.448H374.444L359.893 249.294H384.048L398.599 287.448Z" fill="#455A64"/>
<path d="M402.574 287.448H378.418L363.867 249.294H388.023L402.574 287.448Z" fill="#263238"/>
<path d="M135.648 269.674H163.878L149.327 201.579H121.098L135.648 269.674Z" fill="#455A64"/>
<path d="M132.259 269.674H160.489L145.949 201.579H117.72L132.259 269.674Z" fill="#37474F"/>
<path d="M136.112 245.254H136.51L133.253 229.974H132.855L136.112 245.254Z" fill="#263238"/>
<path d="M136.962 245.254H137.36L134.103 229.974H133.705L136.962 245.254Z" fill="#263238"/>
<path d="M137.812 245.254H138.221L134.964 229.974H134.567L137.812 245.254Z" fill="#263238"/>
<path d="M138.673 245.254H139.071L135.814 229.974H135.417L138.673 245.254Z" fill="#263238"/>
<path d="M139.524 245.254H139.932L136.675 229.974H136.267L139.524 245.254Z" fill="#263238"/>
<path d="M140.385 245.254H140.782L137.525 229.974H137.128L140.385 245.254Z" fill="#263238"/>
<path d="M141.235 245.254H141.632L138.375 229.974H137.978L141.235 245.254Z" fill="#263238"/>
<path d="M142.085 245.254H142.493L139.236 229.974H138.828L142.085 245.254Z" fill="#263238"/>
<path d="M131.718 287.46H165.49V283.96L131.718 282.503V287.46Z" fill="#455A64"/>
<path d="M119.486 287.448H132.425L146.976 249.294H134.037L119.486 287.448Z" fill="#455A64"/>
<path d="M119.486 287.448H128.45L142.99 249.294H134.037L119.486 287.448Z" fill="#263238"/>
<path d="M298.08 287.493H263.635C260.688 287.493 264.949 279.113 275.68 275.912C286.411 272.71 301.392 284.346 298.08 287.493Z" fill="#37474F"/>
<path d="M284.523 287.493C284.432 286.522 284.515 285.542 284.766 284.6C285.004 283.654 285.376 282.747 285.87 281.906C286.381 281.067 287.03 280.321 287.791 279.698C288.544 279.07 289.426 278.614 290.374 278.363C289.671 278.972 289.008 279.624 288.387 280.317C287.8 281.004 287.275 281.743 286.819 282.525C285.906 284.108 285.137 285.771 284.523 287.493Z" fill="#263238"/>
<path d="M288.597 279.522C289.662 279.739 290.699 280.076 291.688 280.526C292.677 280.977 293.623 281.516 294.514 282.138C295.426 282.767 296.235 283.534 296.91 284.412C297.64 285.271 298.032 286.366 298.014 287.493C297.62 286.532 297.016 285.672 296.247 284.975C295.501 284.269 294.7 283.623 293.852 283.043C292.185 281.829 290.352 280.758 288.597 279.522Z" fill="#263238"/>
<path d="M136.035 423.605H106.79V428.749H136.035V423.605Z" fill="#455A64"/>
<path d="M151.888 498.842H148.731L122.975 378.606L121.506 371.75L116.88 350.167L115.158 342.119L108.678 311.913L106.415 301.337H117.664L119.497 311.913L120.7 318.857L121.506 323.483L126.121 350.167L127.611 358.756L151.888 498.842Z" fill="#455A64"/>
<path d="M117.664 301.337L119.497 311.913H108.678L106.415 301.337H117.664Z" fill="#263238"/>
<path d="M127.611 358.756L122.975 378.606L121.506 371.75L116.88 350.167L115.158 342.118L120.7 318.857L121.506 323.483L126.121 350.167L127.611 358.756Z" fill="#263238"/>
<path d="M136.587 301.337L134.324 311.913L126.121 350.167L121.506 371.75L94.2705 498.842H91.1241L116.88 350.167L121.506 323.483L123.504 311.913L125.337 301.337H136.587Z" fill="#455A64"/>
<path d="M136.587 301.337L134.324 311.913H123.504L125.337 301.337H136.587Z" fill="#263238"/>
<path d="M445.585 301.337L403.269 498.842H400.123L434.336 301.337H445.585Z" fill="#455A64"/>
<path d="M415.413 301.337L457.729 498.842H460.876L426.663 301.337H415.413Z" fill="#455A64"/>
<path d="M445.033 423.605H415.788V428.749H445.033V423.605Z" fill="#455A64"/>
<path d="M462.874 287.459H89.1259V301.337H462.874V287.459Z" fill="#455A64"/>
<path d="M86.399 410.302C78.3177 393.742 64.1865 385.164 48.2448 389.878C32.303 394.592 29.808 416.815 41.7422 422.424C53.6765 428.032 65.5334 411.648 71.8152 408.281C78.0969 404.914 86.399 410.302 86.399 410.302Z" fill="#88786C"/>
<path d="M94.2264 454.517C94.2264 452.508 94.1049 450.509 94.0277 448.511C93.8952 444.515 93.7553 440.518 93.6082 436.522C93.3321 429.202 92.5041 422.026 89.5233 415.292C86.8476 409.182 82.3774 404.03 76.7059 400.52C74.5997 399.248 72.3305 398.267 69.9605 397.606C67.813 395.437 65.0826 393.937 62.1 393.289C58.4092 392.544 54.6162 392.455 50.8944 393.024C50.7619 393.024 50.7619 393.245 50.8944 393.234C54.4457 392.781 58.0517 393.036 61.5038 393.984C62.982 394.39 64.4139 394.949 65.7763 395.652C66.6395 396.11 67.4663 396.634 68.2493 397.219C65.0344 396.553 61.7142 396.583 58.512 397.308C57.3585 397.585 56.2288 397.955 55.1337 398.412C54.2608 398.219 53.3659 398.144 52.4731 398.191C51.3106 398.225 50.1554 398.388 49.0286 398.676C46.7204 399.325 44.5135 400.291 42.4709 401.547C42.3494 401.613 42.4709 401.79 42.5813 401.723C44.5896 400.628 46.7411 399.818 48.9734 399.317C50.0625 399.066 51.1701 398.903 52.2854 398.831C52.8959 398.798 53.5076 398.798 54.1181 398.831C49.5801 400.93 45.9313 404.567 43.8177 409.098C43.7625 409.22 43.9392 409.33 43.9944 409.198C45.252 406.569 47.0864 404.258 49.3611 402.436C51.6357 400.614 54.2919 399.329 57.132 398.676C57.4742 398.588 57.8385 398.544 58.236 398.467C58.1145 398.986 58.1366 399.571 58.0704 400.079C57.96 400.884 57.8275 401.69 57.6619 402.485C57.3106 404.142 56.8571 405.775 56.304 407.376C55.764 408.988 55.1186 410.563 54.372 412.09C53.6497 413.704 52.7459 415.23 51.6782 416.639C51.5789 416.749 51.7665 416.892 51.8438 416.76C52.8043 415.259 53.9194 413.879 54.7915 412.344C55.6246 410.855 56.3442 409.305 56.9443 407.707C57.556 406.09 58.0324 404.424 58.3685 402.728C58.5451 401.834 58.6886 400.929 58.788 400.023C58.8983 399.482 58.9317 398.929 58.8874 398.378C60.7617 398.09 62.6659 398.049 64.5509 398.257C63.8443 402.22 63.0826 406.349 60.8635 409.794C60.7862 409.904 60.9849 410.015 61.0512 409.893C62.0852 408.066 62.9998 406.175 63.7891 404.23C64.5154 402.323 64.9689 400.323 65.136 398.29C68.4266 398.735 71.6032 399.799 74.4979 401.425C79.952 404.605 84.3016 409.379 86.9621 415.104C89.7884 421.228 91.3756 427.85 91.632 434.59C92.1619 443.079 92.2723 451.613 93.1224 460.081C93.1224 460.633 94.0498 460.821 94.1601 460.191C94.359 458.306 94.3811 456.406 94.2264 454.517Z" fill="#263238"/>
<path d="M75.5467 399.184C75.0182 398.538 74.4012 397.969 73.7141 397.495C73.0517 396.943 72.3782 396.391 71.6606 395.927C70.2589 394.967 68.7067 394.247 67.068 393.797C66.9355 393.797 66.8913 393.973 67.068 394.007C68.7145 394.418 70.2564 395.17 71.5944 396.215C72.2678 396.711 72.9192 397.241 73.5485 397.793C74.1117 398.378 74.7332 398.903 75.4032 399.361C75.4805 399.449 75.635 399.306 75.5467 399.184Z" fill="#263238"/>
<path d="M49.7573 405.168C48.4217 406.726 47.1864 408.366 46.0589 410.081C44.9518 411.802 44.0269 413.633 43.2989 415.546C43.2989 415.601 43.3651 415.634 43.3982 415.546C45.2456 411.932 47.4262 408.498 49.9118 405.289C50.0002 405.245 49.8456 405.102 49.7573 405.168Z" fill="#263238"/>
<path d="M67.1453 403.567C66.971 404.604 66.663 405.613 66.229 406.57C65.7888 407.496 65.2757 408.386 64.6944 409.231C64.6856 409.242 64.6818 409.257 64.6839 409.272C64.686 409.286 64.6937 409.299 64.7054 409.308C64.7171 409.317 64.7319 409.32 64.7464 409.318C64.7608 409.316 64.7739 409.309 64.7827 409.297C66.1782 407.696 67.0693 405.718 67.344 403.611C67.344 403.479 67.1673 403.424 67.1453 403.567Z" fill="#263238"/>
<path d="M93.1003 410.688C93.1003 410.688 104.538 396.336 126.618 401.403C147.594 406.25 157.287 444.735 136.079 449.339C114.871 453.943 118.614 418.328 110.886 412.289C105.211 407.873 97.0636 408.833 93.1003 410.688Z" fill="#88786C"/>
<path d="M143.675 422.446C142.237 421.184 140.717 420.019 139.126 418.957C137.624 417.934 135.99 417.12 134.268 416.539C133.403 415.249 132.436 414.031 131.376 412.896C129.446 410.801 127.213 409.008 124.752 407.575H125.414C126.584 407.514 127.756 407.514 128.925 407.575C131.279 407.719 133.588 408.291 135.737 409.264C135.762 409.276 135.79 409.277 135.816 409.268C135.842 409.258 135.863 409.239 135.875 409.214C135.886 409.189 135.888 409.161 135.879 409.135C135.869 409.109 135.85 409.088 135.825 409.076C133.644 408.135 131.362 407.446 129.024 407.023C127.884 406.819 126.727 406.719 125.569 406.725C124.951 406.725 124.332 406.78 123.714 406.835H123.361C121.34 405.808 119.206 405.023 117.002 404.495L117.609 404.329C118.702 404.087 119.808 403.906 120.921 403.788C123.124 403.532 125.351 403.565 127.545 403.887C127.678 403.887 127.722 403.7 127.545 403.678C125.347 403.416 123.133 403.327 120.921 403.413C119.062 403.467 117.213 403.708 115.401 404.13C114.07 403.887 112.723 403.732 111.371 403.667C103.643 403.346 95.2752 406.228 90.539 412.554C85.8028 418.88 84.743 427.314 83.904 434.976C82.6115 445.623 82.3269 456.369 83.0539 467.069C83.0539 467.71 83.9923 467.588 84.0144 466.992C84.3014 457.917 84.6216 448.842 85.4937 439.8C85.8912 435.605 86.3328 431.41 87.0283 427.259C87.5345 423.684 88.561 420.203 90.0753 416.926C91.7158 413.581 94.3084 410.796 97.5273 408.922C100.764 407.065 104.373 405.953 108.093 405.665C111.433 405.391 114.796 405.705 118.029 406.592C117.929 407.24 117.929 407.899 118.029 408.546C118.095 409.368 118.259 410.18 118.514 410.964C118.753 411.705 119.06 412.422 119.431 413.106C119.839 413.867 120.358 414.541 120.811 415.314C120.888 415.424 121.065 415.314 120.987 415.192C120.075 413.897 119.488 412.401 119.276 410.831C119.134 410.103 119.046 409.365 119.011 408.623C119.011 408.049 119.011 407.519 119.011 406.912C122.515 407.989 125.784 409.716 128.649 412.002C129.19 412.432 129.753 412.885 130.217 413.349C129.485 414.025 128.854 414.802 128.34 415.656C127.585 416.76 126.927 417.927 126.375 419.145C125.355 421.619 124.669 424.218 124.332 426.873C124.332 427.005 124.531 427.049 124.542 426.873C124.917 424.3 125.735 421.813 126.96 419.52C127.545 418.403 128.198 417.323 128.914 416.285C129.289 415.755 129.676 415.181 130.018 414.718C130.239 414.453 130.471 414.166 130.68 413.879C133.28 416.423 135.4 419.415 136.94 422.711C135.893 423.811 135.021 425.065 134.357 426.431C133.565 427.852 132.875 429.328 132.292 430.847C131.221 433.79 130.34 436.799 129.654 439.856C129.654 439.988 129.83 440.032 129.863 439.856C130.536 436.794 131.585 433.827 132.988 431.024C133.65 429.644 134.346 428.286 135.085 426.939C135.849 425.69 136.541 424.4 137.161 423.075C138.631 426.295 139.485 429.763 139.678 433.298C139.678 433.441 139.899 433.419 139.888 433.298C139.481 427.75 137.784 422.374 134.931 417.599C136.278 418.173 137.636 418.703 138.938 419.432C140.59 420.3 142.129 421.368 143.52 422.611C143.641 422.699 143.774 422.534 143.675 422.446Z" fill="#263238"/>
<path d="M127.479 423.263C126.816 425.471 125.977 427.557 125.381 429.765C124.772 431.877 124.446 434.059 124.41 436.257C124.41 436.257 124.509 436.323 124.509 436.257C125.11 431.848 126.172 427.515 127.678 423.329C127.688 423.315 127.695 423.298 127.698 423.281C127.701 423.264 127.7 423.246 127.695 423.23C127.689 423.213 127.68 423.198 127.668 423.185C127.656 423.173 127.641 423.163 127.624 423.158C127.608 423.152 127.59 423.151 127.573 423.153C127.555 423.156 127.539 423.163 127.525 423.173C127.511 423.183 127.499 423.197 127.491 423.212C127.483 423.228 127.479 423.245 127.479 423.263Z" fill="#263238"/>
<path d="M141.467 417.853C140.598 417.019 139.612 416.316 138.541 415.766C137.449 415.269 136.315 414.87 135.152 414.574C135.03 414.574 134.986 414.751 135.152 414.773C136.31 415.073 137.424 415.526 138.464 416.12C139.507 416.662 140.511 417.278 141.467 417.963C141.444 418.018 141.533 417.919 141.467 417.853Z" fill="#263238"/>
<path d="M103.964 391.511C103.964 391.511 106.083 365.678 125.282 357.287C141.323 350.288 150.497 368.327 139.17 379.367C129.996 388.288 115.291 384.258 103.964 391.511Z" fill="#88786C"/>
<path d="M135.615 362.311C132.69 363.489 129.837 364.838 127.07 366.351C124.771 367.681 122.559 369.156 120.446 370.767C120.755 370.116 121.043 369.431 121.363 368.791C121.859 367.786 122.4 366.815 122.986 365.866C124.172 363.912 125.596 362.114 127.225 360.511C127.324 360.423 127.159 360.268 127.07 360.368C125.462 361.976 123.985 363.711 122.654 365.556C121.997 366.496 121.389 367.468 120.833 368.471C120.268 369.401 119.833 370.404 119.541 371.452L119.331 371.606C115.975 374.278 112.901 377.285 110.157 380.582C110.212 380.328 110.268 380.074 110.334 379.842C110.687 378.573 111.084 377.325 111.438 376.089C112.265 373.435 113.434 370.9 114.915 368.548C114.982 368.438 114.794 368.327 114.728 368.449C113.214 370.801 111.871 373.258 110.709 375.802C110.174 377.037 109.731 378.31 109.384 379.61C109.105 380.457 108.895 381.324 108.755 382.205C107.916 383.309 107.099 384.335 106.315 385.439C98.0793 397.175 93.9393 411.372 92.9457 425.581C92.6613 429.81 92.5913 434.051 92.736 438.288C92.7609 442.565 93.1301 446.833 93.84 451.05C93.84 451.315 94.3147 451.238 94.3037 450.984C94.2153 447.252 93.8289 443.532 93.7517 439.8C93.6744 436.069 93.8179 432.304 94.116 428.584C94.7165 421.128 96.1193 413.758 98.3001 406.603C100.535 399.276 103.826 392.314 108.071 385.936C108.876 385.771 109.682 385.561 110.477 385.351C111.272 385.141 112.398 384.854 113.348 384.589C115.195 384.118 116.989 383.46 118.702 382.624C118.823 382.624 118.702 382.381 118.592 382.448C116.899 383.374 115.063 384.008 113.16 384.324C111.659 384.622 110.102 384.821 108.589 385.163C109.979 383.131 111.471 381.17 113.061 379.29C116.72 379.627 120.41 379.351 123.979 378.473C125.881 378.018 127.75 377.439 129.576 376.74C131.497 376 133.319 375.04 135.218 374.245C135.243 374.233 135.262 374.212 135.271 374.186C135.281 374.16 135.279 374.132 135.268 374.107C135.256 374.082 135.235 374.063 135.209 374.053C135.183 374.044 135.154 374.045 135.13 374.057C131.7 375.926 127.959 377.157 124.09 377.689C120.664 378.231 117.202 378.516 113.734 378.539C115.092 376.972 116.505 375.448 118.007 374.013C123.052 369.211 129.047 364.795 135.671 362.498C135.792 362.465 135.792 362.255 135.615 362.311Z" fill="#263238"/>
<path d="M119.983 362.388C119.121 363.481 118.336 364.632 117.631 365.832C116.901 367.094 116.326 368.44 115.92 369.84C115.92 369.84 115.92 369.906 115.997 369.84C116.638 368.581 117.179 367.268 117.819 365.998C118.46 364.758 119.229 363.588 120.115 362.509C120.226 362.432 120.071 362.278 119.983 362.388Z" fill="#263238"/>
<path d="M137.845 370.944C136.593 371.63 135.272 372.181 133.904 372.589C132.591 373.034 131.253 373.403 129.897 373.693C129.83 373.693 129.897 373.814 129.897 373.803C131.31 373.657 132.702 373.353 134.048 372.898C135.401 372.405 136.721 371.826 138 371.165C138.077 371.11 138 370.944 137.845 370.944Z" fill="#263238"/>
<path d="M89.0376 386.864C88.9162 387.968 86.1341 377.48 69.8942 368.162C55.2 359.705 37.536 337.703 52.0094 323.792C63.6787 312.575 94.4251 337.04 89.0376 386.864Z" fill="#88786C"/>
<path d="M100.221 447.032C99.9794 436.106 99.1169 425.203 97.6377 414.375C96.3567 404.426 94.0594 394.634 90.7819 385.152C89.5675 381.741 88.1875 378.374 86.6971 375.073C86.7803 373.785 86.7581 372.493 86.6309 371.209C86.5425 369.553 86.399 367.897 86.2445 366.252C86.0899 364.607 85.9243 362.94 85.7256 361.317C85.5269 359.694 85.1846 358.005 85.1184 356.393C85.1238 356.377 85.1253 356.359 85.1226 356.342C85.1199 356.325 85.1132 356.308 85.1029 356.294C85.0927 356.28 85.0792 356.268 85.0637 356.26C85.0482 356.253 85.0309 356.248 85.0135 356.248C84.996 356.248 84.9788 356.253 84.9633 356.26C84.9477 356.268 84.9343 356.28 84.9241 356.294C84.9138 356.308 84.9071 356.325 84.9044 356.342C84.9017 356.359 84.9032 356.377 84.9086 356.393C85.2366 358.116 85.4322 359.862 85.4937 361.615C85.6152 363.205 85.7035 364.806 85.7587 366.395C85.8139 367.985 85.7587 369.597 85.7587 371.198C85.7587 371.772 85.7587 372.379 85.7587 372.997C84.2352 369.774 82.5902 366.594 80.8238 363.503C81.9278 356.769 80.4926 349.736 79.1237 343.145C79.1237 343.013 78.8918 343.079 78.9139 343.211C79.602 346.648 79.9715 350.14 80.0179 353.644C80.0841 356.404 79.9517 359.164 79.9406 361.935C79.5542 361.273 79.1678 360.611 78.7704 359.959C76.636 356.537 74.3728 353.206 71.9808 349.968C72.1686 348.372 72.1128 346.756 71.8152 345.177C71.5599 343.384 71.1724 341.613 70.656 339.877C70.1408 338.155 69.5409 336.462 68.8565 334.799C68.1499 333.099 67.2115 331.487 66.5381 329.765C66.5323 329.752 66.5241 329.741 66.514 329.732C66.5039 329.723 66.4922 329.716 66.4793 329.711C66.4665 329.707 66.4529 329.705 66.4393 329.705C66.4257 329.706 66.4124 329.709 66.4001 329.715C66.3877 329.721 66.3767 329.729 66.3675 329.739C66.3583 329.749 66.3513 329.761 66.3466 329.774C66.342 329.787 66.34 329.8 66.3406 329.814C66.3413 329.827 66.3446 329.841 66.3504 329.853C67.2111 331.47 67.8923 333.177 68.3817 334.943C68.9162 336.602 69.3585 338.29 69.7065 339.999C70.0488 341.71 70.3358 343.421 70.5677 345.143C70.7333 346.247 70.8326 347.473 71.0313 348.632C67.5539 343.957 63.7543 339.53 59.6601 335.384C59.5608 335.285 59.4283 335.439 59.5166 335.539C65.7028 342.496 71.2283 350.013 76.0214 357.994L76.5403 358.899C75.6461 358.336 74.6193 357.895 73.7803 357.431C72.2126 356.563 70.6339 355.694 69.0441 354.826C67.4544 353.957 65.9235 353.118 64.4515 352.308C63.6566 351.878 62.8838 351.414 62.0779 351.006C61.1201 350.577 60.2005 350.067 59.3289 349.482C59.2075 349.394 59.075 349.582 59.2075 349.648C60.7641 350.509 62.1552 351.79 63.6235 352.75C65.0918 353.711 66.6816 354.649 68.2603 355.532C71.1528 357.144 74.2881 358.303 77.0923 359.948C79.0685 363.393 80.879 366.936 82.6123 370.535C80.8901 369.431 79.1237 368.327 77.3352 367.378C76.2312 366.738 75.0389 366.108 73.8686 365.49C72.6953 364.955 71.5845 364.293 70.5566 363.514C70.5354 363.498 70.5091 363.49 70.4826 363.492C70.456 363.494 70.4311 363.506 70.4123 363.524C70.3935 363.543 70.3821 363.568 70.3803 363.595C70.3784 363.621 70.3861 363.647 70.4021 363.669C72.2969 365.363 74.3916 366.82 76.6397 368.007C78.7262 369.222 80.8349 370.403 83.0097 371.463C84.7393 375.268 86.3033 379.143 87.7017 383.088C94.5465 402.441 97.0526 422.987 98.256 443.388C98.6093 449.471 98.7969 455.532 98.8742 461.638C98.9515 467.743 98.6203 473.782 98.6424 479.887C98.6424 480.063 98.9294 480.107 98.9625 479.887C99.6912 474.488 99.8126 469.001 100.067 463.57C100.32 458.138 100.343 452.552 100.221 447.032Z" fill="#263238"/>
<path d="M70.7112 359.418C67.7467 358.109 64.867 356.616 62.0889 354.947C59.2645 353.366 56.5297 351.63 53.8972 349.747C53.8972 349.747 53.7979 349.747 53.8972 349.824C56.3865 351.844 59.013 353.689 61.7577 355.344C64.634 356.942 67.6057 358.362 70.656 359.595C70.7332 359.65 70.8437 359.462 70.7112 359.418Z" fill="#263238"/>
<path d="M75.4253 337.537C75.1824 336.599 74.8843 335.671 74.5641 334.744C74.5751 334.727 74.5809 334.708 74.5809 334.689C74.5809 334.669 74.5751 334.65 74.5641 334.633L73.968 333.077C73.951 333.011 73.925 332.948 73.8907 332.889C73.8907 332.79 73.8134 332.69 73.7693 332.591C73.7693 332.591 73.8686 332.955 73.9238 333.132C73.9301 333.225 73.9448 333.318 73.968 333.408C75.0352 337.025 75.8396 340.715 76.3747 344.448C76.3747 344.558 76.5734 344.569 76.5624 344.448C76.3984 342.114 76.0177 339.8 75.4253 337.537Z" fill="#263238"/>
<path d="M117.377 450.951L116.218 464.685L112.674 506.57H74.6745L71.1307 464.685L69.9715 450.951H117.377Z" fill="#37474F"/>
<path d="M117.377 450.951L116.218 464.685H71.1307L69.9715 450.951H117.377Z" fill="#263238"/>
<path d="M121.098 445.442H66.24V458.613H121.098V445.442Z" fill="#37474F"/>
</svg>
