<svg width="446" height="437" viewBox="0 0 446 437" fill="none" xmlns="http://www.w3.org/2000/svg">
<path d="M248.368 403.84C232.99 396.709 226.862 379.753 224.695 363.96C224.329 361.338 223.562 358.611 224.436 356.094C225.31 353.577 228.004 351.523 230.591 352.231C232.741 352.816 233.998 354.931 235.434 356.601C237.345 358.853 239.869 360.526 242.713 361.425C244.569 362.011 246.772 362.194 248.297 361.006C250.384 359.371 250.081 356.207 249.653 353.603C248.779 348.773 247.922 343.942 247.084 339.112C246.48 336.535 246.302 333.879 246.558 331.246C246.95 328.624 248.386 326.002 250.795 324.918C253.203 323.834 256.584 324.717 257.556 327.182C257.843 328.242 258.057 329.319 258.198 330.407C258.457 331.482 259.179 332.592 260.277 332.723C261.374 332.854 262.328 331.936 262.997 331.036C265.281 327.951 266.565 324.254 267.725 320.592C268.884 316.93 269.973 313.198 271.971 309.912C273.969 306.625 277.019 303.794 280.793 302.92C284.566 302.046 289.026 303.706 290.605 307.211C292.183 310.716 290.658 314.815 288.821 318.188C286.03 323.184 282.518 327.758 278.393 331.77C277.571 332.413 276.977 333.294 276.698 334.288C276.422 336.123 278.402 337.574 280.266 337.853C282.354 338.168 284.477 337.609 286.591 337.504C288.705 337.399 291.104 337.923 292.228 339.715C293.771 342.197 291.978 345.37 290.061 347.581C286.209 351.986 281.613 355.711 276.475 358.593C274.638 359.616 272.684 360.577 271.337 362.186C269.991 363.794 269.446 366.293 270.713 367.971C271.98 369.65 274.54 369.833 276.52 369.116C278.5 368.4 280.15 367.01 281.979 365.97C285.404 364.012 290.168 363.47 293.049 366.18C293.947 367.127 294.609 368.266 294.982 369.507C295.355 370.747 295.429 372.056 295.198 373.329C294.724 375.866 293.732 378.283 292.282 380.435C287.662 388.215 281.02 394.657 273.032 399.103C265.049 403.386 257.324 405.475 248.377 403.849" fill="#F5F5F5"/>
<path d="M250.804 393.3C251.987 384.305 253.696 375.385 255.924 366.582L257.636 359.651C258.198 357.37 258.76 355.115 259.42 352.948C260.754 348.788 262.32 344.703 264.112 340.712C265.798 336.883 267.537 333.3 269.188 329.97C270.838 326.64 272.452 323.564 274.04 320.828C276.519 316.489 279.346 312.351 282.496 308.452C283.611 307.071 284.512 306.031 285.128 305.332C285.422 305 285.663 304.738 285.832 304.537C286.002 304.336 286.082 304.275 286.091 304.283C286.027 304.384 285.955 304.48 285.877 304.572L285.199 305.393C284.61 306.11 283.736 307.141 282.648 308.566C279.567 312.503 276.791 316.66 274.343 321.003C272.782 323.747 271.195 326.824 269.553 330.154C267.912 333.484 266.199 337.067 264.531 340.895C262.755 344.886 261.207 348.971 259.893 353.131C259.206 355.29 258.653 357.501 258.109 359.808L256.396 366.748C254.174 375.533 252.455 384.432 251.25 393.405" fill="#E0E0E0"/>
<path d="M259.572 352.912C259.379 352.572 259.226 352.212 259.117 351.837C258.849 351.147 258.502 350.089 258.091 348.857C257.271 346.322 256.254 342.783 255.148 338.885C254.042 334.987 252.98 331.464 252.115 328.956C251.687 327.698 251.33 326.675 251.08 325.985C250.93 325.626 250.814 325.254 250.732 324.875C250.948 325.2 251.124 325.549 251.259 325.915C251.571 326.588 251.972 327.593 252.445 328.834C253.399 331.333 254.514 334.838 255.629 338.754C256.744 342.669 257.681 346.095 258.43 348.752C258.778 349.958 259.064 350.972 259.322 351.785C259.439 352.153 259.523 352.53 259.572 352.912Z" fill="#E0E0E0"/>
<path d="M292.71 340.974C292.279 341.15 291.831 341.282 291.372 341.367C290.48 341.585 289.258 341.9 287.724 342.337C284.646 343.211 280.445 344.505 275.869 346.165C271.293 347.826 267.216 349.513 264.273 350.806C262.81 351.444 261.641 351.995 260.83 352.371C260.422 352.588 259.995 352.77 259.554 352.912C259.923 352.634 260.321 352.394 260.741 352.196C261.526 351.768 262.676 351.173 264.121 350.448C267.002 349.067 271.07 347.328 275.655 345.658C279.568 344.224 283.555 342.99 287.599 341.961C289.151 341.559 290.417 341.297 291.3 341.131C291.764 341.036 292.236 340.983 292.71 340.974Z" fill="#E0E0E0"/>
<path d="M251.116 392.627C251.002 392.513 250.9 392.387 250.813 392.251L250.019 391.141C249.332 390.162 248.377 388.738 247.227 386.955C244.907 383.389 241.875 378.363 238.601 372.77C235.327 367.176 232.357 362.133 230.1 358.532L227.424 354.258L226.711 353.096C226.616 352.967 226.541 352.826 226.488 352.677C226.488 352.677 226.604 352.79 226.791 353.044C226.978 353.297 227.273 353.708 227.585 354.162C228.272 355.132 229.226 356.557 230.386 358.349C232.696 361.915 235.738 366.931 239.011 372.525C242.285 378.119 245.255 383.162 247.503 386.771L250.179 391.036C250.465 391.5 250.705 391.91 250.893 392.199C250.988 392.33 251.064 392.474 251.116 392.627Z" fill="#E0E0E0"/>
<path d="M294.092 370.733C293.967 370.841 293.826 370.929 293.673 370.996L292.433 371.642L287.831 373.993C283.941 375.986 278.607 378.792 272.72 381.859C266.833 384.927 261.472 387.733 257.556 389.638C255.594 390.591 253.988 391.386 252.882 391.849L251.544 392.426C251.397 392.502 251.241 392.561 251.08 392.601C251.208 392.496 251.349 392.408 251.499 392.339L252.748 391.692L257.351 389.332C261.231 387.348 266.565 384.543 272.453 381.466C278.34 378.39 283.71 375.602 287.617 373.696C289.579 372.744 291.185 371.948 292.291 371.485L293.575 370.908C293.737 370.824 293.912 370.765 294.092 370.733Z" fill="#E0E0E0"/>
<path d="M136.833 216.236C136.833 216.236 126.236 217.679 132.185 240.42C138.135 263.162 143.184 274.891 143.184 274.891C143.184 274.891 143.978 280.038 139.741 279.881C135.504 279.724 126.86 276.385 123.926 280.834C120.893 285.484 123.551 291.077 130.17 296.942C136.788 302.806 150.9 316.17 152.166 317.385C153.433 318.599 154.361 321.099 151.453 321.44C148.545 321.781 127.922 319.412 127.369 329.07C126.816 338.728 148.072 352.082 150.364 353.586C152.657 355.089 153.04 356.26 152.505 357.571C151.97 358.882 145.137 357.44 139.241 356.994C133.345 356.548 126.423 357.064 126.575 362.658C126.726 368.251 137.894 382.41 170.452 392.933L185.875 396.84L197.266 385.845C220.19 360.857 222.697 343.141 219.994 338.212C217.291 333.283 211.074 336.21 206.132 339.462C201.191 342.713 196.017 347.328 194.911 346.454C193.805 345.58 193.519 344.374 194.75 341.953C195.981 339.532 207.658 317.594 202.27 309.484C196.882 301.373 180.184 313.451 177.508 314.561C174.832 315.671 174.35 313.032 174.832 311.389C175.314 309.746 180.755 291.287 183.556 282.94C186.357 274.593 185.821 268.458 180.826 265.906C176.009 263.45 170.22 270.582 166.617 272.784C163.013 274.987 161.104 270.162 161.104 270.162C161.104 270.162 159.534 257.533 153.165 234.896C146.796 212.26 136.637 216.315 136.637 216.315" fill="#EBEBEB"/>
<path d="M185.866 400.598C181.254 383.992 173.556 354.276 166.822 328.764C160.087 303.252 153.968 280.248 149.437 263.59C147.171 255.269 145.334 248.54 144.085 243.864C143.46 241.548 142.97 239.738 142.631 238.497L142.256 237.099C142.176 236.784 142.149 236.618 142.149 236.618C142.149 236.618 142.212 236.767 142.31 237.081C142.408 237.396 142.542 237.877 142.72 238.471C143.086 239.712 143.612 241.504 144.272 243.811C145.61 248.452 147.501 255.173 149.802 263.494C154.414 280.1 160.596 303.182 167.33 328.642C174.065 354.101 181.7 383.843 186.232 400.502" fill="#E0E0E0"/>
<path d="M135.825 286.025C136.181 286.169 136.522 286.348 136.842 286.559C137.475 286.926 138.385 287.485 139.518 288.184C141.739 289.591 144.763 291.61 148.054 293.891L156.457 299.765L159.017 301.513C159.34 301.709 159.639 301.941 159.909 302.203C159.549 302.061 159.205 301.882 158.883 301.67C158.25 301.303 157.34 300.744 156.207 300.036C154.004 298.611 151.007 296.54 147.715 294.267L139.268 288.455L136.699 286.707C136.384 286.511 136.091 286.283 135.825 286.025Z" fill="#E0E0E0"/>
<path d="M161.202 301.478C161.086 301.408 165.056 295.124 170.06 287.441C175.064 279.759 179.23 273.588 179.346 273.658C179.461 273.728 175.492 280.021 170.479 287.703C165.466 295.386 161.318 301.53 161.202 301.478Z" fill="#E0E0E0"/>
<path d="M169.748 341.052C169.995 340.751 170.279 340.48 170.595 340.248L172.994 338.186C175.019 336.438 177.811 334.025 180.791 331.246C183.77 328.467 186.392 325.871 188.266 323.974C189.158 323.1 189.889 322.322 190.487 321.728C190.757 321.435 191.055 321.169 191.379 320.933C191.181 321.267 190.941 321.575 190.665 321.851C190.183 322.419 189.461 323.223 188.551 324.202C186.767 326.168 184.162 328.816 181.165 331.596C178.168 334.375 175.349 336.77 173.262 338.448C172.21 339.322 171.353 339.951 170.747 340.397C170.439 340.651 170.104 340.871 169.748 341.052Z" fill="#E0E0E0"/>
<path d="M143.657 332.024C144.017 332.066 144.37 332.151 144.709 332.277L147.537 333.151C149.91 333.894 153.183 334.952 156.787 336.14C160.391 337.329 163.646 338.448 165.992 339.278L168.766 340.274C169.112 340.38 169.444 340.524 169.757 340.703C169.396 340.667 169.042 340.585 168.704 340.458L165.876 339.584C163.504 338.841 160.23 337.784 156.626 336.586C153.023 335.389 149.767 334.279 147.421 333.457L144.647 332.452C144.299 332.354 143.966 332.21 143.657 332.024Z" fill="#E0E0E0"/>
<path d="M146.672 367.902C147.131 367.969 147.582 368.08 148.018 368.234L151.64 369.317C154.691 370.253 158.892 371.572 163.53 373.067C168.169 374.561 172.352 375.925 175.376 376.948L178.944 378.171C179.388 378.31 179.82 378.483 180.237 378.687C179.775 378.62 179.321 378.509 178.882 378.355L175.26 377.271C172.209 376.336 168.008 375.016 163.37 373.521C158.731 372.027 154.548 370.655 151.533 369.641L147.965 368.409C147.519 368.278 147.086 368.108 146.672 367.902Z" fill="#E0E0E0"/>
<path d="M179.506 378.206C179.82 377.828 180.17 377.48 180.55 377.166L183.502 374.448C185.991 372.149 189.416 368.959 193.1 365.332C196.784 361.705 200.04 358.34 202.377 355.893L205.142 352.991C205.468 352.621 205.823 352.276 206.204 351.96C205.944 352.371 205.645 352.757 205.312 353.114C204.705 353.839 203.795 354.862 202.636 356.12C200.361 358.637 197.15 362.046 193.448 365.673C189.746 369.3 186.312 372.464 183.743 374.701C182.459 375.811 181.415 376.712 180.675 377.323C180.311 377.649 179.92 377.944 179.506 378.206Z" fill="#E0E0E0"/>
<path d="M90.8056 80.6179L82.0997 77.9959C82.0997 77.9959 79.8162 85.1627 72.1807 82.9689C70.7024 82.5701 69.3873 81.7309 68.4173 80.5675C67.4472 79.404 66.8703 77.9739 66.7662 76.4751C66.6519 75.2111 66.8473 73.9387 67.336 72.7636C67.8247 71.5886 68.5927 70.5448 69.576 69.7191C71.8149 67.7788 75.7397 66.5989 81.2791 69.4044L87.4071 50.1764L78.7993 47.5544L75.2313 58.8203C75.2313 58.8203 62.1724 58.1823 58.0246 71.2136C54.0552 83.6856 64.5451 90.0745 69.4333 91.5691C73.144 92.7053 86.1761 95.7118 90.8056 80.6179Z" fill="#F5F5F5"/>
<path d="M79.9653 43.5525L88.7018 46.2236L91.2472 38.2308L82.5108 35.5597L79.9653 43.5525Z" fill="#F5F5F5"/>
<path d="M114.827 58.9077L118.315 58.0337C118.208 57.6456 118.183 57.2405 118.239 56.8425C118.296 56.4444 118.433 56.0616 118.644 55.7167C118.854 55.3718 119.133 55.0719 119.465 54.8348C119.796 54.5978 120.172 54.4284 120.572 54.3367C121.153 54.1648 121.774 54.1743 122.349 54.3637C122.925 54.5532 123.426 54.9134 123.783 55.3942C124.086 55.7935 124.289 56.2574 124.374 56.7481C124.459 57.2387 124.425 57.7421 124.273 58.2173C123.943 59.3272 122.882 60.5334 120.42 60.7344L122.498 68.4343L125.941 67.5603L124.728 63.0505C126.034 62.2788 127.044 61.1078 127.604 59.7179C128.163 58.328 128.24 56.7964 127.824 55.3593C126.486 50.36 121.58 50.3862 119.644 50.8844C118.145 51.2253 113.141 52.8946 114.827 58.9077Z" fill="#EBEBEB"/>
<path d="M127.156 68.6831L123.643 69.6057L124.522 72.8188L128.035 71.8962L127.156 68.6831Z" fill="#EBEBEB"/>
<path d="M402.774 147.365L406.163 148.563C406.305 148.187 406.523 147.842 406.803 147.55C407.083 147.257 407.42 147.023 407.794 146.86C408.168 146.697 408.572 146.609 408.981 146.601C409.39 146.594 409.797 146.666 410.177 146.815C410.748 146.995 411.248 147.343 411.609 147.813C411.97 148.282 412.174 148.849 412.193 149.437C412.214 149.938 412.114 150.437 411.9 150.893C411.686 151.349 411.364 151.748 410.962 152.059C410.07 152.784 408.474 153.177 406.333 151.971L403.559 159.461L406.913 160.65L408.536 156.28C410.058 156.373 411.57 155.973 412.838 155.142C414.106 154.312 415.061 153.097 415.556 151.683C417.34 146.823 413.317 144.123 411.417 143.45C409.963 142.89 404.879 141.483 402.774 147.365Z" fill="#EBEBEB"/>
<path d="M406.411 162.168L403.006 160.96L401.855 164.074L405.26 165.283L406.411 162.168Z" fill="#EBEBEB"/>
<path d="M43.0479 185.402L50.1839 182.692C50.1839 182.692 47.8647 176.793 54.082 174.32C55.2719 173.826 56.5886 173.707 57.8507 173.978C59.1129 174.248 60.2582 174.896 61.1288 175.832C61.8694 176.609 62.4122 177.547 62.7129 178.569C63.0136 179.592 63.0638 180.669 62.8592 181.714C62.4132 184.143 60.4508 186.958 55.2862 187.928L61.5302 203.773L68.6662 201.099L65.0089 191.817C65.0089 191.817 73.929 185.542 69.7455 174.791C65.6869 164.513 55.304 165.684 51.3168 167.196C48.2394 168.359 38.0349 173.052 43.0479 185.402Z" fill="#F5F5F5"/>
<path d="M70.0181 204.324L62.8181 207.042L65.4092 213.632L72.6092 210.914L70.0181 204.324Z" fill="#F5F5F5"/>
<path d="M405.566 212.068L400.481 213.982C400.481 213.982 402.122 218.168 397.716 219.916C396.872 220.262 395.94 220.345 395.047 220.154C394.153 219.963 393.341 219.508 392.721 218.85C392.196 218.298 391.812 217.633 391.599 216.909C391.387 216.184 391.353 215.421 391.499 214.681C391.82 212.933 393.211 210.975 396.851 210.311L392.48 199.045L387.449 200.942L390.036 207.523C388.205 208.895 386.885 210.819 386.279 212.998C385.673 215.177 385.815 217.491 386.682 219.584C389.545 226.864 396.878 226.043 399.732 224.968C401.891 224.137 409.116 220.816 405.566 212.068Z" fill="#F5F5F5"/>
<path d="M386.454 198.659L391.556 196.732L389.722 192.067L384.619 193.993L386.454 198.659Z" fill="#F5F5F5"/>
<path d="M419.927 405.335C419.927 405.466 331.753 405.562 223.009 405.562C114.265 405.562 26.0732 405.466 26.0732 405.335C26.0732 405.204 114.23 405.108 223.009 405.108C331.788 405.108 419.927 405.213 419.927 405.335Z" fill="#263238"/>
<path d="M82.6349 382.637C83.5269 379.421 81.3237 376.196 78.9153 373.897C76.5069 371.599 73.6257 369.484 72.368 366.398C70.3342 361.399 73.0637 354.931 69.6028 350.762C67.5601 348.315 63.9029 347.494 62.0922 344.872C61.2549 343.427 60.7013 341.841 60.4598 340.196C58.5351 331.892 54.3666 324.249 48.391 318.066C47.9882 325.462 49.6243 332.828 53.1276 339.392C54.528 342.014 56.2585 344.566 56.6956 347.494C57.4538 352.24 54.7421 357.108 55.9373 361.792C57.3021 367.124 63.4123 370.698 63.6978 376.187C63.9475 380.828 59.8176 384.927 60.1298 389.542C60.3799 391.518 61.1111 393.407 62.2616 395.048C65.9188 401.017 71.3065 405.125 79.4594 404.994L89.4498 405.335L82.6349 382.637Z" fill="#88786C"/>
<g opacity="0.3">
<path d="M82.6349 382.637C83.5269 379.421 81.3237 376.196 78.9153 373.897C76.5069 371.599 73.6257 369.484 72.368 366.398C70.3342 361.399 73.0637 354.931 69.6028 350.762C67.5601 348.315 63.9029 347.494 62.0922 344.872C61.2549 343.427 60.7013 341.841 60.4598 340.196C58.5351 331.892 54.3666 324.249 48.391 318.066C47.9882 325.462 49.6243 332.828 53.1276 339.392C54.528 342.014 56.2585 344.566 56.6956 347.494C57.4538 352.24 54.7421 357.108 55.9373 361.792C57.3021 367.124 63.4123 370.698 63.6978 376.187C63.9475 380.828 59.8176 384.927 60.1298 389.542C60.3799 391.518 61.1111 393.407 62.2616 395.048C65.9188 401.017 71.3065 405.125 79.4594 404.994L89.4498 405.335L82.6349 382.637Z" fill="black"/>
</g>
<path d="M91.4657 405.536C92.3807 405.674 93.3132 405.657 94.222 405.484C95.3254 405.319 96.4099 405.05 97.46 404.68C98.9102 404.186 100.267 403.459 101.474 402.53C102.2 401.957 102.768 401.215 103.124 400.371C103.423 399.425 103.579 398.442 103.588 397.452C103.608 396.393 103.689 395.337 103.829 394.288C104.017 393.171 104.429 392.101 105.042 391.141C106.219 389.114 108.182 387.191 108.806 384.438C109.431 381.685 109.002 378.8 108.539 375.864C108.075 372.927 107.647 369.746 108.771 366.669C109.894 363.593 112.035 360.84 113.132 357.396C114.23 353.953 113.712 350.159 113.944 346.462C114.013 344.585 114.455 342.738 115.246 341.026C116.049 339.278 117.173 337.661 118.047 335.843C119.831 332.155 120.135 327.977 120.616 323.878C120.857 321.816 121.089 319.727 121.33 317.629C121.482 315.508 121.855 313.409 122.445 311.363C123.122 309.3 123.92 307.278 124.835 305.306C125.307 304.286 125.695 303.231 125.995 302.151C126.163 301.032 126.27 299.906 126.316 298.777C126.423 296.516 126.333 294.25 126.049 292.004C125.781 289.749 125.362 287.511 125.112 285.247C125.112 285.108 125.112 284.977 125.112 284.854L125.058 284.408L124.657 284.601C122.548 285.661 120.717 287.183 119.305 289.049C117.921 290.877 116.806 292.886 115.996 295.019C114.328 299.223 113.73 303.628 112.892 307.832C112.053 312.036 110.983 316.17 108.788 319.666C107.691 321.414 106.362 323.004 105.22 324.7C103.981 326.355 103.133 328.26 102.741 330.276C102.143 334.419 104.471 338.055 103.989 341.725C103.772 343.523 103.164 345.255 102.205 346.803C101.313 348.368 100.234 349.819 99.2172 351.269C98.1865 352.693 97.2908 354.205 96.5412 355.788C95.8357 357.337 95.4188 358.998 95.3103 360.691C95.0694 363.995 95.5422 367.124 95.3103 370.078C95.0317 372.894 94.1923 375.628 92.8394 378.127C91.6352 380.531 90.2883 382.707 89.1644 384.822C88.6024 385.871 88.0761 386.902 87.648 387.942C87.2428 388.941 86.9439 389.978 86.756 391.036C86.4574 392.885 86.4334 394.766 86.6846 396.621C86.9467 399.208 87.9346 401.674 89.539 403.744C89.7843 404.057 90.0558 404.35 90.3507 404.618C90.5477 404.821 90.766 405.003 91.0019 405.16C91.3765 405.431 91.5728 405.554 91.5728 405.554C90.8597 405.001 90.2106 404.374 89.6371 403.683C88.1057 401.605 87.1806 399.158 86.9611 396.604C86.734 394.772 86.776 392.918 87.086 391.098C87.2738 390.064 87.5728 389.054 87.978 388.082C88.43 387.031 88.9392 386.004 89.5033 385.006C90.6362 382.908 91.992 380.741 93.223 378.32C94.6162 375.782 95.4833 372.998 95.7741 370.13C96.0417 367.115 95.5779 363.969 95.8276 360.752C95.9425 359.114 96.3501 357.507 97.0318 356.007C97.7861 354.456 98.6817 352.976 99.7078 351.584C100.725 350.133 101.804 348.682 102.732 347.083C103.75 345.476 104.401 343.672 104.641 341.795C105.122 337.889 102.812 334.235 103.41 330.381C103.801 328.453 104.62 326.633 105.809 325.049C106.942 323.38 108.28 321.789 109.377 319.998C111.652 316.406 112.749 312.193 113.578 307.971C114.408 303.75 115.023 299.38 116.665 295.255C117.454 293.182 118.538 291.228 119.885 289.451C121.243 287.661 123.004 286.201 125.032 285.186L124.577 284.933C124.577 285.064 124.577 285.195 124.621 285.335C124.871 287.625 125.29 289.862 125.513 292.1C125.795 294.311 125.882 296.542 125.772 298.768C125.727 299.862 125.626 300.953 125.469 302.037C125.18 303.082 124.805 304.103 124.345 305.087C123.424 307.08 122.62 309.123 121.936 311.205C121.342 313.283 120.965 315.415 120.813 317.568C120.581 319.674 120.34 321.763 120.108 323.826C119.626 327.942 119.314 332.05 117.61 335.607C116.718 337.355 115.648 339.025 114.818 340.808C114.002 342.583 113.547 344.498 113.48 346.445C113.257 350.221 113.757 353.918 112.713 357.256C111.67 360.595 109.502 363.374 108.405 366.529C107.308 369.685 107.709 373.023 108.191 375.951C108.672 378.879 109.154 381.763 108.512 384.359C107.87 386.955 106.032 388.895 104.837 390.975C104.207 391.977 103.785 393.091 103.597 394.253C103.462 395.314 103.391 396.382 103.383 397.452C103.384 398.417 103.24 399.377 102.955 400.301C102.624 401.101 102.094 401.808 101.412 402.355C100.237 403.283 98.9135 404.015 97.4957 404.522C96.4593 404.914 95.387 405.206 94.2934 405.396C93.625 405.515 92.9477 405.579 92.2685 405.589C91.7066 405.536 91.4657 405.536 91.4657 405.536Z" fill="#263238"/>
<path d="M123.025 290.256C122.977 290.349 122.944 290.449 122.927 290.553L122.713 291.427C122.516 292.205 122.275 293.367 121.901 294.818C121.526 296.269 120.607 297.912 119.831 299.931C118.922 302.204 118.131 304.52 117.459 306.87C116.691 309.492 116.022 312.377 115.309 315.488C114.702 318.802 113.628 322.017 112.116 325.041C111.295 326.631 110.332 328.24 109.645 330.005C108.924 331.808 108.442 333.694 108.209 335.616C107.701 339.598 106.981 343.551 106.05 347.459C104.052 355.473 102.143 363.112 100.404 370.069C98.6642 377.026 97.0229 383.249 95.6671 388.511C94.3112 393.772 93.2854 397.967 92.5361 400.965C92.1883 402.399 91.9117 403.526 91.7155 404.356C91.6352 404.715 91.5638 405.003 91.5103 405.23C91.5005 405.332 91.5005 405.434 91.5103 405.536C91.5621 405.446 91.6012 405.349 91.6263 405.248C91.6887 405.012 91.7779 404.732 91.885 404.374C92.108 403.561 92.4202 402.434 92.8216 401.009C93.6244 398.037 94.7572 393.816 96.1577 388.616C97.5581 383.415 99.1905 377.122 101.019 370.209C102.848 363.296 104.703 355.605 106.719 347.581C107.644 343.663 108.346 339.698 108.824 335.704C109.052 333.827 109.519 331.986 110.216 330.224C110.92 328.476 111.821 326.911 112.642 325.303C114.426 322.113 115.13 318.687 115.835 315.602C116.54 312.516 117.164 309.597 117.896 306.993C118.627 304.388 119.394 302.063 120.161 300.053C120.929 298.043 121.776 296.382 122.142 294.879C122.507 293.376 122.677 292.257 122.837 291.453C122.897 291.092 122.95 290.8 122.998 290.579C123.025 290.36 123.043 290.256 123.025 290.256Z" fill="#263238"/>
<path d="M93.2319 405.58C99.7524 401.778 101.626 390.241 98.905 383.302C96.1844 376.362 91.4211 370.017 90.6897 362.614C90.1188 356.924 92.0277 351.086 90.6897 345.527C88.8611 338.02 81.3861 332.207 81.4753 324.49C81.5199 320.164 84.0354 316.091 83.8302 311.765C83.5894 306.468 79.4326 302.256 76.8637 297.588C72.921 290.43 72.6624 281.979 71.3154 273.99C69.9685 266.002 66.8554 257.384 59.5946 253.443C58.5242 260.251 56.6956 264.918 57.2664 274.139C57.4805 277.451 61.4053 283.753 61.9405 291.051C62.2616 295.421 62.4757 299.738 62.7522 304.073C63.0288 308.408 63.2964 312.604 64.8395 316.554C66.0259 319.587 67.9258 322.34 68.8089 325.469C70.4591 331.351 68.2826 337.705 69.6206 343.683C70.7535 348.735 74.3215 353.079 75.0529 358.2C76.0698 365.393 71.3244 372.875 73.7506 379.736C74.9637 383.144 77.8181 385.854 78.6298 389.393C79.2632 392.12 78.5763 395.013 79.1472 397.749C80.0392 402.171 88.6559 405.615 93.2497 405.326" fill="#88786C"/>
<path d="M61.3786 260.164C61.3664 260.291 61.3664 260.42 61.3786 260.548C61.3786 260.837 61.4678 261.204 61.5213 261.667C61.6729 262.654 61.8424 264.097 62.1814 265.967C62.5203 267.837 63.5372 269.952 64.3222 272.504C65.1071 275.057 65.9813 277.976 66.7127 281.244C67.4442 284.513 68.0864 288.158 68.7376 292.065C69.3887 295.971 70.1023 300.228 72.0826 304.301C72.9746 306.337 74.0271 308.382 74.7586 310.567C75.508 312.804 75.9695 315.123 76.1323 317.472C76.4969 322.455 77.1371 327.415 78.0501 332.33C80.0481 342.416 81.9481 352.021 83.6786 360.77C85.4091 369.518 87.1485 377.323 88.54 383.931C89.9315 390.538 91.0733 395.817 91.8671 399.54L92.7591 403.779C92.8662 404.234 92.9465 404.592 93.0178 404.872C93.0419 405 93.0778 405.126 93.1249 405.248C93.1406 405.12 93.1406 404.991 93.1249 404.863C93.0713 404.575 93.0089 404.216 92.9286 403.753C92.7324 402.739 92.4559 401.306 92.108 399.488C91.3587 395.756 90.324 390.425 88.9771 383.843C87.6301 377.262 86.0335 369.37 84.2584 360.656C82.4833 351.942 80.6904 342.302 78.6834 332.225C77.7699 327.31 77.1267 322.35 76.7567 317.367C76.5869 314.97 76.1104 312.603 75.3384 310.322C74.5445 308.102 73.5009 306.049 72.5821 304.021C70.6197 300.009 69.9061 295.823 69.2282 291.933C68.5503 288.044 67.8991 284.391 67.1231 281.105C66.347 277.818 65.4996 274.882 64.6255 272.365C63.7513 269.847 62.779 267.715 62.3865 265.888C61.9941 264.062 61.8067 262.593 61.6194 261.623C61.5302 261.169 61.4589 260.802 61.4053 260.513C61.4035 260.396 61.3945 260.279 61.3786 260.164Z" fill="#263238"/>
<path d="M375.951 77.5848H372.383C372.386 77.9813 372.307 78.3742 372.152 78.7404C371.996 79.1065 371.768 79.4384 371.479 79.7163C371.19 79.9942 370.848 80.2126 370.471 80.3584C370.095 80.5042 369.693 80.5745 369.288 80.5651C368.691 80.5861 368.101 80.4239 367.603 80.1012C367.104 79.7784 366.72 79.3112 366.505 78.7647C366.317 78.3095 366.242 77.8173 366.285 77.3282C366.329 76.839 366.489 76.3669 366.755 75.9504C367.361 74.9715 368.681 74.0888 371.072 74.4995V66.6335H367.566V71.2308C366.128 71.6457 364.868 72.5117 363.98 73.6958C363.092 74.8799 362.626 76.3167 362.652 77.7858C362.652 82.8725 367.308 84.0524 369.306 84.0524C370.831 84.0873 376.023 83.729 375.951 77.5848Z" fill="#88786C"/>
<path d="M367.54 65.043H371.099V61.783H367.54V65.043Z" fill="#88786C"/>
<path d="M395.406 72.9352C395.418 72.7868 395.418 72.6378 395.406 72.4894C395.406 72.1748 395.406 71.7465 395.406 71.1959C395.406 70.9162 395.406 70.5929 395.361 70.2433C395.317 69.8937 395.263 69.5091 395.201 69.1071C395.138 68.705 395.076 68.2331 395.004 67.7698L394.63 66.284C393.967 63.7253 392.882 61.2897 391.419 59.0735C389.293 55.7915 386.427 53.0307 383.042 51.0035C379.657 48.9762 375.843 47.7364 371.893 47.3794C370.706 47.2768 369.514 47.2534 368.325 47.3095C367.727 47.3095 367.112 47.3095 366.541 47.4231L364.703 47.6941C362.182 48.1532 359.742 48.9687 357.46 50.115C355.078 51.3502 352.888 52.9131 350.957 54.756C348.981 56.7188 347.329 58.9717 346.06 61.4333C344.696 63.9712 343.802 66.7262 343.42 69.5703C343.309 70.2908 343.246 71.0179 343.233 71.7465C343.173 72.4763 343.158 73.2088 343.188 73.9403C343.382 78.6288 344.878 83.1767 347.514 87.094V86.823C346.274 89.8558 345.052 92.8362 343.857 95.7378L343.643 96.271L344.205 96.1137L353.928 93.4917L353.696 93.4392C356.97 95.8682 360.785 97.5034 364.828 98.2113C366.704 98.5538 368.615 98.6683 370.519 98.5521C371.437 98.5387 372.353 98.454 373.257 98.2987L374.587 98.0976C375.024 98.019 375.479 97.8879 375.871 97.7917C381.863 96.3041 387.118 92.7751 390.696 87.8369C392.031 86.0177 393.102 84.0265 393.88 81.9199C394.05 81.4567 394.211 81.0459 394.362 80.5914C394.514 80.1369 394.594 79.7174 394.692 79.3241C394.79 78.9308 394.897 78.5288 394.987 78.1617C395.076 77.7946 395.103 77.4363 395.156 77.0954C395.236 76.4224 395.361 75.8281 395.388 75.3474C395.415 74.8667 395.388 74.4035 395.388 74.0364C395.388 73.6693 395.388 73.4421 395.388 73.2411C395.388 73.0401 395.388 72.9701 395.388 72.9701C395.374 73.06 395.374 73.1513 395.388 73.2411C395.388 73.4421 395.388 73.7043 395.326 74.0364C395.263 74.3685 395.272 74.8318 395.236 75.3387C395.201 75.8456 395.067 76.4399 394.96 77.0867C394.109 81.9239 391.843 86.415 388.437 90.0145C385.031 93.614 380.631 96.167 375.773 97.3635C375.354 97.4596 374.934 97.582 374.506 97.6606L373.195 97.8529C372.31 97.9976 371.416 98.0765 370.519 98.0889C368.65 98.1854 366.775 98.0652 364.935 97.7306C360.987 97.0186 357.263 95.4113 354.062 93.0372L353.955 92.9498H353.821L344.089 95.5718L344.428 95.9476L348.094 87.0415L348.148 86.9017L348.067 86.7706C346.311 84.1668 345.065 81.2651 344.392 78.2141C344.084 76.7987 343.899 75.3602 343.839 73.9141C343.809 73.2001 343.824 72.485 343.884 71.7728C343.889 71.0615 343.949 70.3516 344.062 69.6489C344.405 66.8716 345.247 64.1757 346.551 61.6868C347.791 59.2811 349.4 57.0762 351.323 55.1493C353.212 53.34 355.357 51.8065 357.692 50.5957C359.923 49.4587 362.312 48.6489 364.783 48.1922L366.567 47.9213C367.165 47.8339 367.763 47.8426 368.351 47.7989C369.514 47.7447 370.679 47.7652 371.839 47.8601C375.725 48.1934 379.482 49.3898 382.825 51.3586C386.168 53.3273 389.009 56.0165 391.133 59.2221C392.605 61.3996 393.708 63.7963 394.398 66.319L394.799 67.7873C394.88 68.2505 394.951 68.6613 395.022 69.0983C395.094 69.5353 395.147 69.8849 395.21 70.2345C395.272 70.5841 395.254 70.8988 395.281 71.1784C395.281 71.7203 395.352 72.1486 395.379 72.4632C395.362 72.6209 395.371 72.7803 395.406 72.9352Z" fill="#263238"/>
<path d="M129.402 176.006H180.915C180.915 176.006 180.915 133.626 225.863 132.874C249.207 132.472 261.311 147.461 266.235 158.937C271.944 172.265 270.214 187.455 262.56 199.823C253.828 213.938 235.006 228.123 200.29 222.127L199.96 334.585H250.902V267.916C250.902 267.916 322.342 249.824 322.342 172.65C322.342 98.8406 261.427 82.8988 228.682 81.8675C210.467 81.2994 203.867 80.5303 181.335 83.668C152.621 87.6884 128.796 120.358 129.402 176.006Z" fill="#88786C"/>
<path d="M251.517 358.025H199.817V405.335H251.517V358.025Z" fill="#88786C"/>
<path opacity="0.1" d="M251.517 358.025H199.817V405.335H251.517V358.025Z" fill="black"/>
<path opacity="0.1" d="M129.402 176.006H180.915C180.915 176.006 180.915 133.626 225.863 132.874C249.207 132.472 261.311 147.461 266.235 158.937C271.944 172.265 270.214 187.455 262.56 199.823C253.828 213.938 235.006 228.123 200.29 222.127L199.96 334.585H250.902V267.916C250.902 267.916 322.342 249.824 322.342 172.65C322.342 98.8406 261.427 82.8988 228.682 81.8675C210.467 81.2994 203.867 80.5303 181.335 83.668C152.621 87.6884 128.796 120.358 129.402 176.006Z" fill="black"/>
<path d="M108.057 176.006H159.579C159.579 176.006 159.579 133.626 204.527 132.874C227.87 132.472 239.975 147.461 244.89 158.937C250.607 172.265 248.877 187.455 241.224 199.823C232.491 213.938 213.34 226.768 178.623 220.799V334.585H229.565V267.916C229.565 267.916 301.005 249.824 301.005 172.65C301.005 98.8405 233.445 81.7014 204.536 81.7014C182.423 81.7276 107.085 86.9629 108.057 176.006Z" fill="#88786C"/>
<path opacity="0.3" d="M108.057 176.006H159.579C159.579 176.006 159.579 133.626 204.527 132.874C227.87 132.472 239.975 147.461 244.89 158.937C250.607 172.265 248.877 187.455 241.224 199.823C232.491 213.938 213.34 226.768 178.623 220.799V334.585H229.565V267.916C229.565 267.916 301.005 249.824 301.005 172.65C301.005 98.8405 233.445 81.7014 204.536 81.7014C182.423 81.7276 107.085 86.9629 108.057 176.006Z" fill="black"/>
<path d="M230.181 358.025H178.48V405.335H230.181V358.025Z" fill="#88786C"/>
<path opacity="0.3" d="M230.181 358.025H178.48V405.335H230.181V358.025Z" fill="black"/>
<path d="M210.343 133.101C210.087 133.123 209.831 133.123 209.575 133.101C209.067 133.101 208.336 132.935 207.381 132.927C204.683 132.797 201.978 132.908 199.3 133.259C195.328 133.751 191.421 134.651 187.641 135.942C185.413 136.705 183.243 137.622 181.147 138.686C178.882 139.795 176.749 141.147 174.787 142.715C172.839 144.298 171.093 146.106 169.587 148.099C168.16 149.942 166.857 151.875 165.689 153.885C163.738 157.309 162.191 160.939 161.077 164.705C160.322 167.247 159.803 169.851 159.525 172.484C159.418 173.41 159.391 174.144 159.365 174.634C159.365 174.886 159.341 175.138 159.293 175.386C159.27 175.135 159.27 174.884 159.293 174.634C159.293 174.136 159.293 173.402 159.374 172.466C159.579 169.805 160.054 167.17 160.792 164.6C161.865 160.791 163.392 157.118 165.341 153.658C166.512 151.626 167.82 149.672 169.257 147.811C170.776 145.785 172.543 143.95 174.52 142.348C176.505 140.758 178.665 139.389 180.96 138.267C183.069 137.183 185.254 136.248 187.498 135.47C191.312 134.184 195.257 133.304 199.264 132.848C201.96 132.523 204.682 132.462 207.39 132.664C208.126 132.711 208.859 132.798 209.584 132.927C209.841 132.967 210.094 133.026 210.343 133.101Z" fill="#263238"/>
<path d="M287.964 124.108C287.964 124.108 287.902 124.047 287.795 123.916C287.688 123.784 287.527 123.557 287.349 123.304L285.645 120.944C285.279 120.437 284.887 119.851 284.423 119.248L282.817 117.334L280.98 115.123C280.311 114.354 279.526 113.611 278.741 112.798C277.956 111.985 277.153 111.12 276.243 110.29C275.334 109.46 274.361 108.612 273.362 107.738C272.863 107.301 272.372 106.864 271.837 106.401L270.178 105.116C269.045 104.242 267.921 103.368 266.699 102.494C261.373 98.7598 255.722 95.4902 249.813 92.7225L245.113 90.6424L240.447 88.8944C238.922 88.2739 237.37 87.8369 235.872 87.3474C234.373 86.858 232.91 86.3598 231.412 86.0189L227.148 84.9264C225.765 84.5681 224.391 84.3496 223.08 84.0524C221.769 83.7553 220.502 83.4931 219.262 83.3445L215.694 82.8376C213.438 82.4618 211.368 82.3831 209.566 82.2083C208.674 82.1384 207.782 82.0422 207.042 82.0073L204.919 81.9548L201.976 81.8587H201.208H200.95C201.035 81.8456 201.123 81.8456 201.208 81.8587H201.976H204.919H207.051C207.827 81.8587 208.674 81.9636 209.584 82.0248C211.368 82.1733 213.473 82.2345 215.73 82.5929L219.298 83.0648C220.538 83.2047 221.805 83.5193 223.125 83.7553C224.445 83.9913 225.801 84.236 227.219 84.6293L231.501 85.713C232.981 86.0452 234.444 86.587 235.961 87.0328C237.477 87.4785 239.02 87.9068 240.546 88.571L245.237 90.319L249.965 92.4079C255.905 95.1819 261.578 98.4756 266.913 102.249C268.144 103.123 269.268 104.058 270.401 104.924L272.06 106.103C272.595 106.54 273.086 106.977 273.585 107.449L276.457 110.071C277.349 110.945 278.152 111.819 278.946 112.615C279.74 113.41 280.498 114.188 281.167 114.966L282.951 117.195L284.539 119.135C284.994 119.747 285.377 120.341 285.734 120.883C286.43 121.905 286.974 122.709 287.358 123.286L287.777 123.924C287.847 123.977 287.91 124.039 287.964 124.108Z" fill="#263238"/>
<path d="M282.595 232.484C282.489 232.673 282.36 232.849 282.211 233.008L280.98 234.433C280.472 235.071 279.829 235.831 279.035 236.679C278.242 237.527 277.394 238.523 276.359 239.555C275.325 240.586 274.219 241.74 272.961 242.902C271.703 244.064 270.338 245.288 268.884 246.564C262.507 252.018 255.516 256.742 248.047 260.644C246.317 261.518 244.685 262.392 243.106 263.065C241.527 263.738 240.055 264.429 238.699 264.988C237.343 265.547 236.095 266.011 235.006 266.421C233.918 266.832 232.964 267.164 232.179 267.409L230.395 267.977C230.188 268.058 229.972 268.116 229.752 268.152C229.945 268.044 230.148 267.956 230.359 267.89L232.143 267.243C232.919 266.972 233.856 266.622 234.935 266.185C236.014 265.748 237.263 265.311 238.601 264.691C239.939 264.07 241.42 263.485 242.963 262.724C244.506 261.964 246.156 261.16 247.878 260.277C251.276 258.442 254.943 256.292 258.644 253.809C262.346 251.327 265.673 248.714 268.635 246.249C270.089 244.991 271.48 243.811 272.72 242.622C273.96 241.434 275.12 240.359 276.145 239.327C277.171 238.296 278.072 237.343 278.875 236.504C279.678 235.665 280.338 234.931 280.873 234.319L282.122 232.93C282.267 232.769 282.425 232.62 282.595 232.484Z" fill="#263238"/>
<path d="M228.664 330.617C228.53 330.617 228.423 316.58 228.423 299.266C228.423 281.952 228.53 267.907 228.664 267.907C228.798 267.907 228.896 281.944 228.896 299.266C228.896 316.589 228.789 330.617 228.664 330.617Z" fill="#263238"/>
<path d="M230.627 402.127C230.493 402.127 230.395 392.277 230.395 380.129C230.395 367.98 230.493 358.121 230.627 358.121C230.76 358.121 230.858 367.971 230.858 380.129C230.858 392.286 230.751 402.127 230.627 402.127Z" fill="#263238"/>
<path d="M281.337 169.302C280.445 171.05 283.772 172.484 285.69 173.052C287.646 173.522 289.671 173.658 291.675 173.454C294.351 173.314 297.089 173.069 299.4 171.776C301.423 170.548 303.04 168.772 304.056 166.663C305.058 164.561 305.849 162.368 306.42 160.117C306.42 160.117 285.342 161.463 281.337 169.302Z" fill="#88786C"/>
<g opacity="0.4">
<path d="M281.337 169.302C280.445 171.05 283.772 172.484 285.69 173.052C287.646 173.522 289.671 173.658 291.675 173.454C294.351 173.314 297.089 173.069 299.4 171.776C301.423 170.548 303.04 168.772 304.056 166.663C305.058 164.561 305.849 162.368 306.42 160.117C306.42 160.117 285.342 161.463 281.337 169.302Z" fill="black"/>
</g>
<path d="M340.869 163.709C344.344 166.124 348.508 167.402 352.768 167.362C354.81 167.474 356.824 166.852 358.432 165.614C359.119 164.994 359.637 164.207 360.341 163.613C360.823 163.211 361.385 162.905 361.84 162.477C362.08 162.274 362.265 162.016 362.379 161.727C362.492 161.437 362.531 161.124 362.491 160.816C362.315 160.057 361.881 159.379 361.26 158.893C358.843 157.547 355.953 157.6 353.17 157.661C350.384 157.779 347.633 158.306 345.008 159.225C342.849 159.942 340.592 160.973 339.495 162.896" fill="#88786C"/>
<g opacity="0.4">
<path d="M362.491 160.816C362.176 160.079 361.621 159.464 360.912 159.068C358.495 157.722 355.953 157.6 353.17 157.661C350.384 157.779 347.633 158.306 345.008 159.225C342.849 159.942 340.592 160.973 339.495 162.896L340.869 163.709C344.344 166.124 348.508 167.402 352.768 167.362C354.81 167.474 356.824 166.852 358.432 165.614C359.119 164.994 359.637 164.207 360.341 163.613C360.823 163.211 361.385 162.905 361.84 162.476C362.08 162.274 362.265 162.016 362.379 161.726C362.492 161.437 362.531 161.124 362.491 160.816Z" fill="black"/>
</g>
<path d="M299.712 195.077L344.178 195.653C344.269 195.653 344.358 195.632 344.439 195.592C344.519 195.552 344.59 195.494 344.643 195.423C344.697 195.351 344.733 195.269 344.748 195.181C344.764 195.094 344.758 195.004 344.731 194.919L339.513 178.977C339.513 178.977 340.28 171.007 341.342 161.428C342.956 146.875 345.106 128.583 345.133 128.635C342.091 120.28 324.144 118.864 324.144 118.864L303.69 120.052L302.977 118.873L297.09 121.556C295.805 122.141 294.571 122.825 293.397 123.601C289.508 126.144 280.142 131.991 278.429 138.503C274.477 153.579 281.167 170.404 281.167 170.404L285.467 167.109C286.55 166.291 287.688 165.546 288.874 164.88L297.491 187.508C296.978 187.824 296.544 188.249 296.22 188.751C295.896 189.253 295.69 189.82 295.618 190.409C295.546 192.245 296.51 194.447 299.712 195.077Z" fill="#88786C"/>
<g opacity="0.3">
<path d="M318.792 168.402C320.201 160.973 319.461 153.335 318.703 145.818C316.241 151.936 316.33 158.928 313.716 164.994C313.396 165.634 313.162 166.313 313.021 167.013C312.953 167.364 312.97 167.726 313.073 168.07C313.175 168.413 313.359 168.728 313.609 168.988C314.323 169.626 315.393 169.276 316.339 169.171C317.185 169.013 318.009 168.755 318.792 168.402Z" fill="black"/>
</g>
<g opacity="0.4">
<path d="M302.388 185.603C305.956 186.818 309.756 184.554 313.529 184.152C316.027 183.89 318.524 184.449 321.004 184.842C326.018 185.637 331.12 185.761 336.168 185.209C336.943 185.168 337.701 184.974 338.398 184.641C338.758 184.401 339.053 184.077 339.257 183.7C339.46 183.322 339.567 182.901 339.567 182.474C331.164 181.6 322.77 181.128 314.368 180.28C312.276 179.93 310.134 179.999 308.07 180.481C305.537 181.25 303.61 183.199 301.826 185.131" fill="black"/>
</g>
<path d="M361.206 157.949C357.576 149.935 344.776 127.77 344.776 127.77L334.866 139.945L337.176 163.849C337.176 163.849 342.412 158.124 357.05 158.01C358.114 158.052 359.154 158.326 360.096 158.813C361.037 159.3 361.856 159.988 362.491 160.825L361.206 157.949Z" fill="#88786C"/>
<path d="M301.701 153.71C300.994 152.011 300.433 150.257 300.024 148.466C299.47 146.722 299.064 144.936 298.811 143.126C299.508 144.828 300.065 146.582 300.479 148.37C301.033 150.115 301.442 151.901 301.701 153.71Z" fill="#263238"/>
<path d="M334.116 138.328C334.439 138.551 334.738 138.806 335.008 139.088C335.797 139.834 336.535 140.628 337.221 141.466C339.527 144.228 341.148 147.477 341.957 150.957C342.377 152.881 342.47 154.859 342.234 156.813C342.011 158.605 341.663 160.178 341.431 161.506C341.199 162.835 341.056 163.919 340.985 164.67C340.983 165.061 340.941 165.45 340.86 165.833C340.797 165.443 340.779 165.047 340.806 164.653C340.846 163.582 340.947 162.514 341.11 161.454C341.297 160.117 341.609 158.526 341.814 156.769C342.021 154.86 341.915 152.93 341.502 151.053C340.703 147.638 339.154 144.435 336.962 141.667C335.33 139.517 334.045 138.398 334.116 138.328Z" fill="#263238"/>
<path d="M325.036 193.154C324.726 193.289 324.399 193.383 324.064 193.433C323.683 193.532 323.295 193.605 322.904 193.652C322.449 193.713 321.932 193.809 321.352 193.835C319.993 193.958 318.625 193.958 317.267 193.835C315.604 193.668 313.961 193.346 312.361 192.874C310.768 192.373 309.227 191.726 307.758 190.943C306.567 190.291 305.435 189.54 304.377 188.696C303.913 188.347 303.539 187.98 303.2 187.674C302.907 187.416 302.63 187.141 302.37 186.852C302.122 186.627 301.909 186.368 301.737 186.083C301.799 186.022 302.754 187.071 304.582 188.443C305.651 189.239 306.781 189.952 307.963 190.575C309.416 191.323 310.932 191.946 312.494 192.437C314.067 192.901 315.679 193.229 317.311 193.416C318.644 193.557 319.986 193.597 321.325 193.538C323.618 193.416 325.018 193.084 325.036 193.154Z" fill="#263238"/>
<path d="M338.764 188.19C338.974 188.585 339.092 189.021 339.112 189.466C339.254 190.531 339.172 191.614 338.871 192.647C338.564 193.704 337.943 194.647 337.087 195.356C336.436 195.89 335.936 196.056 335.909 196.012C335.883 195.968 336.302 195.68 336.864 195.138C337.585 194.401 338.109 193.5 338.389 192.516C339.103 190.209 338.594 188.198 338.764 188.19Z" fill="#263238"/>
<path d="M336.346 191.266C336.54 192.165 336.463 193.1 336.124 193.956C335.785 194.813 335.199 195.554 334.438 196.091C334.339 195.994 335.169 195.129 335.686 193.792C336.204 192.455 336.213 191.275 336.346 191.266Z" fill="#263238"/>
<path d="M328.39 162.511C327.917 163.294 327.387 164.042 326.802 164.749C326.341 165.538 325.819 166.292 325.241 167.004C325.412 166.081 325.817 165.216 326.419 164.487C326.894 163.675 327.572 162.995 328.39 162.511Z" fill="#263238"/>
<path d="M297.866 141.343C297.186 140.952 296.528 140.526 295.894 140.067C292.722 138.025 289.122 136.708 285.36 136.213C284.572 136.157 283.789 136.054 283.014 135.907C283.804 135.8 284.605 135.8 285.395 135.907C289.26 136.23 292.961 137.581 296.099 139.814C296.758 140.241 297.352 140.755 297.866 141.343Z" fill="#263238"/>
<path d="M344.776 127.481C343.179 128.741 341.688 130.124 340.316 131.615C339.052 133.208 337.922 134.897 336.935 136.667C337.041 136.072 337.249 135.499 337.551 134.972C338.196 133.661 339.005 132.434 339.959 131.318C340.915 130.205 342.013 129.215 343.224 128.373C343.685 127.99 344.21 127.689 344.776 127.481Z" fill="#263238"/>
<path d="M326.419 120.28C326.5 120.406 326.566 120.541 326.615 120.682C326.789 121.078 326.929 121.487 327.034 121.905C327.41 123.463 327.41 125.085 327.034 126.643C326.479 128.968 325.208 131.07 323.395 132.664C321.105 134.565 318.188 135.584 315.188 135.531C312.186 135.541 309.26 134.6 306.848 132.848C304.926 131.41 303.367 129.559 302.29 127.438C301.565 126.017 301.054 124.501 300.774 122.937C300.692 122.515 300.638 122.089 300.613 121.661C300.588 121.51 300.588 121.357 300.613 121.206C300.613 121.206 300.711 121.818 300.961 122.902C301.308 124.422 301.856 125.891 302.593 127.272C303.681 129.329 305.227 131.121 307.116 132.516C309.44 134.202 312.251 135.12 315.144 135.138C318.035 135.19 320.849 134.222 323.074 132.411C324.826 130.875 326.068 128.859 326.642 126.625C327.038 125.117 327.093 123.542 326.802 122.01C326.633 120.857 326.365 120.297 326.419 120.28Z" fill="#263238"/>
<g opacity="0.3">
<path d="M329.541 164.058C329.541 163.621 329.469 163.106 329.077 162.887C328.952 162.826 328.815 162.794 328.675 162.794C328.536 162.794 328.398 162.826 328.274 162.887C328.024 163.019 327.803 163.197 327.623 163.412C326.574 164.481 325.763 165.752 325.241 167.144L329.612 166.768C329.585 165.885 329.567 164.959 329.541 164.058Z" fill="black"/>
</g>
<g opacity="0.3">
<path d="M344.053 155.047C343.614 152.597 342.518 150.304 340.878 148.405C342.769 154.453 342.136 157.87 341.074 162.013L341.306 161.436C342.528 159.015 344.383 157.495 344.053 155.047Z" fill="black"/>
</g>
<path d="M335.321 358.217L332.654 397.416L315.26 397.215L312.521 356.461L335.321 358.217Z" fill="#FFBE9D"/>
<path d="M333.144 392.26V393.396C333.144 393.396 352.768 401.122 352.955 404.758L313.984 404.548L314.591 391.849C320.397 394.515 326.472 394.847 333.144 392.26Z" fill="#88786C"/>
<path d="M318.542 395.922C318.172 396.031 317.856 396.269 317.652 396.591C317.449 396.913 317.372 397.297 317.436 397.67C317.531 398.043 317.771 398.365 318.103 398.569C318.436 398.772 318.836 398.842 319.22 398.762C319.617 398.646 319.956 398.389 320.17 398.042C320.384 397.695 320.459 397.282 320.38 396.883C320.238 396.506 319.953 396.197 319.583 396.023C319.213 395.848 318.789 395.821 318.399 395.948" fill="white"/>
<path d="M313.984 404.548L314.127 401.498L351.448 402.827C351.448 402.827 353.178 403.578 352.973 404.767L313.984 404.548Z" fill="#263238"/>
<path d="M333.287 393.501C333.287 393.685 332.324 393.763 331.387 394.375C330.45 394.987 329.942 395.747 329.772 395.677C329.603 395.607 329.888 394.524 331.039 393.824C332.19 393.125 333.331 393.3 333.287 393.501Z" fill="#263238"/>
<path d="M337.363 395.179C337.408 395.363 336.578 395.669 335.927 396.455C335.276 397.242 335.089 398.072 334.892 398.063C334.696 398.055 334.589 396.997 335.419 396.044C336.248 395.092 337.354 395.048 337.363 395.179Z" fill="#263238"/>
<path d="M339.656 399.986C339.477 399.986 339.219 399.112 339.718 398.072C340.218 397.032 341.101 396.656 341.181 396.805C341.261 396.953 340.708 397.504 340.289 398.352C339.87 399.199 339.852 399.968 339.656 399.986Z" fill="#263238"/>
<path d="M332.145 71.5368C333.153 69.0896 331.931 66.1267 329.763 64.5448C327.479 63.0713 324.694 62.5406 322.012 63.0677C319.367 63.6112 316.805 64.4928 314.394 65.6897C313.273 64.5818 311.86 63.801 310.312 63.4346C308.764 63.0682 307.143 63.1305 305.629 63.6146C304.115 64.0988 302.769 64.9856 301.74 66.1762C300.71 67.3668 300.039 68.8142 299.801 70.3569C298.837 70.119 297.824 70.143 296.873 70.4261C295.921 70.7093 295.066 71.241 294.4 71.9642C293.733 72.6874 293.28 73.5748 293.089 74.5311C292.898 75.4874 292.977 76.4767 293.316 77.3926L305.376 81.5441L318.542 104.268C320.488 105.895 322.971 106.772 325.529 106.737C328.086 106.701 330.543 105.755 332.441 104.075C334.339 102.395 335.548 100.096 335.844 97.6067C336.139 95.1174 335.499 92.6078 334.045 90.5463C334.783 89.9035 335.409 89.1479 335.9 88.3089C336.953 87.6992 337.87 86.8908 338.601 85.9306C339.331 84.9703 339.86 83.8773 340.155 82.7153C341.324 77.6548 337.328 72.1311 332.145 71.5368Z" fill="#263238"/>
<path d="M324.162 118.864C323.412 115.167 322.895 112.632 322.904 112.659C322.913 112.685 330.04 109.949 329.523 100.222C329.273 95.3796 327.391 87.7495 325.642 81.5616C324.073 75.9855 318.765 69.8413 313.154 71.6155L296.144 79.7437C294.44 80.2856 294.146 81.8588 294.547 83.5631V84.4371L301.157 111.234L303.949 123.208C304.544 125.666 306.057 127.818 308.19 129.238C310.323 130.658 312.922 131.244 315.474 130.881C316.867 130.689 318.206 130.22 319.409 129.503C320.611 128.785 321.65 127.835 322.464 126.709C323.278 125.584 323.848 124.308 324.14 122.958C324.432 121.609 324.439 120.216 324.162 118.864Z" fill="#FFBE9D"/>
<path d="M325.58 88.0292C325.652 88.3393 325.599 88.6645 325.433 88.9377C325.267 89.2109 325 89.4113 324.688 89.4975C324.53 89.5407 324.365 89.5521 324.203 89.5311C324.041 89.5102 323.885 89.4573 323.744 89.3757C323.603 89.294 323.481 89.1853 323.384 89.056C323.287 88.9268 323.218 88.7797 323.18 88.6235C323.109 88.3145 323.162 87.9905 323.328 87.7187C323.494 87.4469 323.761 87.2483 324.072 87.164C324.23 87.1194 324.394 87.1067 324.556 87.1265C324.719 87.1463 324.875 87.1983 325.016 87.2793C325.157 87.3602 325.28 87.4685 325.377 87.5974C325.474 87.7263 325.543 87.8732 325.58 88.0292Z" fill="#263238"/>
<path d="M324.804 86.1674C324.679 86.3597 323.6 85.879 322.28 86.1674C320.959 86.4558 320.121 87.2949 319.942 87.1638C319.764 87.0327 319.942 86.788 320.308 86.4034C320.799 85.8953 321.437 85.5474 322.137 85.407C322.827 85.2612 323.546 85.3379 324.188 85.6255C324.688 85.8266 324.857 86.0888 324.804 86.1674Z" fill="#263238"/>
<path d="M312.628 90.8958C312.699 91.2048 312.647 91.5288 312.48 91.8006C312.314 92.0724 312.048 92.2711 311.736 92.3554C311.582 92.3993 311.421 92.4129 311.261 92.3953C311.102 92.3777 310.948 92.3293 310.807 92.2529C310.667 92.1765 310.544 92.0736 310.445 91.9502C310.345 91.8267 310.272 91.6852 310.229 91.5338C310.157 91.2237 310.21 90.8985 310.376 90.6253C310.542 90.3521 310.808 90.1517 311.121 90.0655C311.275 90.0217 311.437 90.0085 311.597 90.0267C311.757 90.0449 311.912 90.094 312.052 90.1713C312.192 90.2486 312.315 90.3524 312.414 90.4768C312.513 90.6012 312.586 90.7436 312.628 90.8958Z" fill="#263238"/>
<path d="M311.977 89.2527C311.861 89.445 310.773 88.9555 309.453 89.2527C308.132 89.5498 307.294 90.3714 307.116 90.249C306.937 90.1267 307.116 89.8732 307.481 89.4799C307.974 88.9764 308.612 88.6319 309.31 88.4923C309.999 88.3487 310.717 88.4221 311.362 88.7021C311.834 88.9118 312.039 89.1478 311.977 89.2527Z" fill="#263238"/>
<path d="M318.694 97.4683C319.348 97.1148 320.043 96.839 320.763 96.6467C321.093 96.5418 321.405 96.4107 321.414 96.1747C321.368 95.8271 321.215 95.5013 320.977 95.2396L319.434 92.9147C317.275 89.6023 315.634 86.8579 315.768 86.7967C315.902 86.7355 317.766 89.3313 319.925 92.6438L321.432 94.9861C321.728 95.3446 321.889 95.7922 321.887 96.2534C321.86 96.3791 321.806 96.4976 321.727 96.6003C321.649 96.703 321.548 96.7875 321.432 96.8477C321.258 96.9382 321.072 97.0058 320.879 97.0487C320.174 97.2854 319.438 97.4266 318.694 97.4683Z" fill="#263238"/>
<path d="M322.904 112.659C318.392 113.658 313.686 113.41 309.31 111.942C309.31 111.942 313.984 117.92 323.412 115.062L322.904 112.659Z" fill="#EB996E"/>
<path d="M312.2 87.3999C312.111 87.7757 310.746 87.767 309.194 88.1428C307.642 88.5186 306.411 89.0867 306.161 88.7896C306.054 88.6497 306.232 88.2827 306.705 87.9156C307.334 87.3971 308.08 87.0344 308.882 86.858C309.676 86.6733 310.504 86.6733 311.299 86.858C311.932 86.9717 312.262 87.2251 312.2 87.3999Z" fill="#263238"/>
<path d="M324.296 82.0422C324.081 82.3918 322.94 82.3044 321.62 82.5578C320.299 82.8113 319.256 83.2483 318.944 82.9948C318.801 82.8637 318.944 82.5316 319.327 82.1208C319.916 81.6355 320.628 81.3153 321.388 81.1944C322.135 81.0469 322.909 81.1013 323.627 81.3517C324.171 81.5964 324.385 81.8674 324.296 82.0422Z" fill="#263238"/>
<path d="M300.345 73.4859C300.543 74.4327 300.95 75.3253 301.54 76.1002C302.129 76.8752 302.885 77.5135 303.754 77.9699C304.624 78.4262 305.585 78.6894 306.57 78.7407C307.555 78.792 308.539 78.6302 309.453 78.2667C310.862 77.7073 312.325 76.6585 313.752 77.1654C315.179 77.6723 315.768 79.6651 317.133 80.408C319.14 81.5092 321.593 79.6039 323.832 79.7962C325.616 79.9448 326.963 81.282 328.345 82.4182C329.728 83.5544 331.637 84.4109 333.198 83.5893C332.84 82.1298 332.31 80.716 331.619 79.3766C330.921 78.0283 329.767 76.9593 328.354 76.3526C327.569 76.0467 326.722 75.9418 325.973 75.566C324.358 74.7619 323.635 72.944 322.467 71.5718C321.7 70.7071 320.733 70.0341 319.647 69.6085C318.561 69.1829 317.387 69.017 316.223 69.1246C314.296 69.3169 312.468 70.2696 310.523 70.1909C309.087 70.1297 307.713 69.5005 306.277 69.5267C303.485 69.5267 301.389 71.9739 299.837 74.255" fill="#263238"/>
<path d="M309.747 75.4872C308.463 75.391 305.84 75.1288 304.975 74.2373C304.096 73.274 302.974 72.5539 301.722 72.1489C300.469 71.744 299.13 71.6685 297.839 71.93C296.557 72.3043 295.432 73.0719 294.629 74.1198C293.826 75.1677 293.388 76.4405 293.379 77.7508C291.818 78.124 290.389 78.9032 289.243 80.0063C288.097 81.1093 287.276 82.4951 286.867 84.0174C286.452 85.611 286.438 87.2796 286.827 88.8796C287.215 90.4797 287.994 91.9634 289.097 93.2031C289.633 93.8597 290.122 94.5518 290.56 95.2745C289.955 96.0097 289.424 96.7999 288.972 97.6343C286.93 102.057 292.469 103.752 292.469 103.752C292.469 106.724 295.279 106.706 297.072 106.698C298.865 106.689 299.855 111.382 301.255 111.199L299.837 96.7166C300.045 96.7958 300.265 96.8372 300.488 96.839C303.869 96.9002 302.986 90.6248 301.897 88.973C302.905 87.7444 303.755 86.4002 304.431 84.9701C305.043 82.7838 305.086 80.4819 304.556 78.2752C305.688 78.1354 310.3 75.5221 309.747 75.4872Z" fill="#263238"/>
<path d="M300.283 97.4859C300.168 97.0257 299.935 96.6016 299.608 96.2531C299.28 95.9047 298.868 95.6432 298.409 95.4931C297.95 95.343 297.46 95.3092 296.985 95.3948C296.509 95.4804 296.063 95.6826 295.689 95.9826C294.797 96.7342 294.324 97.9928 294.859 100.099C296.305 105.728 301.772 103.149 301.737 102.992C301.701 102.835 300.907 99.8107 300.283 97.4859Z" fill="#FFBE9D"/>
<path d="M299.435 101.288C299.435 101.288 299.355 101.384 299.204 101.497C298.993 101.656 298.727 101.728 298.463 101.698C297.803 101.629 297.045 100.824 296.759 99.8019C296.623 99.3241 296.596 98.8229 296.679 98.3336C296.688 98.1435 296.744 97.9584 296.842 97.794C296.94 97.6297 297.077 97.4909 297.241 97.3897C297.349 97.3325 297.475 97.3143 297.595 97.3382C297.716 97.3622 297.824 97.4268 297.901 97.5208C298.017 97.6519 298.008 97.7742 298.044 97.783C298.08 97.7917 298.142 97.6519 298.044 97.4334C297.976 97.3038 297.866 97.1995 297.732 97.1362C297.543 97.0614 297.332 97.0614 297.143 97.1362C296.919 97.2404 296.725 97.3984 296.58 97.5955C296.435 97.7927 296.344 98.0225 296.313 98.2637C296.198 98.8141 296.219 99.3837 296.376 99.9243C296.475 100.432 296.726 100.899 297.096 101.268C297.465 101.636 297.938 101.89 298.454 101.996C298.622 102.002 298.789 101.972 298.944 101.907C299.098 101.842 299.236 101.744 299.346 101.62C299.462 101.428 299.462 101.296 299.435 101.288Z" fill="#EB996E"/>
<path d="M331.084 89.6287C331.084 89.6287 331.61 89.2354 332.341 88.3614C333.351 87.102 333.97 85.5853 334.125 83.9914C334.244 82.9033 334.134 81.803 333.804 80.7576C333.423 79.5584 332.717 78.4831 331.762 77.6461C330.658 76.7019 329.322 76.0568 327.886 75.7747C326.449 75.4926 324.963 75.5834 323.573 76.038C323.305 76.1254 323.056 76.2565 322.806 76.3614C322.556 76.4662 322.333 76.6236 322.101 76.7547L321.744 76.9469V76.5624C321.737 75.8853 321.48 75.2337 321.022 74.727C320.552 74.2352 319.976 73.8529 319.336 73.6083C318.124 73.1136 316.782 73.0155 315.509 73.3286C313.047 73.8792 310.96 74.9804 308.989 75.2077C307.443 75.4709 305.852 75.1592 304.529 74.3337C304.179 74.0982 303.877 73.802 303.637 73.4597C303.494 73.2237 303.423 73.0926 303.441 73.0839C303.764 73.5154 304.159 73.8907 304.609 74.1938C305.911 74.9304 307.441 75.1818 308.917 74.9018C309.945 74.7124 310.949 74.4195 311.915 74.0278C313.048 73.5837 314.21 73.213 315.393 72.9178C316.053 72.7614 316.731 72.6938 317.409 72.7168C318.125 72.7538 318.828 72.9136 319.488 73.1887C320.17 73.4743 320.779 73.904 321.272 74.4473C321.799 75.039 322.096 75.7943 322.11 76.5799L321.753 76.3876L322.494 75.9681C322.77 75.8632 323.029 75.7233 323.314 75.6272C324.779 75.1358 326.35 75.033 327.868 75.3292C329.386 75.6255 330.797 76.3103 331.958 77.314C332.961 78.2039 333.695 79.3467 334.081 80.6177C334.481 81.9648 334.535 83.388 334.238 84.7605C333.94 86.133 333.301 87.4121 332.377 88.4837C332.083 88.8122 331.751 89.1056 331.387 89.3577C331.297 89.4597 331.196 89.5507 331.084 89.6287Z" fill="#455A64"/>
<path d="M329.924 69.8674C329.338 69.5762 328.714 69.3673 328.069 69.2469C327.331 69.1481 326.58 69.2169 325.874 69.4479C324.96 69.722 324.165 70.2881 323.618 71.0561L323.395 71.362L323.261 71.0124C322.795 69.938 322.045 69.0047 321.089 68.3088C320.133 67.6129 319.004 67.1794 317.82 67.0532C315.959 66.9846 314.126 67.5057 312.593 68.539C311.286 69.3736 309.896 70.0764 308.445 70.6366C307.444 71.0074 306.366 71.1334 305.305 71.0036C305.022 70.9525 304.744 70.8764 304.475 70.7764C304.297 70.6977 304.199 70.654 304.208 70.6366C304.217 70.6191 304.609 70.7502 305.332 70.8201C306.358 70.8829 307.385 70.7186 308.338 70.3394C309.748 69.7368 311.1 69.0114 312.378 68.1719C313.168 67.6916 314.005 67.2904 314.876 66.9745C315.834 66.6322 316.858 66.5038 317.873 66.5987C319.138 66.734 320.342 67.203 321.357 67.9555C322.372 68.7081 323.159 69.7162 323.635 70.8725H323.288C323.901 70.0512 324.777 69.4544 325.776 69.177C326.536 68.9613 327.336 68.9224 328.113 69.0634C328.605 69.1549 329.077 69.3326 329.505 69.5878C329.657 69.6609 329.799 69.7551 329.924 69.8674Z" fill="#455A64"/>
<path d="M318.176 100.055C317.968 99.8847 317.725 99.7591 317.464 99.6868C317.203 99.6145 316.929 99.5971 316.66 99.6358C316.346 99.7015 316.049 99.8312 315.79 100.016C315.53 100.202 315.313 100.438 315.153 100.711C315.153 100.711 315.108 100.755 315.099 100.781C314.976 100.98 314.92 101.213 314.938 101.445C314.977 101.698 315.079 101.938 315.234 102.144C315.39 102.35 315.595 102.515 315.83 102.625C316.207 102.812 316.634 102.881 317.053 102.821C317.471 102.762 317.86 102.577 318.168 102.293C318.459 101.991 318.622 101.591 318.624 101.176C318.626 100.76 318.466 100.359 318.176 100.055Z" fill="#88786C"/>
<path d="M318.622 102.773C318.551 102.773 318.471 102.511 318.23 102.153C317.94 101.673 317.506 101.291 316.988 101.06C316.47 100.828 315.891 100.758 315.331 100.859C314.894 100.921 314.626 101.043 314.599 100.982C314.573 100.921 314.778 100.711 315.26 100.545C315.89 100.346 316.573 100.383 317.177 100.65C317.787 100.916 318.269 101.4 318.524 102.004C318.712 102.459 318.685 102.765 318.622 102.773Z" fill="#263238"/>
<path d="M300.417 103.857C300.417 103.857 300.675 104.294 300.336 104.959C300.145 105.356 299.807 105.668 299.391 105.833C299.131 105.924 298.853 105.955 298.579 105.923C298.306 105.891 298.043 105.797 297.812 105.649C297.577 105.509 297.379 105.318 297.232 105.091C297.085 104.863 296.993 104.606 296.965 104.338C296.938 103.906 297.067 103.479 297.33 103.132C297.794 102.555 298.312 102.538 298.312 102.59C298.312 102.643 297.919 102.791 297.607 103.315C297.426 103.609 297.351 103.954 297.393 104.294C297.426 104.494 297.503 104.684 297.619 104.851C297.734 105.019 297.885 105.16 298.062 105.265C298.236 105.374 298.432 105.446 298.636 105.476C298.84 105.506 299.049 105.493 299.248 105.439C299.578 105.324 299.862 105.11 300.06 104.828C300.408 104.286 300.345 103.857 300.417 103.857Z" fill="#88786C"/>
<path d="M297.411 103.516C297.455 103.516 297.411 103.814 296.991 104.006C296.785 104.09 296.559 104.114 296.34 104.076C296.12 104.038 295.916 103.939 295.752 103.791C295.588 103.643 295.47 103.452 295.413 103.241C295.356 103.03 295.362 102.807 295.43 102.599C295.518 102.362 295.684 102.162 295.903 102.031C296.269 101.812 296.545 101.9 296.536 101.952C296.528 102.004 296.322 102.066 296.099 102.284C295.99 102.418 295.923 102.581 295.907 102.753C295.892 102.924 295.928 103.096 296.012 103.247C296.096 103.399 296.223 103.522 296.378 103.603C296.534 103.683 296.71 103.717 296.884 103.7C297.188 103.639 297.348 103.481 297.411 103.516Z" fill="#88786C"/>
<path d="M307.214 181.136C307.214 181.136 329.3 182.395 342.358 182.508C352.465 182.605 356.978 179.974 358.994 173.602C360.689 168.262 357.05 158.01 357.05 158.01C350.208 158.01 345.989 158.972 341.591 160.991L342.76 165.675L307.151 168.682L307.214 181.136Z" fill="#FFBE9D"/>
<path d="M350.181 170.675C349.224 169.454 348.105 168.364 346.854 167.432C345.513 166.628 344.066 166.005 342.555 165.579C343.031 165.512 343.516 165.554 343.973 165.702C345.095 165.961 346.16 166.421 347.113 167.056C348.068 167.694 348.894 168.5 349.548 169.434C350.048 170.15 350.235 170.648 350.181 170.675Z" fill="#EB996E"/>
<path d="M299.132 160.956C299.132 160.956 292.299 162.564 287.277 165.85L292.629 180.061C294.413 184.729 299.864 187.053 304.225 184.606C310.942 180.839 313.315 169.862 313.315 169.862L320.692 138.503L308.462 130.995L299.177 160.956" fill="#FFBE9D"/>
<path d="M308.418 130.995L308.917 120.682L306.179 110.194C306.027 109.617 305.956 108.892 306.438 108.542C306.677 108.363 306.971 108.27 307.272 108.279C307.573 108.289 307.861 108.4 308.088 108.594C308.828 109.346 312.396 118.514 312.396 118.514C312.396 118.514 317.811 115.333 318.774 115.176C319.737 115.018 320.942 117.876 321.022 118.095C321.057 118.735 321.057 119.377 321.022 120.018C321.022 120.018 324.367 120.114 324.67 120.559C324.913 121.47 325.042 122.406 325.054 123.348C325.054 123.348 326.472 123.793 326.695 124.842C326.918 125.891 327.382 127.621 326.695 128.006C326.008 128.391 324.617 129.142 324.617 129.142C324.617 129.142 324.055 134.491 323.903 134.98C323.751 135.47 320.62 138.476 320.62 138.476L308.418 130.995Z" fill="#FFBE9D"/>
<path d="M297.036 184.816C297.036 184.816 297.366 185.008 298.062 185.227C299.079 185.539 300.156 185.623 301.211 185.471C302.905 185.235 304.493 184.518 305.778 183.409C307.475 181.899 308.91 180.128 310.024 178.165C310.679 177.011 311.232 175.803 311.674 174.555C312.138 173.182 312.522 171.784 312.824 170.369C313.52 167.423 314.278 164.251 315.081 160.877C316.687 154.139 318.489 146.605 320.433 138.485V138.424H320.478C321.093 137.83 321.709 137.227 322.324 136.597C322.627 136.283 322.931 135.968 323.216 135.645C323.359 135.479 323.511 135.313 323.627 135.146C323.717 134.982 323.769 134.8 323.778 134.613C324.019 132.865 324.206 131.056 324.403 129.23V129.116L324.51 129.063L326.213 128.128C326.338 128.05 326.534 127.962 326.615 127.892C326.7 127.817 326.757 127.715 326.775 127.604C326.817 127.314 326.817 127.02 326.775 126.73C326.689 126.089 326.555 125.455 326.374 124.833C326.071 124.29 325.561 123.885 324.956 123.706L324.804 123.653V123.505C324.804 122.998 324.75 122.473 324.688 121.958C324.664 121.7 324.625 121.443 324.572 121.189C324.551 121.077 324.515 120.968 324.465 120.865C324.465 120.804 324.465 120.865 324.411 120.813C324.363 120.788 324.312 120.768 324.26 120.752C323.187 120.523 322.093 120.403 320.995 120.393H320.763V120.166C320.763 119.624 320.763 119.021 320.763 118.418C320.726 118.212 320.654 118.014 320.549 117.833C320.46 117.623 320.353 117.422 320.246 117.212C320.037 116.807 319.792 116.421 319.514 116.058C319.388 115.889 319.235 115.742 319.059 115.621C318.995 115.568 318.915 115.534 318.831 115.525C318.747 115.516 318.662 115.531 318.587 115.569C318.155 115.731 317.735 115.921 317.329 116.137C315.67 117.011 314.046 117.885 312.459 118.829L312.227 118.969L312.129 118.724C311.29 116.653 310.452 114.607 309.631 112.606C309.221 111.601 308.819 110.596 308.409 109.608C308.346 109.387 308.22 109.188 308.047 109.033C307.873 108.878 307.659 108.775 307.428 108.734C307.215 108.665 306.984 108.669 306.773 108.745C306.562 108.821 306.384 108.965 306.268 109.154C306.157 109.341 306.11 109.559 306.134 109.774C306.134 109.967 306.259 110.264 306.313 110.5C306.456 111.007 306.589 111.505 306.723 112.003C306.991 113.008 307.249 113.996 307.517 114.975C308.04 116.944 308.555 118.867 309.06 120.743V120.804C308.882 124.393 308.712 127.831 308.552 131.117V131.1L300.426 157.005L298.133 164.216C297.866 165.029 297.66 165.667 297.518 166.112C297.375 166.558 297.286 166.75 297.286 166.75C297.286 166.75 297.33 166.523 297.455 166.095L298.017 164.181C298.535 162.494 299.275 160.056 300.212 156.944C302.138 150.686 304.877 141.754 308.186 130.986V131.03C308.341 127.755 308.498 124.318 308.659 120.717V120.778C308.15 118.899 307.624 116.976 307.098 115.018L306.295 112.047C306.161 111.548 306.027 111.042 305.885 110.543C305.808 110.282 305.745 110.016 305.697 109.748C305.664 109.445 305.73 109.139 305.885 108.874C306.05 108.601 306.305 108.392 306.607 108.28C306.907 108.194 307.223 108.184 307.528 108.251C307.832 108.319 308.114 108.461 308.347 108.664C308.57 108.87 308.736 109.129 308.828 109.416L310.05 112.414C310.88 114.424 311.709 116.469 312.557 118.532L312.227 118.418C313.823 117.492 315.429 116.565 317.124 115.7C317.552 115.481 317.993 115.285 318.444 115.114C318.585 115.057 318.738 115.036 318.89 115.053C319.043 115.075 319.189 115.129 319.318 115.211C319.533 115.362 319.723 115.544 319.88 115.752C320.178 116.135 320.438 116.545 320.656 116.976C320.772 117.195 320.879 117.404 320.977 117.623C321.104 117.854 321.189 118.106 321.227 118.366C321.227 118.986 321.227 119.563 321.227 120.114L321.004 119.878C322.151 119.885 323.293 120.014 324.411 120.262C324.488 120.289 324.563 120.321 324.634 120.358C324.733 120.411 324.813 120.49 324.866 120.586C324.936 120.728 324.987 120.877 325.018 121.031C325.072 121.311 325.107 121.573 325.143 121.844C325.196 122.377 325.232 122.902 325.259 123.426L325.098 123.216C325.463 123.321 325.802 123.498 326.095 123.735C326.388 123.973 326.629 124.266 326.802 124.597C326.998 125.261 327.141 125.939 327.23 126.625C327.292 126.975 327.292 127.333 327.23 127.683C327.191 127.894 327.078 128.086 326.909 128.224C326.763 128.32 326.611 128.408 326.454 128.487L324.759 129.352L324.875 129.186C324.67 131.012 324.483 132.804 324.233 134.578L324.18 134.919C324.159 135.057 324.1 135.187 324.01 135.295C323.879 135.486 323.733 135.668 323.573 135.837C323.27 136.169 322.966 136.492 322.681 136.807C322.066 137.436 321.45 138.039 320.826 138.634L320.888 138.529C318.926 146.64 317.106 154.173 315.474 160.912C314.662 164.277 313.886 167.45 313.172 170.386C312.867 171.812 312.474 173.219 311.995 174.599C311.536 175.858 310.969 177.078 310.3 178.243C309.161 180.232 307.693 182.022 305.956 183.54C304.633 184.656 303.005 185.367 301.273 185.585C300.195 185.727 299.098 185.619 298.071 185.27C297.809 185.176 297.556 185.062 297.313 184.93L297.036 184.816Z" fill="#EB996E"/>
<path d="M321.031 120.044C321.031 120.105 320.728 120.14 320.255 120.157C319.654 120.169 319.057 120.239 318.471 120.367C317.905 120.503 317.384 120.777 316.954 121.163C316.633 121.46 316.491 121.713 316.419 121.687C316.348 121.661 316.419 121.346 316.714 120.944C317.129 120.435 317.707 120.078 318.355 119.93C318.979 119.779 319.628 119.75 320.264 119.843C320.745 119.904 321.031 119.983 321.031 120.044Z" fill="#EB996E"/>
<path d="M318.444 120.14C318.328 120.096 318.319 119.825 318.444 119.537C318.569 119.249 318.747 119.047 318.863 119.091C318.979 119.135 318.997 119.406 318.863 119.694C318.729 119.983 318.533 120.184 318.444 120.14Z" fill="#EB996E"/>
<path d="M325.205 123.313C324.34 123.575 323.435 123.696 322.529 123.671C322.244 123.662 321.961 123.719 321.703 123.84C321.446 123.96 321.221 124.139 321.049 124.361C320.817 124.72 320.897 125.017 320.826 125.034C320.754 125.052 320.54 124.746 320.763 124.221C320.886 123.926 321.11 123.682 321.397 123.531C321.727 123.354 322.092 123.246 322.467 123.216C323.378 123.08 324.307 123.112 325.205 123.313Z" fill="#EB996E"/>
<path d="M324.617 126.459C324.742 126.459 324.813 127.106 324.777 127.901C324.742 128.696 324.608 129.326 324.483 129.326C324.358 129.326 324.278 128.67 324.313 127.875C324.349 127.079 324.483 126.45 324.617 126.459Z" fill="#EB996E"/>
<path d="M328.318 149.996L329.112 147.321C329.149 147.199 329.217 147.088 329.31 146.999C329.404 146.91 329.519 146.847 329.645 146.815C329.771 146.784 329.904 146.785 330.029 146.818C330.155 146.852 330.269 146.917 330.361 147.007L331.405 148.047L332.047 145.521C332.085 145.375 332.167 145.244 332.284 145.146C332.4 145.047 332.544 144.986 332.697 144.971C332.85 144.956 333.004 144.987 333.138 145.06C333.273 145.134 333.38 145.246 333.447 145.381L334.901 148.37L328.318 149.996Z" fill="white"/>
<path d="M334.919 149.515C333.921 149.988 332.862 150.323 331.77 150.511C330.715 150.849 329.616 151.038 328.506 151.071C330.559 150.263 332.718 149.739 334.919 149.515Z" fill="white"/>
<path d="M281.872 134.596C281.872 134.596 281.542 134.928 281.078 135.636C280.455 136.644 280.046 137.765 279.874 138.931C279.62 140.668 279.566 142.427 279.713 144.175C279.811 146.159 279.972 148.326 280.222 150.599C280.644 154.48 281.273 158.336 282.104 162.153C282.416 163.621 282.702 164.775 282.898 165.649C282.987 166.016 283.067 166.322 283.13 166.584C283.192 166.847 283.201 166.916 283.201 166.916C283.201 166.916 283.156 166.812 283.094 166.602C283.032 166.392 282.933 166.025 282.835 165.667C282.612 164.854 282.309 163.683 281.943 162.214C281.076 158.399 280.43 154.538 280.008 150.651C279.758 148.379 279.606 146.203 279.517 144.219C279.382 142.469 279.448 140.71 279.713 138.975C279.905 137.793 280.342 136.663 280.998 135.653C281.239 135.264 281.533 134.908 281.872 134.596Z" fill="white"/>
<path d="M300.649 122.692L300.443 122.797L299.855 123.077C299.346 123.313 298.606 123.662 297.723 124.143C295.421 125.401 293.185 126.772 291.024 128.251C288.473 129.999 286.216 131.589 284.566 132.743L282.612 134.098L282.068 134.456C282.007 134.504 281.942 134.545 281.872 134.578C281.923 134.52 281.983 134.47 282.05 134.43L282.568 134.045L284.486 132.638C286.118 131.458 288.366 129.815 290.917 128.102C293.082 126.617 295.333 125.257 297.66 124.029C298.552 123.566 299.302 123.234 299.828 123.015L300.426 122.771C300.604 122.71 300.604 122.683 300.649 122.692Z" fill="white"/>
<path d="M343.188 128.382C343.132 128.351 343.081 128.313 343.036 128.268L342.635 127.927C342.138 127.516 341.617 127.134 341.074 126.782C339.263 125.651 337.342 124.7 335.338 123.942C333.341 123.167 331.301 122.501 329.228 121.949C328.425 121.731 327.783 121.573 327.328 121.468L326.82 121.337C326.758 121.325 326.698 121.304 326.641 121.276H326.829L327.346 121.372C327.801 121.46 328.452 121.6 329.255 121.801C331.348 122.318 333.404 122.969 335.41 123.75C337.425 124.507 339.348 125.48 341.145 126.651C341.893 127.147 342.579 127.728 343.188 128.382Z" fill="white"/>
<path d="M300.898 195.094C300.777 195.073 300.66 195.035 300.55 194.98C300.241 194.847 299.942 194.689 299.658 194.508C299.178 194.226 298.759 193.854 298.425 193.413C298.092 192.972 297.85 192.471 297.714 191.939C297.469 190.864 297.591 189.74 298.062 188.74C298.198 188.429 298.371 188.136 298.579 187.866C298.722 187.683 298.82 187.595 298.829 187.604C298.586 187.977 298.368 188.365 298.178 188.766C297.763 189.748 297.667 190.831 297.901 191.869C298.157 192.893 298.793 193.788 299.685 194.377C300.426 194.902 300.916 195.059 300.898 195.094Z" fill="white"/>
<path d="M298.062 185.629C298.251 185.976 298.393 186.346 298.481 186.73C298.621 187.098 298.705 187.483 298.731 187.875C298.528 187.536 298.383 187.167 298.303 186.782C298.156 186.414 298.075 186.024 298.062 185.629Z" fill="white"/>
<path d="M310.122 381.588L337.328 381.457L336.837 289.294L336.578 195.54L299.712 195.077L293.084 207.313C290.373 212.232 288.644 217.613 287.991 223.167C287.545 227.415 290.792 241.224 291.916 244.72L302.058 276.236L310.122 381.588Z" fill="#263238"/>
<path d="M344.562 195.653L374.462 275.511C376.233 280.656 376.821 286.122 376.185 291.516C375.548 296.91 373.701 302.099 370.778 306.713L336.061 373.137L316.544 349.206L345.588 289.774L319.987 249.09L324.296 195.776L336.355 195.583L344.562 195.653Z" fill="#263238"/>
<path d="M334.099 222.407C334.099 222.407 334.099 222.547 334.099 222.818C334.099 223.088 334.143 223.508 334.179 224.024C334.241 225.099 334.322 226.646 334.429 228.647C334.634 232.694 334.919 238.506 335.321 245.681C335.722 252.857 336.061 261.413 336.507 270.94C336.721 275.695 336.953 280.685 337.185 285.859C337.354 288.481 337.283 291.103 337.31 293.725C337.337 296.347 337.31 299.109 337.31 301.853C337.31 323.817 337.381 343.7 337.408 358.113C337.408 365.297 337.408 371.118 337.408 375.164C337.408 377.166 337.408 378.722 337.408 379.805C337.408 380.312 337.408 380.679 337.408 381.012C337.408 381.344 337.408 381.422 337.408 381.422C337.408 381.422 337.408 381.282 337.408 381.012V379.805C337.408 378.722 337.408 377.183 337.354 375.164C337.354 371.118 337.283 365.306 337.23 358.121C337.167 343.709 337.087 323.826 336.998 301.862C336.998 299.118 336.998 296.408 336.998 293.734C336.998 291.059 337.051 288.42 336.882 285.868C336.659 280.703 336.436 275.712 336.231 270.957C335.82 261.448 335.446 252.892 335.142 245.69C334.839 238.488 334.616 232.702 334.447 228.656C334.375 226.663 334.322 225.107 334.286 224.024C334.286 223.508 334.286 223.15 334.286 222.818C334.286 222.485 334.099 222.407 334.099 222.407Z" fill="#455A64"/>
<path d="M333.412 197.227C333.516 197.508 333.579 197.802 333.599 198.101C333.697 198.66 333.804 199.473 333.929 200.487C334.161 202.506 334.411 205.311 334.554 208.414C334.696 211.517 334.705 214.331 334.661 216.367C334.661 217.381 334.598 218.212 334.554 218.78C334.563 219.075 334.527 219.369 334.447 219.654C334.334 218.562 334.295 217.464 334.331 216.367C334.331 214.331 334.232 211.534 334.09 208.431C333.947 205.329 333.751 202.541 333.599 200.565C333.472 199.457 333.41 198.342 333.412 197.227Z" fill="#455A64"/>
<path d="M327.418 199.027C327.462 199.088 326.954 199.316 326.811 200.024C326.771 200.216 326.782 200.415 326.843 200.601C326.904 200.788 327.013 200.956 327.159 201.09C327.335 201.251 327.555 201.358 327.793 201.4C328.03 201.442 328.274 201.416 328.497 201.326C328.711 201.218 328.889 201.053 329.012 200.851C329.135 200.649 329.198 200.416 329.193 200.181C329.184 199.985 329.125 199.795 329.021 199.628C328.916 199.461 328.769 199.324 328.595 199.228C328.232 199.056 327.827 198.986 327.426 199.027C327.426 199.027 327.516 198.914 327.748 198.844C328.082 198.764 328.434 198.798 328.747 198.94C328.996 199.041 329.211 199.209 329.369 199.423C329.526 199.638 329.62 199.891 329.639 200.155C329.674 200.48 329.604 200.808 329.439 201.093C329.275 201.377 329.023 201.604 328.719 201.741C328.416 201.878 328.077 201.918 327.749 201.857C327.421 201.795 327.121 201.633 326.891 201.396C326.702 201.211 326.567 200.979 326.503 200.725C326.438 200.471 326.446 200.204 326.526 199.954C326.615 199.627 326.817 199.34 327.096 199.141C327.275 199.018 327.409 199.001 327.418 199.027Z" fill="#455A64"/>
<path d="M313.146 197.445C313.277 197.721 313.358 198.017 313.386 198.319C313.53 199.104 313.557 199.905 313.467 200.697C313.338 201.876 312.991 203.022 312.441 204.079C311.777 205.393 310.793 206.528 309.577 207.383C308.361 208.237 306.949 208.787 305.465 208.982C304.278 209.156 303.068 209.111 301.897 208.851C301.105 208.683 300.342 208.403 299.632 208.021C299.363 207.896 299.116 207.731 298.9 207.531C299.886 207.966 300.914 208.303 301.969 208.536C303.237 208.795 304.547 208.793 305.815 208.53C307.083 208.268 308.281 207.751 309.335 207.012C310.388 206.273 311.274 205.327 311.936 204.236C312.598 203.145 313.022 201.93 313.181 200.67C313.286 199.597 313.274 198.516 313.146 197.445Z" fill="#455A64"/>
<path d="M348.148 205.101C347.566 205.167 346.976 205.098 346.426 204.9C345.079 204.485 343.868 203.724 342.921 202.698C341.964 201.676 341.307 200.42 341.021 199.062C340.88 198.508 340.88 197.929 341.021 197.375C341.101 197.375 341.11 198.013 341.377 198.992C341.739 200.257 342.396 201.422 343.297 202.394C344.199 203.367 345.319 204.12 346.569 204.594C347.496 204.953 348.157 205.014 348.148 205.101Z" fill="#455A64"/>
<path d="M358.771 291.19C358.324 291.69 357.789 292.107 357.192 292.423C356.566 292.812 355.884 293.107 355.168 293.297C354.267 293.531 353.316 293.506 352.429 293.227C350.871 292.651 349.536 291.612 348.611 290.255C348.187 289.745 347.836 289.181 347.568 288.577C348.049 289.027 348.485 289.522 348.87 290.054C349.817 291.285 351.096 292.232 352.563 292.79C353.312 292.986 354.093 293.03 354.86 292.92C355.627 292.811 356.363 292.549 357.023 292.152C357.586 291.799 358.17 291.478 358.771 291.19Z" fill="#455A64"/>
<path d="M351.956 296.286C350.902 295.216 349.961 294.045 349.147 292.79C348.209 291.622 347.39 290.366 346.703 289.041C347.764 290.106 348.709 291.278 349.521 292.537C350.467 293.698 351.283 294.955 351.956 296.286Z" fill="#455A64"/>
<path d="M306.25 225.492C306.125 225.536 305.813 225.037 305.537 224.364C305.26 223.691 305.144 223.123 305.26 223.071C305.376 223.018 305.697 223.525 305.965 224.198C306.233 224.871 306.366 225.492 306.25 225.492Z" fill="#FAFAFA"/>
<path d="M323.52 227.922C323.386 227.922 323.288 227.493 323.288 226.96C323.288 226.427 323.386 225.99 323.52 225.99C323.653 225.99 323.751 226.427 323.751 226.96C323.751 227.493 323.644 227.922 323.52 227.922Z" fill="#FAFAFA"/>
<path d="M316.419 237.116C316.294 237.116 316.152 236.592 316.107 235.919C316.062 235.246 316.107 234.704 316.25 234.695C316.392 234.686 316.526 235.22 316.571 235.893C316.615 236.566 316.544 237.107 316.419 237.116Z" fill="#FAFAFA"/>
<path d="M303.449 243.846C303.342 243.925 302.977 243.601 302.495 243.269C302.013 242.937 301.603 242.683 301.603 242.561C301.603 242.439 302.192 242.509 302.736 242.893C303.28 243.278 303.557 243.846 303.449 243.846Z" fill="#FAFAFA"/>
<path d="M326.311 252.42C326.204 252.35 326.311 251.974 326.615 251.546C326.918 251.118 327.194 250.873 327.302 250.943C327.409 251.013 327.302 251.397 326.998 251.817C326.695 252.236 326.418 252.49 326.311 252.42Z" fill="#FAFAFA"/>
<path d="M312.2 254.841C312.075 254.841 311.968 254.115 311.968 253.233C311.968 252.35 312.075 251.616 312.2 251.616C312.325 251.616 312.432 252.341 312.432 253.233C312.432 254.124 312.298 254.841 312.2 254.841Z" fill="#FAFAFA"/>
<path d="M307.579 264.647C307.508 264.743 307.044 264.542 306.545 264.184C306.045 263.826 305.653 263.459 305.769 263.354C305.885 263.249 306.313 263.459 306.812 263.817C307.312 264.175 307.66 264.542 307.579 264.647Z" fill="#FAFAFA"/>
<path d="M321.869 268.056C321.923 268.169 321.637 268.405 321.227 268.589C320.817 268.772 320.442 268.816 320.389 268.703C320.335 268.589 320.629 268.353 321.04 268.169C321.45 267.986 321.825 267.942 321.869 268.056Z" fill="#FAFAFA"/>
<path d="M312.2 284.05C312.093 284.102 311.629 283.429 311.174 282.538C310.719 281.646 310.443 280.877 310.559 280.79C310.675 280.702 311.139 281.41 311.585 282.302C312.031 283.193 312.28 283.954 312.2 284.05Z" fill="#FAFAFA"/>
<path d="M327.962 282.564C327.846 282.503 328.051 281.917 328.408 281.244C328.764 280.571 329.166 280.082 329.3 280.143C329.433 280.204 329.21 280.79 328.845 281.463C328.479 282.136 328.069 282.625 327.962 282.564Z" fill="#FAFAFA"/>
<path d="M321.049 296.102C320.915 296.102 320.933 295.394 320.79 294.573C320.647 293.751 320.433 293.096 320.558 293.035C320.683 292.973 321.111 293.594 321.254 294.503C321.396 295.412 321.174 296.129 321.049 296.102Z" fill="#FAFAFA"/>
<path d="M313.645 303.837C313.556 303.925 313.11 303.593 312.655 303.103C312.2 302.614 311.906 302.15 312.004 302.063C312.102 301.976 312.539 302.308 312.994 302.797C313.449 303.287 313.743 303.75 313.645 303.837Z" fill="#FAFAFA"/>
<path d="M331.61 306.774C331.521 306.687 331.851 306.215 332.35 305.716C332.85 305.218 333.314 304.895 333.412 304.982C333.51 305.07 333.171 305.55 332.68 306.04C332.19 306.529 331.708 306.861 331.61 306.774Z" fill="#FAFAFA"/>
<path d="M321.281 318.354C321.156 318.354 321.156 317.664 321.281 316.86C321.405 316.056 321.602 315.426 321.735 315.444C321.869 315.461 321.86 316.126 321.735 316.93C321.611 317.734 321.405 318.372 321.281 318.354Z" fill="#FAFAFA"/>
<path d="M314.332 323.974C314.216 324.035 313.823 323.581 313.44 322.96C313.056 322.34 312.86 321.789 312.967 321.728C313.074 321.667 313.467 322.113 313.859 322.733C314.252 323.354 314.439 323.904 314.332 323.974Z" fill="#FAFAFA"/>
<path d="M331.075 331.062C331.155 331.167 330.7 331.613 330.058 332.059C329.416 332.504 328.854 332.784 328.773 332.679C328.693 332.574 329.157 332.129 329.79 331.683C330.424 331.237 331.003 330.966 331.075 331.062Z" fill="#FAFAFA"/>
<path d="M317.124 340.266C316.999 340.222 317.124 339.523 317.24 338.649C317.356 337.775 317.284 337.058 317.418 337.041C317.552 337.023 317.784 337.757 317.695 338.692C317.606 339.628 317.24 340.318 317.124 340.266Z" fill="#FAFAFA"/>
<path d="M322.699 353.48C322.592 353.559 322.217 353.262 321.851 352.816C321.486 352.37 321.281 351.942 321.379 351.863C321.477 351.785 321.851 352.082 322.217 352.528C322.583 352.973 322.797 353.402 322.699 353.48Z" fill="#FAFAFA"/>
<path d="M316.606 362.343C316.499 362.413 316.009 361.897 315.509 361.181C315.01 360.464 314.698 359.835 314.796 359.765C314.894 359.695 315.393 360.21 315.893 360.927C316.392 361.644 316.714 362.273 316.606 362.343Z" fill="#FAFAFA"/>
<path d="M333.385 351.217C333.269 351.173 333.278 350.85 333.385 350.5C333.492 350.151 333.733 349.888 333.858 349.932C333.983 349.976 333.965 350.299 333.858 350.657C333.751 351.016 333.51 351.269 333.385 351.217Z" fill="#FAFAFA"/>
<path d="M325.981 372.324C325.865 372.263 326.088 371.642 326.267 370.864C326.445 370.086 326.508 369.431 326.641 369.422C326.775 369.413 326.909 370.121 326.722 370.96C326.534 371.799 326.088 372.394 325.981 372.324Z" fill="#FAFAFA"/>
<path d="M330.798 237.256C330.682 237.308 330.397 236.959 330.165 236.469C329.933 235.98 329.835 235.543 329.951 235.491C330.067 235.438 330.352 235.788 330.584 236.277C330.816 236.767 330.932 237.204 330.798 237.256Z" fill="#FAFAFA"/>
<path d="M318.444 210.04C318.515 210.145 317.891 210.634 317.222 211.333C316.553 212.032 316.098 212.679 315.982 212.618C315.866 212.557 316.169 211.744 316.874 211.027C317.579 210.311 318.355 209.926 318.444 210.04Z" fill="#FAFAFA"/>
<path d="M329.442 209.76C329.308 209.76 329.103 209.262 328.791 208.667C328.479 208.073 328.194 207.584 328.292 207.496C328.39 207.409 328.871 207.793 329.184 208.458C329.496 209.122 329.558 209.69 329.442 209.76Z" fill="#FAFAFA"/>
<path d="M295.1 218.596C294.984 218.544 295.1 217.967 295.377 217.303C295.653 216.638 295.957 216.123 296.082 216.175C296.206 216.227 296.082 216.796 295.805 217.469C295.528 218.142 295.252 218.64 295.1 218.596Z" fill="#FAFAFA"/>
<path d="M296.215 231.793C296.126 231.889 295.618 231.61 295.074 231.164C294.53 230.718 294.182 230.29 294.235 230.185C294.289 230.08 294.833 230.369 295.377 230.814C295.921 231.26 296.296 231.697 296.215 231.793Z" fill="#FAFAFA"/>
<path d="M318.747 199.56C318.631 199.56 318.382 199.281 318.203 198.835C318.025 198.389 317.971 197.961 318.087 197.961C318.203 197.961 318.453 198.241 318.631 198.686C318.81 199.132 318.863 199.517 318.747 199.56Z" fill="#FAFAFA"/>
<path d="M340.325 206.01C340.2 206.01 340.209 205.46 340.325 204.839C340.441 204.219 340.673 203.729 340.797 203.755C340.922 203.782 340.913 204.315 340.797 204.935C340.682 205.556 340.45 206.037 340.325 206.01Z" fill="#FAFAFA"/>
<path d="M345.391 216C345.275 215.948 345.436 215.301 345.757 214.541C346.078 213.78 346.426 213.212 346.542 213.256C346.658 213.299 346.542 213.955 346.185 214.715C345.828 215.476 345.516 216.044 345.391 216Z" fill="#FAFAFA"/>
<path d="M341.779 224.058C341.663 224.111 341.235 223.508 340.824 222.712C340.414 221.917 340.182 221.209 340.298 221.157C340.414 221.104 340.833 221.707 341.244 222.503C341.654 223.298 341.895 223.997 341.779 224.058Z" fill="#FAFAFA"/>
<path d="M349.503 232.117C349.388 232.073 349.503 231.566 349.7 230.989C349.896 230.412 350.208 229.975 350.333 230.019C350.458 230.063 350.333 230.57 350.137 231.147C349.941 231.723 349.664 232.16 349.503 232.117Z" fill="#FAFAFA"/>
<path d="M342.599 240.009C342.492 240.079 342.216 239.843 341.993 239.493C341.77 239.144 341.663 238.794 341.779 238.724C341.895 238.654 342.153 238.89 342.385 239.249C342.617 239.607 342.706 239.948 342.599 240.009Z" fill="#FAFAFA"/>
<path d="M344.071 256.3C343.982 256.379 343.42 255.951 342.831 255.322C342.243 254.692 341.841 254.124 341.939 254.037C342.037 253.949 342.59 254.386 343.179 255.016C343.768 255.645 344.169 256.213 344.071 256.3Z" fill="#FAFAFA"/>
<path d="M353.125 246.94C353.027 247.019 352.536 246.582 352.037 245.952C351.537 245.323 351.216 244.764 351.314 244.685C351.412 244.606 351.903 245.052 352.402 245.673C352.902 246.293 353.232 246.87 353.125 246.94Z" fill="#FAFAFA"/>
<path d="M358.093 259.849C357.977 259.796 358.183 259.141 358.548 258.389C358.914 257.638 359.298 257.061 359.44 257.113C359.583 257.166 359.36 257.83 358.994 258.581C358.629 259.333 358.209 259.91 358.093 259.849Z" fill="#FAFAFA"/>
<path d="M347.532 270.477C347.416 270.538 347.006 270.057 346.435 269.541C345.864 269.026 345.338 268.667 345.391 268.536C345.445 268.405 346.123 268.641 346.747 269.209C347.372 269.777 347.639 270.415 347.532 270.477Z" fill="#FAFAFA"/>
<path d="M348.192 281.428C348.192 281.55 347.746 281.655 347.202 281.655C346.658 281.655 346.221 281.55 346.221 281.428C346.221 281.306 346.658 281.201 347.202 281.201C347.746 281.201 348.192 281.306 348.192 281.428Z" fill="#FAFAFA"/>
<path d="M359.048 278.369C358.932 278.308 359.164 277.757 359.333 277.075C359.503 276.394 359.574 275.799 359.708 275.791C359.842 275.782 359.984 276.42 359.788 277.18C359.592 277.941 359.146 278.439 359.048 278.369Z" fill="#FAFAFA"/>
<path d="M369.832 282.048C369.716 282.092 369.386 281.472 369.101 280.676C368.815 279.881 368.681 279.199 368.797 279.164C368.913 279.129 369.252 279.732 369.538 280.528C369.823 281.323 369.957 282.005 369.832 282.048Z" fill="#FAFAFA"/>
<path d="M368.111 297.081C368.004 297.02 368.28 296.286 368.726 295.438C369.172 294.59 369.618 293.952 369.752 294.014C369.886 294.075 369.591 294.809 369.136 295.648C368.681 296.487 368.227 297.16 368.111 297.081Z" fill="#FAFAFA"/>
<path d="M358.272 305.9C358.156 305.943 357.79 305.34 357.451 304.545C357.112 303.75 356.943 303.068 357.068 303.016C357.193 302.963 357.549 303.575 357.879 304.37C358.209 305.166 358.388 305.9 358.272 305.9Z" fill="#FAFAFA"/>
<path d="M347.372 309.317C347.372 309.44 346.997 309.545 346.542 309.545C346.087 309.545 345.721 309.44 345.721 309.317C345.721 309.195 346.096 309.09 346.542 309.09C346.988 309.09 347.372 309.195 347.372 309.317Z" fill="#FAFAFA"/>
<path d="M353.616 323.38C353.5 323.38 353.25 322.899 353.062 322.235C352.875 321.571 352.839 320.994 352.964 320.968C353.089 320.942 353.33 321.448 353.517 322.113C353.705 322.777 353.74 323.31 353.616 323.38Z" fill="#FAFAFA"/>
<path d="M345.721 318.66C345.614 318.599 345.721 318.188 346.016 317.743C346.31 317.297 346.604 316.991 346.711 317.052C346.819 317.113 346.711 317.533 346.417 317.979C346.123 318.424 345.837 318.73 345.721 318.66Z" fill="#FAFAFA"/>
<path d="M345.561 334.139C345.436 334.139 345.258 333.553 345.168 332.793C345.079 332.032 345.106 331.412 345.231 331.394C345.356 331.377 345.534 331.98 345.623 332.74C345.712 333.501 345.686 334.121 345.561 334.139Z" fill="#FAFAFA"/>
</svg>
