<svg width="35" height="35" viewBox="0 0 35 35" fill="none" xmlns="http://www.w3.org/2000/svg">
<path d="M13.0781 7.07422L10.7812 6.66406C9.52344 6.39063 8.45703 6.71875 7.58203 7.64844L0.527344 14.7031L6.84375 17.4102C6.89844 17.3008 7.08984 16.8906 7.41797 16.1797C7.74609 15.4688 8.18359 14.5938 8.73047 13.5547C9.27734 12.5156 9.90625 11.4492 10.6172 10.3555C11.3828 9.20703 12.2031 8.11328 13.0781 7.07422ZM16.5234 25.7773L9.22266 18.4766C9.22266 18.4766 9.38672 18.1211 9.71484 17.4102C10.043 16.6992 10.4805 15.7969 11.0273 14.7031C11.6289 13.6094 12.3125 12.4883 13.0781 11.3398C13.8984 10.1367 14.7734 9.07031 15.7031 8.14062C17.6172 6.22656 19.4219 4.75 21.1172 3.71094C22.8125 2.61719 24.3711 1.82422 25.793 1.33203C27.2695 0.839844 28.582 0.539062 29.7305 0.429688C30.8789 0.320313 31.8359 0.320313 32.6016 0.429688C33.3672 0.539062 33.9141 0.648438 34.2422 0.757812C34.3516 1.08594 34.4609 1.63281 34.5703 2.39844C34.6797 3.16406 34.6797 4.12109 34.5703 5.26953C34.4609 6.41797 34.1602 7.73047 33.668 9.20703C33.1758 10.6289 32.3828 12.1875 31.2891 13.8828C30.25 15.5781 28.7734 17.3828 26.8594 19.2969C25.9297 20.2266 24.8633 21.1016 23.6602 21.9219C22.5117 22.6875 21.3906 23.3711 20.2969 23.9727C19.2031 24.5195 18.3008 24.957 17.5898 25.2852C16.8789 25.6133 16.5234 25.7773 16.5234 25.7773ZM27.9258 21.9219L28.3359 24.2188C28.6094 25.4766 28.2812 26.543 27.3516 27.418L20.2969 34.4727L17.5898 28.1562C17.6992 28.1016 18.1094 27.9102 18.8203 27.582C19.5312 27.2539 20.4062 26.8164 21.4453 26.2695C22.4844 25.7227 23.5508 25.0938 24.6445 24.3828C25.793 23.6172 26.8867 22.7969 27.9258 21.9219ZM12.75 27.5C12.75 26.5156 12.5039 25.6406 12.0117 24.875C11.5742 24.0547 10.9453 23.4258 10.125 22.9883C9.35938 22.4961 8.48438 22.25 7.5 22.25C6.78906 22.25 6.10547 22.3867 5.44922 22.6602C4.79297 22.9336 4.24609 23.3164 3.80859 23.8086C3.37109 24.1914 2.98828 24.8203 2.66016 25.6953C2.33203 26.5156 2.03125 27.4453 1.75781 28.4844C1.48438 29.4688 1.23828 30.4258 1.01953 31.3555C0.855469 32.2852 0.71875 33.0508 0.609375 33.6523C0.554688 34.1992 0.527344 34.4727 0.527344 34.4727C0.527344 34.4727 0.800781 34.4453 1.34766 34.3906C1.94922 34.2812 2.71484 34.1445 3.64453 33.9805C4.57422 33.7617 5.53125 33.5156 6.51562 33.2422C7.55469 32.9688 8.48438 32.668 9.30469 32.3398C10.1797 32.0117 10.8086 31.6289 11.1914 31.1914C11.6836 30.7539 12.0664 30.207 12.3398 29.5508C12.6133 28.8945 12.75 28.2109 12.75 27.5ZM19.7227 11.75C19.7227 12.7344 20.0508 13.582 20.707 14.293C21.418 14.9492 22.2656 15.2773 23.25 15.2773C24.2344 15.2773 25.0547 14.9492 25.7109 14.293C26.4219 13.582 26.7773 12.7344 26.7773 11.75C26.7773 10.7656 26.4219 9.94531 25.7109 9.28906C25.0547 8.57812 24.2344 8.22266 23.25 8.22266C22.2656 8.22266 21.418 8.57812 20.707 9.28906C20.0508 9.94531 19.7227 10.7656 19.7227 11.75Z" fill="white"/>
</svg>
