<svg width="30" height="30" viewBox="0 0 30 30" fill="none" xmlns="http://www.w3.org/2000/svg">
<path d="M7.47656 18.0234H22.5234C21.9141 19.8047 20.9297 21.2578 19.5703 22.3828C18.2109 23.4609 16.6875 24 15 24C13.3125 24 11.7891 23.4609 10.4297 22.3828C9.07031 21.2578 8.08594 19.8047 7.47656 18.0234ZM6.49219 23.5078C8.88281 25.8516 11.7188 27.0234 15 27.0234C18.2812 27.0234 21.0938 25.8516 23.4375 23.5078C25.8281 21.1172 27.0234 18.2812 27.0234 15C27.0234 11.7188 25.8281 8.90625 23.4375 6.5625C21.0938 4.17188 18.2812 2.97656 15 2.97656C11.7188 2.97656 8.88281 4.17188 6.49219 6.5625C4.14844 8.90625 2.97656 11.7188 2.97656 15C2.97656 18.2812 4.14844 21.1172 6.49219 23.5078ZM4.38281 4.45312C7.33594 1.5 10.875 0.0234375 15 0.0234375C19.125 0.0234375 22.6406 1.5 25.5469 4.45312C28.5 7.35938 29.9766 10.875 29.9766 15C29.9766 19.125 28.5 22.6641 25.5469 25.6172C22.6406 28.5234 19.125 29.9766 15 29.9766C10.875 29.9766 7.33594 28.5234 4.38281 25.6172C1.47656 22.6641 0.0234375 19.125 0.0234375 15C0.0234375 10.875 1.47656 7.35938 4.38281 4.45312ZM8.10938 12.8906C7.6875 12.4219 7.47656 11.8828 7.47656 11.2734C7.47656 10.6641 7.6875 10.1484 8.10938 9.72656C8.57812 9.25781 9.11719 9.02344 9.72656 9.02344C10.3359 9.02344 10.8516 9.25781 11.2734 9.72656C11.7422 10.1484 11.9766 10.6641 11.9766 11.2734C11.9766 11.8828 11.7422 12.4219 11.2734 12.8906C10.8516 13.3125 10.3359 13.5234 9.72656 13.5234C9.11719 13.5234 8.57812 13.3125 8.10938 12.8906ZM18.6562 12.8906C18.2344 12.4219 18.0234 11.8828 18.0234 11.2734C18.0234 10.6641 18.2344 10.1484 18.6562 9.72656C19.125 9.25781 19.6641 9.02344 20.2734 9.02344C20.8828 9.02344 21.3984 9.25781 21.8203 9.72656C22.2891 10.1484 22.5234 10.6641 22.5234 11.2734C22.5234 11.8828 22.2891 12.4219 21.8203 12.8906C21.3984 13.3125 20.8828 13.5234 20.2734 13.5234C19.6641 13.5234 19.125 13.3125 18.6562 12.8906Z" fill="#88786C"/>
</svg>
